<svg width="1278" height="868" viewBox="0 0 1278 868" fill="none" xmlns="http://www.w3.org/2000/svg">
<g clip-path="url(#clip0_5496_3335)">
<circle cx="1141.56" cy="365.862" r="0.995149" fill="white" fill-opacity="0.1"/>
<circle cx="253.522" cy="586.225" r="0.995149" fill="white" fill-opacity="0.3"/>
<circle cx="975.675" cy="557.17" r="0.995149" fill="white" fill-opacity="0.6"/>
<circle cx="107.17" cy="827.603" r="0.995149" fill="white" fill-opacity="0.1"/>
<circle cx="872.288" cy="657.445" r="0.995149" fill="white" fill-opacity="0.6"/>
<circle cx="1033.92" cy="233.143" r="0.995149" fill="white" fill-opacity="0.1"/>
<circle cx="1212.62" cy="433.317" r="0.995149" fill="white" fill-opacity="0.1"/>
<circle cx="1092.37" cy="745.012" r="0.995149" fill="white" fill-opacity="0.3"/>
<circle cx="851.683" cy="553.481" r="0.995149" fill="white" fill-opacity="0.3"/>
<circle cx="42.5254" cy="336.085" r="0.995149" fill="white" fill-opacity="0.3"/>
<circle cx="1053.09" cy="527.271" r="0.995149" fill="white" fill-opacity="0.15"/>
<circle cx="686.092" cy="521.258" r="0.995149" fill="white" fill-opacity="0.7"/>
<circle cx="438.046" cy="536.225" r="0.995149" fill="white" fill-opacity="0.15"/>
<circle cx="1188.57" cy="164.298" r="0.995149" fill="white" fill-opacity="0.3"/>
<circle cx="221.628" cy="638.112" r="0.995149" fill="white" fill-opacity="0.1"/>
<circle cx="1090.92" cy="774.428" r="0.995149" fill="white" fill-opacity="0.3"/>
<circle cx="885.593" cy="329.308" r="0.995149" fill="white" fill-opacity="0.15"/>
<circle cx="746.794" cy="269.846" r="0.995149" fill="white" fill-opacity="0.3"/>
<circle cx="502.973" cy="331.546" r="0.995149" fill="white" fill-opacity="0.1"/>
<circle cx="1118.37" cy="716.579" r="0.995149" fill="white" fill-opacity="0.3"/>
<circle cx="870.444" cy="131.837" r="0.995149" fill="white" fill-opacity="0.1"/>
<circle cx="261.552" cy="204.702" r="0.995149" fill="white" fill-opacity="0.3"/>
<circle cx="14.0293" cy="434.939" r="0.995149" fill="white" fill-opacity="0.3"/>
<circle cx="92.044" cy="774.204" r="0.995149" fill="white" fill-opacity="0.1"/>
<circle cx="685.401" cy="136.411" r="0.995149" fill="white" fill-opacity="0.3"/>
<circle cx="1123.02" cy="303.987" r="0.995149" fill="white" fill-opacity="0.1"/>
<circle cx="658.399" cy="267.909" r="0.995149" fill="white" fill-opacity="0.3"/>
<circle cx="1159.59" cy="802.825" r="0.995149" fill="white" fill-opacity="0.1"/>
<circle cx="1025.21" cy="690.979" r="0.995149" fill="white" fill-opacity="0.6"/>
<circle cx="549.607" cy="186.678" r="0.995149" fill="white" fill-opacity="0.15"/>
<circle cx="1079.41" cy="194.631" r="0.995149" fill="white" fill-opacity="0.1"/>
<circle cx="917.487" cy="772.048" r="0.995149" fill="white" fill-opacity="0.3"/>
<circle cx="161.825" cy="447.335" r="0.995149" fill="white" fill-opacity="0.3"/>
<circle cx="439.134" cy="730.778" r="0.995149" fill="white" fill-opacity="0.1"/>
<circle cx="205.887" cy="493.993" r="0.995149" fill="white" fill-opacity="0.6"/>
<circle cx="445.297" cy="167.038" r="0.995149" fill="white" fill-opacity="0.3"/>
<circle cx="89.9043" cy="824.338" r="0.995149" fill="white" fill-opacity="0.3"/>
<circle cx="796.476" cy="462.352" r="0.995149" fill="white" fill-opacity="0.3"/>
<circle cx="184.277" cy="445.246" r="0.995149" fill="white" fill-opacity="0.3"/>
<circle cx="570.119" cy="596.903" r="0.995149" fill="white" fill-opacity="0.3"/>
<circle cx="193.818" cy="264.167" r="0.995149" fill="white" fill-opacity="0.15"/>
<circle cx="455.546" cy="452.889" r="0.995149" fill="white" fill-opacity="0.3"/>
<circle cx="567.033" cy="296.281" r="0.995149" fill="white" fill-opacity="0.1"/>
<circle cx="471.669" cy="355.343" r="1.49272" fill="white" fill-opacity="0.3"/>
<circle cx="405.749" cy="337.192" r="1.49272" fill="white" fill-opacity="0.3"/>
<circle cx="1045.82" cy="378.149" r="1.49272" fill="white" fill-opacity="0.3"/>
<circle cx="1196.69" cy="116.32" r="1.49272" fill="white" fill-opacity="0.1"/>
<circle cx="439.589" cy="837.891" r="1.49272" fill="white" fill-opacity="0.15"/>
<circle cx="737.258" cy="340.386" r="1.49272" fill="white" fill-opacity="0.1"/>
<circle cx="452.351" cy="277.178" r="1.49272" fill="white" fill-opacity="0.1"/>
<circle cx="413.566" cy="349.733" r="1.49272" fill="white" fill-opacity="0.15"/>
<circle cx="215.704" cy="315.832" r="1.49272" fill="white" fill-opacity="0.1"/>
<circle cx="1195.27" cy="212.453" r="1.49272" fill="white" fill-opacity="0.1"/>
<circle cx="649.399" cy="38.2631" r="1.49272" fill="white" fill-opacity="0.15"/>
<circle cx="447.308" cy="419.193" r="1.49272" fill="white" fill-opacity="0.1"/>
<circle cx="1258.1" cy="641.549" r="1.49272" fill="white" fill-opacity="0.3"/>
<circle cx="475.679" cy="438.96" r="1.49272" fill="white" fill-opacity="0.3"/>
<circle cx="1195.1" cy="189.437" r="1.49272" fill="white" fill-opacity="0.1"/>
<circle cx="230.531" cy="229.563" r="1.49272" fill="white" fill-opacity="0.3"/>
<circle cx="949.299" cy="396.874" r="1.49272" fill="white" fill-opacity="0.7"/>
<circle cx="1210.15" cy="275.08" r="1.49272" fill="white" fill-opacity="0.1"/>
<circle cx="55.4771" cy="600.716" r="1.49272" fill="white" fill-opacity="0.1"/>
<circle cx="2.80425" cy="13.6091" r="1.49272" fill="white" fill-opacity="0.7"/>
<circle cx="990.901" cy="770.813" r="1.49272" fill="white" fill-opacity="0.3"/>
<circle cx="665.458" cy="134.204" r="1.49272" fill="white" fill-opacity="0.1"/>
<circle cx="1202.06" cy="522.884" r="1.49272" fill="white" fill-opacity="0.3"/>
<circle cx="1212.11" cy="818.661" r="1.49272" fill="white" fill-opacity="0.1"/>
<circle cx="399.056" cy="751.532" r="1.49272" fill="white" fill-opacity="0.1"/>
<circle cx="998.086" cy="572.747" r="1.49272" fill="white" fill-opacity="0.6"/>
<circle cx="475.474" cy="836.234" r="1.49272" fill="white" fill-opacity="0.7"/>
<circle cx="1010.45" cy="77.6993" r="1.49272" fill="white" fill-opacity="0.3"/>
<circle cx="12.4996" cy="671.505" r="1.49272" fill="white" fill-opacity="0.3"/>
<circle cx="1279.27" cy="711.983" r="1.49272" fill="white" fill-opacity="0.7"/>
<circle cx="1078.98" cy="825.492" r="1.49272" fill="white" fill-opacity="0.1"/>
<circle cx="1132.03" cy="0.488217" r="0.49725" fill="white" fill-opacity="0.1"/>
<circle cx="554.259" cy="493.159" r="0.49725" fill="white" fill-opacity="0.1"/>
<circle cx="574.427" cy="257.902" r="0.49725" fill="white" fill-opacity="0.1"/>
<circle cx="35.3361" cy="360.065" r="0.49725" fill="white" fill-opacity="0.1"/>
<circle cx="1178.79" cy="358.446" r="0.49725" fill="white" fill-opacity="0.3"/>
<circle cx="272.061" cy="114.508" r="0.49725" fill="white" fill-opacity="0.15"/>
<circle cx="463.594" cy="590.124" r="0.49725" fill="white" fill-opacity="0.15"/>
<circle cx="200.798" cy="745.108" r="0.49725" fill="white" fill-opacity="0.1"/>
<circle cx="651.008" cy="522.474" r="0.49725" fill="white" fill-opacity="0.1"/>
<circle cx="972.06" cy="811.077" r="0.49725" fill="white" fill-opacity="0.1"/>
<circle cx="1104.85" cy="771.307" r="0.49725" fill="white" fill-opacity="0.7"/>
<circle cx="97.048" cy="578.177" r="0.49725" fill="white" fill-opacity="0.6"/>
<circle cx="109.928" cy="89.1247" r="0.49725" fill="white" fill-opacity="0.1"/>
<circle cx="255.251" cy="256.861" r="0.49725" fill="white" fill-opacity="0.15"/>
<circle cx="307.602" cy="321.002" r="0.49725" fill="white" fill-opacity="0.3"/>
<circle cx="258.625" cy="359.939" r="0.49725" fill="white" fill-opacity="0.1"/>
<circle cx="791.189" cy="765.74" r="0.49725" fill="white" fill-opacity="0.6"/>
<circle cx="941.214" cy="762.548" r="0.49725" fill="white" fill-opacity="0.1"/>
<circle cx="757.478" cy="439.317" r="0.49725" fill="white" fill-opacity="0.1"/>
<circle cx="1116.51" cy="506.677" r="0.49725" fill="white" fill-opacity="0.15"/>
<circle cx="1.36248" cy="432.166" r="0.49725" fill="white" fill-opacity="0.3"/>
<circle cx="470.858" cy="659.311" r="0.49725" fill="white" fill-opacity="0.3"/>
<circle cx="1163.27" cy="137.55" r="0.49725" fill="white" fill-opacity="0.3"/>
<circle cx="971.038" cy="245.44" r="0.49725" fill="white" fill-opacity="0.1"/>
<circle cx="113.653" cy="54.2604" r="0.49725" fill="white" fill-opacity="0.3"/>
<circle cx="40.4201" cy="82.5549" r="0.49725" fill="white" fill-opacity="0.1"/>
<circle cx="679.15" cy="238.433" r="0.49725" fill="white" fill-opacity="0.15"/>
<circle cx="697.012" cy="774.265" r="0.49725" fill="white" fill-opacity="0.7"/>
<circle cx="852.288" cy="335.537" r="0.49725" fill="white" fill-opacity="0.8"/>
<circle cx="554.04" cy="101.182" r="0.49725" fill="white" fill-opacity="0.15"/>
<circle cx="168.221" cy="613.306" r="0.49725" fill="white" fill-opacity="0.1"/>
<circle cx="341.039" cy="527.888" r="0.49725" fill="white" fill-opacity="0.1"/>
<circle cx="335.143" cy="33.1373" r="0.49725" fill="white" fill-opacity="0.6"/>
<circle cx="1262.16" cy="817.133" r="0.49725" fill="white" fill-opacity="0.6"/>
<circle cx="918.331" cy="390.827" r="0.49725" fill="white" fill-opacity="0.15"/>
<circle cx="892.827" cy="48.3614" r="0.49725" fill="white" fill-opacity="0.1"/>
<circle cx="129.186" cy="79.9542" r="0.49725" fill="white" fill-opacity="0.6"/>
<circle cx="300.423" cy="641.817" r="0.49725" fill="white" fill-opacity="0.15"/>
<circle cx="837.128" cy="134.118" r="0.49725" fill="white" fill-opacity="0.7"/>
<circle cx="571.403" cy="376.482" r="0.49725" fill="white" fill-opacity="0.8"/>
<circle cx="514.075" cy="106.628" r="0.49725" fill="white" fill-opacity="0.1"/>
<circle cx="73.8762" cy="302.918" r="0.49725" fill="white" fill-opacity="0.6"/>
<circle cx="981.654" cy="200.572" r="0.49725" fill="white" fill-opacity="0.1"/>
<circle cx="849.093" cy="187.928" r="0.49725" fill="white" fill-opacity="0.15"/>
<circle cx="1085.86" cy="602.125" r="0.49725" fill="white" fill-opacity="0.15"/>
<circle cx="565.06" cy="28.5608" r="0.49725" fill="white" fill-opacity="0.1"/>
<circle cx="168.51" cy="846.595" r="0.49725" fill="white" fill-opacity="0.15"/>
<circle cx="367.95" cy="652.735" r="0.49725" fill="white" fill-opacity="0.15"/>
<circle cx="375.971" cy="404.266" r="0.49725" fill="white" fill-opacity="0.3"/>
<circle cx="816.853" cy="646.59" r="0.49725" fill="white" fill-opacity="0.3"/>
<circle cx="194.937" cy="669.789" r="0.49725" fill="white" fill-opacity="0.1"/>
<circle cx="804.331" cy="436.85" r="0.49725" fill="white" fill-opacity="0.3"/>
<circle cx="605.705" cy="173.163" r="0.49725" fill="white" fill-opacity="0.1"/>
<circle cx="197.237" cy="183.807" r="0.49725" fill="white" fill-opacity="0.1"/>
<circle cx="35.3293" cy="655.856" r="0.49725" fill="white" fill-opacity="0.1"/>
<circle cx="1017.1" cy="688.817" r="0.49725" fill="white" fill-opacity="0.1"/>
<circle cx="171.117" cy="812.81" r="0.49725" fill="white" fill-opacity="0.1"/>
<circle cx="987.013" cy="115.383" r="0.49725" fill="white" fill-opacity="0.3"/>
<circle cx="802.146" cy="630.633" r="0.49725" fill="white" fill-opacity="0.1"/>
<circle cx="327.736" cy="238.399" r="0.49725" fill="white" fill-opacity="0.6"/>
<circle cx="1073.92" cy="807.235" r="0.49725" fill="white" fill-opacity="0.1"/>
<circle cx="131.877" cy="544.127" r="0.49725" fill="white" fill-opacity="0.1"/>
<circle cx="49.3322" cy="696.824" r="0.49725" fill="white" fill-opacity="0.3"/>
<circle cx="621.921" cy="110.401" r="0.49725" fill="white" fill-opacity="0.3"/>
<circle cx="6.38983" cy="304.166" r="0.49725" fill="white" fill-opacity="0.6"/>
<circle cx="512.308" cy="699.958" r="0.49725" fill="white" fill-opacity="0.1"/>
<circle cx="628.729" cy="183.372" r="0.49725" fill="white" fill-opacity="0.3"/>
<circle cx="876.779" cy="611.288" r="0.49725" fill="white" fill-opacity="0.1"/>
<circle cx="64.6633" cy="223.379" r="0.49725" fill="white" fill-opacity="0.1"/>
<circle cx="89.384" cy="296.125" r="0.49725" fill="white" fill-opacity="0.3"/>
<circle cx="517.566" cy="105.205" r="0.49725" fill="white" fill-opacity="0.1"/>
<circle cx="1219.14" cy="37.4523" r="0.49725" fill="white" fill-opacity="0.1"/>
<circle cx="940.989" cy="735.187" r="0.49725" fill="white" fill-opacity="0.3"/>
<circle cx="159.883" cy="9.75921" r="0.49725" fill="white" fill-opacity="0.1"/>
<circle cx="1158.69" cy="699.549" r="0.49725" fill="white" fill-opacity="0.15"/>
<circle cx="855.489" cy="404.046" r="0.49725" fill="white" fill-opacity="0.3"/>
<circle cx="999.759" cy="425.464" r="0.49725" fill="white" fill-opacity="0.3"/>
<circle cx="6.55682" cy="314.016" r="0.49725" fill="white" fill-opacity="0.1"/>
<circle cx="409.041" cy="330.15" r="0.49725" fill="white" fill-opacity="0.1"/>
<circle cx="860.706" cy="114.533" r="0.49725" fill="white" fill-opacity="0.1"/>
<circle cx="865.724" cy="700.154" r="0.49725" fill="white" fill-opacity="0.1"/>
<circle cx="23.7072" cy="136.677" r="0.49725" fill="white" fill-opacity="0.1"/>
<circle cx="552.988" cy="283.016" r="0.49725" fill="white" fill-opacity="0.3"/>
<circle cx="423.927" cy="789.544" r="0.49725" fill="white" fill-opacity="0.15"/>
<circle cx="409.594" cy="381.536" r="0.49725" fill="white" fill-opacity="0.1"/>
<circle cx="328.063" cy="154.254" r="0.49725" fill="white" fill-opacity="0.15"/>
<circle cx="734.396" cy="127.021" r="0.49725" fill="white" fill-opacity="0.1"/>
<circle cx="528.46" cy="84.7808" r="0.49725" fill="white" fill-opacity="0.1"/>
<circle cx="952.97" cy="85.2353" r="0.49725" fill="white" fill-opacity="0.3"/>
<circle cx="329.522" cy="52.3108" r="0.49725" fill="white" fill-opacity="0.15"/>
<circle cx="829.386" cy="246.012" r="0.49725" fill="white" fill-opacity="0.3"/>
<circle cx="205.09" cy="554.695" r="0.49725" fill="white" fill-opacity="0.3"/>
<circle cx="1214.53" cy="459.231" r="0.49725" fill="white" fill-opacity="0.1"/>
<circle cx="320.334" cy="285.209" r="0.49725" fill="white" fill-opacity="0.3"/>
<circle cx="836.716" cy="690.019" r="0.49725" fill="white" fill-opacity="0.1"/>
<circle cx="274.992" cy="850.193" r="0.49725" fill="white" fill-opacity="0.1"/>
<circle cx="1220.31" cy="563.701" r="0.49725" fill="white" fill-opacity="0.1"/>
<circle cx="677.937" cy="361.094" r="0.49725" fill="white" fill-opacity="0.1"/>
<circle cx="363.819" cy="129.928" r="0.49725" fill="white" fill-opacity="0.7"/>
<circle cx="585.8" cy="135.551" r="0.49725" fill="white" fill-opacity="0.15"/>
<circle cx="487.567" cy="113.562" r="0.49725" fill="white" fill-opacity="0.1"/>
<circle cx="880.32" cy="194.595" r="0.49725" fill="white" fill-opacity="0.3"/>
<circle cx="552.346" cy="11.4666" r="0.49725" fill="white" fill-opacity="0.15"/>
<circle cx="440.33" cy="34.2361" r="0.49725" fill="white" fill-opacity="0.1"/>
<circle cx="823.933" cy="77.1684" r="0.49725" fill="white" fill-opacity="0.6"/>
<circle cx="696.633" cy="725.898" r="0.49725" fill="white" fill-opacity="0.1"/>
<circle cx="862.361" cy="223.642" r="0.49725" fill="white" fill-opacity="0.3"/>
<circle cx="1017.76" cy="405.922" r="0.49725" fill="white" fill-opacity="0.7"/>
<circle cx="1241.9" cy="160.759" r="0.49725" fill="white" fill-opacity="0.1"/>
<circle cx="335.261" cy="534.253" r="0.49725" fill="white" fill-opacity="0.3"/>
<circle cx="239.499" cy="8.72931" r="0.49725" fill="white" fill-opacity="0.1"/>
<circle cx="457.12" cy="154.797" r="0.49725" fill="white" fill-opacity="0.1"/>
<circle cx="1219.76" cy="835.228" r="0.49725" fill="white" fill-opacity="0.1"/>
<circle cx="807.941" cy="191.026" r="0.49725" fill="white" fill-opacity="0.3"/>
<circle cx="519.397" cy="203.544" r="0.49725" fill="white" fill-opacity="0.3"/>
<circle cx="1116.35" cy="400.071" r="0.49725" fill="white" fill-opacity="0.1"/>
<circle cx="993.802" cy="800.855" r="0.49725" fill="white" fill-opacity="0.1"/>
<circle cx="376.985" cy="690.838" r="0.49725" fill="white" fill-opacity="0.1"/>
<circle cx="54.1701" cy="203.777" r="0.49725" fill="white" fill-opacity="0.15"/>
<circle cx="663.109" cy="287.129" r="0.49725" fill="white" fill-opacity="0.1"/>
<circle cx="807.237" cy="650.432" r="0.49725" fill="white" fill-opacity="0.3"/>
<circle cx="422.981" cy="60.6934" r="0.49725" fill="white" fill-opacity="0.15"/>
<circle cx="793.802" cy="745.191" r="0.49725" fill="white" fill-opacity="0.1"/>
<circle cx="577.603" cy="534.067" r="0.49725" fill="white" fill-opacity="0.3"/>
<circle cx="324.935" cy="416.172" r="0.49725" fill="white" fill-opacity="0.7"/>
<circle cx="400.592" cy="37.1495" r="0.49725" fill="white" fill-opacity="0.3"/>
<circle cx="447.448" cy="152.299" r="0.49725" fill="white" fill-opacity="0.3"/>
<circle cx="1233.47" cy="580.332" r="0.49725" fill="white" fill-opacity="0.7"/>
<circle cx="937.355" cy="458.925" r="0.49725" fill="white" fill-opacity="0.1"/>
<circle cx="90.3469" cy="617.213" r="0.49725" fill="white" fill-opacity="0.1"/>
<circle cx="265.577" cy="847.585" r="0.49725" fill="white" fill-opacity="0.15"/>
<circle cx="389.21" cy="512.476" r="0.49725" fill="white" fill-opacity="0.1"/>
<circle cx="556.789" cy="139.142" r="0.49725" fill="white" fill-opacity="0.3"/>
<circle cx="88.2385" cy="832.689" r="0.49725" fill="white" fill-opacity="0.1"/>
<circle cx="1263.87" cy="254.722" r="0.49725" fill="white" fill-opacity="0.7"/>
<circle cx="665.794" cy="63.7664" r="0.49725" fill="white" fill-opacity="0.1"/>
<circle cx="218.468" cy="737.597" r="0.49725" fill="white" fill-opacity="0.1"/>
<circle cx="849.308" cy="277.158" r="0.49725" fill="white" fill-opacity="0.1"/>
<circle cx="1100.53" cy="95.3288" r="0.49725" fill="white" fill-opacity="0.6"/>
<circle cx="290.034" cy="711.41" r="0.49725" fill="white" fill-opacity="0.1"/>
<circle cx="110.147" cy="257.291" r="0.49725" fill="white" fill-opacity="0.3"/>
<circle cx="688.959" cy="424.992" r="0.49725" fill="white" fill-opacity="0.3"/>
<circle cx="1141.51" cy="498.107" r="0.49725" fill="white" fill-opacity="0.3"/>
<circle cx="554.111" cy="832.115" r="0.49725" fill="white" fill-opacity="0.15"/>
<circle cx="1234.23" cy="658.776" r="0.49725" fill="white" fill-opacity="0.3"/>
<circle cx="1027.44" cy="789.88" r="0.49725" fill="white" fill-opacity="0.6"/>
<circle cx="271.749" cy="658.211" r="0.49725" fill="white" fill-opacity="0.3"/>
<circle cx="440.426" cy="363.073" r="0.49725" fill="white" fill-opacity="0.3"/>
<circle cx="429.704" cy="196.253" r="0.49725" fill="white" fill-opacity="0.1"/>
<circle cx="827.628" cy="493.376" r="0.49725" fill="white" fill-opacity="0.3"/>
<circle cx="1150.88" cy="517.846" r="0.49725" fill="white" fill-opacity="0.3"/>
<circle cx="280.372" cy="805.613" r="0.49725" fill="white" fill-opacity="0.1"/>
<circle cx="326.038" cy="357.747" r="0.49725" fill="white" fill-opacity="0.15"/>
<circle cx="1133.42" cy="242.702" r="0.49725" fill="white" fill-opacity="0.3"/>
<circle cx="999.974" cy="762.142" r="0.49725" fill="white" fill-opacity="0.15"/>
<circle cx="1100.63" cy="632.314" r="0.49725" fill="white" fill-opacity="0.6"/>
<circle cx="74.3644" cy="586.791" r="0.49725" fill="white" fill-opacity="0.15"/>
<circle cx="530.311" cy="550.645" r="0.49725" fill="white" fill-opacity="0.3"/>
<circle cx="571.908" cy="264.199" r="0.49725" fill="white" fill-opacity="0.3"/>
<circle cx="20.2326" cy="14.522" r="0.49725" fill="white" fill-opacity="0.3"/>
<circle cx="612.23" cy="693.483" r="0.49725" fill="white" fill-opacity="0.1"/>
<circle cx="326.07" cy="425.923" r="0.49725" fill="white" fill-opacity="0.1"/>
<circle cx="311.022" cy="419.931" r="0.49725" fill="white" fill-opacity="0.3"/>
<circle cx="861.345" cy="328.468" r="0.49725" fill="white" fill-opacity="0.1"/>
<circle cx="109.476" cy="73.1761" r="0.49725" fill="white" fill-opacity="0.15"/>
<circle cx="984.259" cy="387.366" r="0.49725" fill="white" fill-opacity="0.6"/>
<circle cx="979.97" cy="256.635" r="0.49725" fill="white" fill-opacity="0.3"/>
<circle cx="160.025" cy="764.261" r="0.49725" fill="white" fill-opacity="0.3"/>
<circle cx="602.911" cy="127.055" r="0.49725" fill="white" fill-opacity="0.1"/>
<circle cx="1229.2" cy="21.7929" r="0.49725" fill="white" fill-opacity="0.1"/>
<circle cx="1163.27" cy="38.0595" r="0.49725" fill="white" fill-opacity="0.3"/>
<circle cx="897.786" cy="169.824" r="0.49725" fill="white" fill-opacity="0.3"/>
<circle cx="136.962" cy="207.586" r="0.49725" fill="white" fill-opacity="0.8"/>
<circle cx="881.38" cy="286.095" r="0.49725" fill="white" fill-opacity="0.1"/>
<circle cx="78.6213" cy="567.969" r="0.49725" fill="white" fill-opacity="0.3"/>
<circle cx="866.745" cy="635.019" r="0.49725" fill="white" fill-opacity="0.1"/>
<circle cx="425.637" cy="599.579" r="0.49725" fill="white" fill-opacity="0.1"/>
<circle cx="445.629" cy="612.148" r="0.49725" fill="white" fill-opacity="0.6"/>
<circle cx="743.521" cy="434.742" r="0.49725" fill="white" fill-opacity="0.3"/>
<circle cx="797.298" cy="161.269" r="0.49725" fill="white" fill-opacity="0.3"/>
<circle cx="1008.49" cy="725.536" r="0.49725" fill="white" fill-opacity="0.1"/>
<circle cx="967.693" cy="381.865" r="0.49725" fill="white" fill-opacity="0.1"/>
<circle cx="1248.85" cy="591.517" r="0.49725" fill="white" fill-opacity="0.1"/>
<circle cx="66.2961" cy="447.588" r="0.49725" fill="white" fill-opacity="0.1"/>
<circle cx="1239.94" cy="529.537" r="0.49725" fill="white" fill-opacity="0.6"/>
<circle cx="894.337" cy="239.87" r="0.49725" fill="white" fill-opacity="0.3"/>
<circle cx="1126.04" cy="705.266" r="0.49725" fill="white" fill-opacity="0.1"/>
<circle cx="648.606" cy="675.869" r="0.49725" fill="white" fill-opacity="0.1"/>
<circle cx="977.654" cy="69.7226" r="0.49725" fill="white" fill-opacity="0.1"/>
<circle cx="539.665" cy="793.607" r="0.49725" fill="white" fill-opacity="0.15"/>
<circle cx="66.8703" cy="687.947" r="0.49725" fill="white" fill-opacity="0.1"/>
<circle cx="341.334" cy="815.254" r="0.49725" fill="white" fill-opacity="0.1"/>
<circle cx="704.547" cy="108.379" r="0.49725" fill="white" fill-opacity="0.15"/>
<circle cx="263.113" cy="174.32" r="0.49725" fill="white" fill-opacity="0.3"/>
<circle cx="582.98" cy="694.311" r="0.49725" fill="white" fill-opacity="0.15"/>
<circle cx="1057.96" cy="223.656" r="0.49725" fill="white" fill-opacity="0.3"/>
<circle cx="348.5" cy="457.287" r="0.49725" fill="white" fill-opacity="0.1"/>
<circle cx="81.758" cy="267.927" r="0.49725" fill="white" fill-opacity="0.3"/>
<circle cx="293.846" cy="223.381" r="0.49725" fill="white" fill-opacity="0.15"/>
<circle cx="976.28" cy="126.082" r="0.49725" fill="white" fill-opacity="0.6"/>
<circle cx="1155.23" cy="335.265" r="0.49725" fill="white" fill-opacity="0.1"/>
<circle cx="1156.39" cy="446.001" r="0.49725" fill="white" fill-opacity="0.1"/>
<circle cx="556.757" cy="735.908" r="0.49725" fill="white" fill-opacity="0.1"/>
<circle cx="1161.74" cy="621.225" r="0.49725" fill="white" fill-opacity="0.1"/>
<circle cx="638.035" cy="272.683" r="0.49725" fill="white" fill-opacity="0.3"/>
<circle cx="468.297" cy="618.197" r="0.49725" fill="white" fill-opacity="0.15"/>
<circle cx="1235.9" cy="325.791" r="0.49725" fill="white" fill-opacity="0.1"/>
<circle cx="1263.32" cy="138.569" r="0.49725" fill="white" fill-opacity="0.3"/>
<circle cx="248.95" cy="534.767" r="0.49725" fill="white" fill-opacity="0.3"/>
<circle cx="971.333" cy="504.606" r="0.49725" fill="white" fill-opacity="0.1"/>
<circle cx="1066.67" cy="340.232" r="0.49725" fill="white" fill-opacity="0.1"/>
<circle cx="1159.78" cy="743.933" r="0.49725" fill="white" fill-opacity="0.15"/>
<circle cx="887.114" cy="136.045" r="0.49725" fill="white" fill-opacity="0.7"/>
<circle cx="1235.03" cy="753.883" r="0.49725" fill="white" fill-opacity="0.1"/>
<circle cx="1263.87" cy="91.366" r="0.49725" fill="white" fill-opacity="0.3"/>
<circle cx="556.152" cy="267.959" r="0.49725" fill="white" fill-opacity="0.1"/>
<circle cx="749.806" cy="146.465" r="0.49725" fill="white" fill-opacity="0.15"/>
<circle cx="443.236" cy="488.418" r="0.49725" fill="white" fill-opacity="0.1"/>
<circle cx="679.049" cy="153.586" r="0.49725" fill="white" fill-opacity="0.3"/>
<circle cx="0.496274" cy="853.115" r="0.49725" fill="white" fill-opacity="0.1"/>
<circle cx="873.409" cy="58.4343" r="0.49725" fill="white" fill-opacity="0.3"/>
<circle cx="174.804" cy="619.914" r="0.49725" fill="white" fill-opacity="0.15"/>
<circle cx="890.923" cy="649.059" r="0.49725" fill="white" fill-opacity="0.3"/>
<circle cx="722.169" cy="824.751" r="0.49725" fill="white" fill-opacity="0.1"/>
<path d="M1213 125.99L1213.86 127.483H1212.14L1213 125.99Z" fill="white" fill-opacity="0.3"/>
<path d="M711.069 721.423L711.931 722.916H710.208L711.069 721.423Z" fill="white" fill-opacity="0.1"/>
<path d="M651.397 572.503L652.259 573.996H650.536L651.397 572.503Z" fill="white" fill-opacity="0.15"/>
<path d="M1060.98 770.043L1061.84 771.535H1060.12L1060.98 770.043Z" fill="white" fill-opacity="0.1"/>
<path d="M1134.87 424.4L1135.73 425.893H1134.01L1134.87 424.4Z" fill="white" fill-opacity="0.1"/>
<path d="M251.764 778.438L252.626 779.931H250.902L251.764 778.438Z" fill="white" fill-opacity="0.1"/>
<path d="M620.696 516.861L621.558 518.354H619.834L620.696 516.861Z" fill="white" fill-opacity="0.1"/>
<path d="M176.264 327.586L177.126 329.078H175.402L176.264 327.586Z" fill="white" fill-opacity="0.1"/>
<path d="M1227.87 150.672L1228.73 152.165H1227.01L1227.87 150.672Z" fill="white" fill-opacity="0.3"/>
<path d="M1259.76 247.827L1260.62 249.319H1258.9L1259.76 247.827Z" fill="white" fill-opacity="0.1"/>
<path d="M228.618 863.308L229.48 864.801H227.756L228.618 863.308Z" fill="white" fill-opacity="0.6"/>
<path d="M729.917 145.055L730.779 146.548H729.055L729.917 145.055Z" fill="white" fill-opacity="0.1"/>
<path d="M1039.67 328.036L1040.54 329.528H1038.81L1039.67 328.036Z" fill="white" fill-opacity="0.3"/>
<path d="M690.837 798.136L691.699 799.629H689.975L690.837 798.136Z" fill="white" fill-opacity="0.1"/>
<path d="M1248.89 472.09L1249.75 473.583H1248.03L1248.89 472.09Z" fill="white" fill-opacity="0.1"/>
<path d="M872.819 793.888L873.681 795.381H871.958L872.819 793.888Z" fill="white" fill-opacity="0.3"/>
<path d="M808.294 650.451L809.156 651.943H807.432L808.294 650.451Z" fill="white" fill-opacity="0.1"/>
<path d="M240.184 584.999L241.045 586.492H239.322L240.184 584.999Z" fill="white" fill-opacity="0.3"/>
<path d="M548.091 705.816L548.953 707.309H547.229L548.091 705.816Z" fill="white" fill-opacity="0.1"/>
<path d="M527.864 823.432L528.726 824.925H527.002L527.864 823.432Z" fill="white" fill-opacity="0.1"/>
<path d="M265.302 32.9241L265.513 33.7081L266.297 33.9192L265.513 34.1303L265.302 34.9144L265.091 34.1303L264.307 33.9192L265.091 33.7081L265.302 32.9241Z" fill="white" fill-opacity="0.8"/>
<path d="M137.36 452.779L137.571 453.563L138.356 453.774L137.571 453.985L137.36 454.769L137.149 453.985L136.365 453.774L137.149 453.563L137.36 452.779Z" fill="white" fill-opacity="0.1"/>
<path d="M1158.83 623.871L1159.05 624.655L1159.83 624.866L1159.05 625.077L1158.83 625.861L1158.62 625.077L1157.84 624.866L1158.62 624.655L1158.83 623.871Z" fill="white" fill-opacity="0.3"/>
<path d="M1149.01 226.163L1149.22 226.947L1150.01 227.158L1149.22 227.369L1149.01 228.153L1148.8 227.369L1148.02 227.158L1148.8 226.947L1149.01 226.163Z" fill="white" fill-opacity="0.3"/>
<path d="M675.662 145.781L675.873 146.566L676.657 146.777L675.873 146.988L675.662 147.772L675.451 146.988L674.667 146.777L675.451 146.566L675.662 145.781Z" fill="white" fill-opacity="0.3"/>
<path d="M627.815 383.19L628.027 383.974L628.811 384.185L628.027 384.396L627.815 385.18L627.604 384.396L626.82 384.185L627.604 383.974L627.815 383.19Z" fill="white" fill-opacity="0.1"/>
<path d="M906.53 565.266L906.741 566.05L907.525 566.261L906.741 566.472L906.53 567.256L906.319 566.472L905.535 566.261L906.319 566.05L906.53 565.266Z" fill="white" fill-opacity="0.1"/>
<path d="M230.415 109.925L230.626 110.709L231.41 110.92L230.626 111.132L230.415 111.916L230.204 111.132L229.42 110.92L230.204 110.709L230.415 109.925Z" fill="white" fill-opacity="0.1"/>
<path d="M22.2422 338.785L22.4533 339.569L23.2374 339.781L22.4533 339.992L22.2422 340.776L22.0311 339.992L21.2471 339.781L22.0311 339.569L22.2422 338.785Z" fill="white" fill-opacity="0.3"/>
<path d="M982.605 375.128L982.816 375.912L983.6 376.123L982.816 376.334L982.605 377.118L982.393 376.334L981.609 376.123L982.393 375.912L982.605 375.128Z" fill="white" fill-opacity="0.1"/>
<path d="M261.237 699.082L261.448 699.866L262.232 700.077L261.448 700.288L261.237 701.072L261.026 700.288L260.242 700.077L261.026 699.866L261.237 699.082Z" fill="white" fill-opacity="0.3"/>
<path d="M555.609 736.29L555.821 737.074L556.605 737.286L555.821 737.497L555.609 738.281L555.398 737.497L554.614 737.286L555.398 737.074L555.609 736.29Z" fill="white" fill-opacity="0.1"/>
<path d="M481.116 491.241L481.327 492.025L482.111 492.236L481.327 492.447L481.116 493.231L480.905 492.447L480.121 492.236L480.905 492.025L481.116 491.241Z" fill="white" fill-opacity="0.1"/>
<path d="M572.997 -0.999878L573.208 -0.215832L573.992 -0.00472939L573.208 0.206373L572.997 0.990419L572.786 0.206373L572.002 -0.00472939L572.786 -0.215832L572.997 -0.999878Z" fill="white" fill-opacity="0.3"/>
<path d="M1176.12 101.437L1176.34 102.221L1177.12 102.432L1176.34 102.643L1176.12 103.427L1175.91 102.643L1175.13 102.432L1175.91 102.221L1176.12 101.437Z" fill="white" fill-opacity="0.1"/>
<path d="M379.625 744.459L379.836 745.243L380.62 745.454L379.836 745.665L379.625 746.449L379.414 745.665L378.63 745.454L379.414 745.243L379.625 744.459Z" fill="white" fill-opacity="0.3"/>
<path d="M753.397 545.417L753.609 546.201L754.393 546.412L753.609 546.623L753.397 547.408L753.186 546.623L752.402 546.412L753.186 546.201L753.397 545.417Z" fill="white" fill-opacity="0.3"/>
<path d="M978.819 492.046L979.03 492.83L979.815 493.041L979.03 493.252L978.819 494.036L978.608 493.252L977.824 493.041L978.608 492.83L978.819 492.046Z" fill="white" fill-opacity="0.6"/>
<path d="M324.739 341.27L324.95 342.054L325.734 342.266L324.95 342.477L324.739 343.261L324.528 342.477L323.744 342.266L324.528 342.054L324.739 341.27Z" fill="white" fill-opacity="0.15"/>
<path d="M409.713 439.094L409.924 439.878L410.708 440.089L409.924 440.3L409.713 441.084L409.502 440.3L408.718 440.089L409.502 439.878L409.713 439.094Z" fill="white" fill-opacity="0.3"/>
<path d="M534.273 161.952L534.485 162.736L535.269 162.947L534.485 163.158L534.273 163.942L534.062 163.158L533.278 162.947L534.062 162.736L534.273 161.952Z" fill="white" fill-opacity="0.1"/>
<path d="M293.837 510.617L294.048 511.401L294.832 511.612L294.048 511.823L293.837 512.607L293.626 511.823L292.842 511.612L293.626 511.401L293.837 510.617Z" fill="white" fill-opacity="0.6"/>
<path d="M358.469 412.444L358.68 413.228L359.464 413.439L358.68 413.65L358.469 414.434L358.258 413.65L357.474 413.439L358.258 413.228L358.469 412.444Z" fill="white" fill-opacity="0.1"/>
<path d="M371.489 684.871L371.7 685.655L372.484 685.866L371.7 686.077L371.489 686.861L371.278 686.077L370.494 685.866L371.278 685.655L371.489 684.871Z" fill="white" fill-opacity="0.1"/>
<path d="M1025.53 471.271L1025.74 472.055L1026.52 472.266L1025.74 472.477L1025.53 473.261L1025.32 472.477L1024.53 472.266L1025.32 472.055L1025.53 471.271Z" fill="white" fill-opacity="0.1"/>
<path d="M311.27 471.303L311.481 472.087L312.265 472.298L311.481 472.509L311.27 473.293L311.058 472.509L310.274 472.298L311.058 472.087L311.27 471.303Z" fill="white" fill-opacity="0.8"/>
<path d="M328.641 738.784L328.852 739.569L329.636 739.78L328.852 739.991L328.641 740.775L328.43 739.991L327.646 739.78L328.43 739.569L328.641 738.784Z" fill="white" fill-opacity="0.1"/>
<path d="M776.042 174.937L776.253 175.721L777.037 175.932L776.253 176.144L776.042 176.928L775.831 176.144L775.047 175.932L775.831 175.721L776.042 174.937Z" fill="white" fill-opacity="0.15"/>
</g>
<defs>
<clipPath id="clip0_5496_3335">
<rect width="1278" height="869" fill="white" transform="translate(0 -1)"/>
</clipPath>
</defs>
</svg>
