<svg width="141" height="126" viewBox="0 0 141 126" fill="none" xmlns="http://www.w3.org/2000/svg">
<path fill-rule="evenodd" clip-rule="evenodd" d="M119.424 50.6058C119.378 50.6058 119.343 50.5624 119.348 50.5125C119.449 49.4231 119.5 48.3217 119.5 47.21C119.5 24.496 98.0416 6.08276 71.5714 6.08276C45.1012 6.08276 23.6429 24.496 23.6429 47.21C23.6429 48.3217 23.6943 49.4231 23.7952 50.5125C23.7998 50.5624 23.7645 50.6058 23.7192 50.6058C23.677 50.6058 23.6429 50.6436 23.6429 50.6902V110.359C23.6429 116.118 27.8642 120.786 33.0714 120.786H110.071C115.279 120.786 119.5 116.118 119.5 110.359V50.6902C119.5 50.6436 119.466 50.6058 119.424 50.6058ZM124.913 48.9079C124.861 48.9079 124.82 48.8579 124.826 48.8007C124.941 47.6055 125 46.3972 125 45.1776C125 20.2267 100.376 0 70 0C39.6243 0 15 20.2267 15 45.1776C15 46.3972 15.0588 47.6055 15.1744 48.8007C15.1799 48.8579 15.1394 48.9079 15.0874 48.9079C15.0391 48.9079 15 48.9512 15 49.0045V115.572C15 121.331 19.2213 126 24.4286 126H115.571C120.779 126 125 121.331 125 115.572V49.0045C125 48.9512 124.961 48.9079 124.913 48.9079Z" fill="white"/>
<path d="M106.91 52.4878C106.91 54.1174 106.614 55.6763 106.072 57.1134C104.219 62.0221 99.5109 65.509 93.9934 65.509C88.3467 65.509 83.5484 61.8563 81.7917 56.7661C71.3602 57.5222 65.3954 52.8214 62.9152 43.8618C56.6501 42.1439 52.0449 36.3686 52.0449 29.5071C52.0449 25.0695 53.9723 21.0848 57.0292 18.361C59.6303 16.0393 63.0512 14.6309 66.7988 14.6309C71.0923 14.6309 74.9585 16.4791 77.6514 19.4335C79.4627 18.2393 81.6271 17.5471 83.9519 17.5471C85.5744 17.5471 87.1207 17.8855 88.522 18.4958C92.5767 20.2603 95.4276 24.302 95.4911 29.023C95.4932 29.0783 95.4932 29.1313 95.4932 29.1867L95.4911 29.3836V29.3857C96.0807 29.2552 96.6925 29.1867 97.3221 29.1867C100.133 29.1867 102.631 30.5444 104.205 32.6449H104.208C105.3 34.1021 105.947 35.9173 105.947 37.8853C105.951 39.9263 105.238 41.9026 103.934 43.4638C103.836 43.5842 103.734 43.7015 103.629 43.8154C105.671 46.1172 106.909 49.1575 106.909 52.4878" fill="#FF5CAA"/>
<path d="M83.8088 28.4531C81.472 31.0138 80.0449 34.4318 80.0449 38.1862C80.0449 46.1264 86.429 52.5634 94.304 52.5634C95.32 52.5639 96.3332 52.4554 97.3264 52.2397M66.1755 23.8122C66.5323 29.0049 70.823 33.1056 76.0635 33.1056M91.8264 31.1773C92.8862 30.2894 94.1435 29.6735 95.4908 29.3821M77.6511 19.4297C75.9913 20.5196 74.627 22.03 73.7084 23.8122" stroke="#103849" stroke-width="1.76178" stroke-miterlimit="10" stroke-linecap="round" stroke-linejoin="round"/>
<path d="M106.91 52.4847C106.91 59.6773 101.127 65.5061 93.9934 65.5061C88.3467 65.5061 83.5484 61.8534 81.7917 56.7632C71.3602 57.5193 65.3954 52.8185 62.9152 43.8589C56.6501 42.141 52.0449 36.3656 52.0449 29.5042C52.0449 21.2879 58.6499 14.6279 66.7988 14.6279C71.0923 14.6279 74.9585 16.4762 77.6514 19.4305C79.4627 18.2363 81.6271 17.5441 83.9519 17.5441C90.3266 17.5441 95.4932 22.756 95.4932 29.1838L95.4911 29.3806V29.3828C96.0807 29.2523 96.6925 29.1838 97.3221 29.1838C102.085 29.1838 105.947 33.0774 105.947 37.8824C105.947 40.1754 105.067 42.2583 103.629 43.8125C105.671 46.1143 106.909 49.1545 106.909 52.4848L106.91 52.4847Z" stroke="#103849" stroke-width="1.54146" stroke-miterlimit="10" stroke-linejoin="round"/>
<path d="M103.629 43.8128C103.629 43.8128 102.628 42.7652 101.258 41.6748M65.1148 67.4279C64.5495 66.2372 64.1878 64.9587 64.0449 63.6465" stroke="#103849" stroke-width="1.76178" stroke-miterlimit="10" stroke-linecap="round" stroke-linejoin="round"/>
<path d="M90.439 58.3712C90.8955 59.6484 91.1284 60.996 91.1273 62.3536C91.1273 69.3364 85.0487 74.9946 77.5487 74.9946C71.9876 74.9946 67.209 71.8833 65.1126 67.4282C63.3849 68.6111 61.3122 69.3009 59.0865 69.3009C54.0956 69.3009 49.885 65.8383 48.565 61.102C47.6225 61.339 46.6548 61.4585 45.6835 61.4581C39.1639 61.4581 33.8767 56.129 33.8767 49.5531C33.8767 44.5029 36.9972 40.1869 41.4005 38.4599C41.2274 37.737 41.1352 36.9874 41.1352 36.2179C41.1352 30.2545 46.6308 25.4209 53.4113 25.4209C57.3038 25.4209 60.777 27.0171 63.0248 29.5024C64.8276 28.5273 66.9065 27.9681 69.1214 27.9681C75.9918 27.9681 81.5616 33.339 81.5616 39.9635C81.5623 40.1197 81.5586 40.276 81.5505 40.432C87.2195 41.4801 91.5284 46.7296 91.5284 53.0489C91.5284 54.9482 91.1404 56.7504 90.4388 58.3711" fill="#FF5CAA"/>
<path d="M86.0364 52.4877C88.0602 53.9954 89.6087 56.0344 90.4421 58.3737M48.5681 61.1043C48.2874 60.1005 48.1382 59.0413 48.1382 57.9446C48.1382 53.4691 50.636 49.5977 54.2632 47.7469M44.4784 37.7149C43.4039 37.8255 42.3732 38.0799 41.4038 38.4623M63.0306 29.507L63.0281 29.5049M63.0281 29.5049C61.4867 30.3452 60.1491 31.4908 59.103 32.8572" stroke="#103849" stroke-width="1.76178" stroke-miterlimit="10" stroke-linecap="round" stroke-linejoin="round"/>
<path d="M90.4456 58.3742C90.9021 59.6514 91.135 60.9989 91.1339 62.3565C91.1339 69.3394 85.0552 74.9975 77.5553 74.9975C71.9942 74.9975 67.2155 71.8863 65.1192 67.4311C63.3915 68.614 61.3188 69.3039 59.093 69.3039C54.1022 69.3039 49.8916 65.8412 48.5716 61.105C47.6291 61.3419 46.6614 61.4615 45.6901 61.461C39.1705 61.461 33.8833 56.1319 33.8833 49.556C33.8833 44.5058 37.0038 40.1898 41.4071 38.4628C41.2339 37.7399 41.1418 36.9903 41.1418 36.2209C41.1418 30.2574 46.6374 25.4238 53.4179 25.4238C57.3104 25.4238 60.7836 27.02 63.0314 29.5054C64.8342 28.5303 66.9131 27.9711 69.128 27.9711C75.9984 27.9711 81.5682 33.342 81.5682 39.9664C81.5689 40.1227 81.5652 40.2789 81.5571 40.4349C87.2261 41.483 91.535 46.7325 91.535 53.0518C91.535 54.9511 91.147 56.7533 90.4454 58.374L90.4456 58.3742Z" stroke="#103849" stroke-width="1.54146" stroke-miterlimit="10" stroke-linejoin="round"/>
<path d="M70.941 43.9975C73.1252 41.6803 76.1404 40.2451 79.4691 40.2451C80.1798 40.2451 80.875 40.3093 81.5524 40.435M80.7714 55.4968C79.0505 57.6665 76.403 59.0563 73.4335 59.0563C68.2475 59.0563 64.0435 54.8171 64.0435 49.5883C64.0402 47.4049 64.7884 45.2881 66.1605 43.599" stroke="#103849" stroke-width="1.76178" stroke-miterlimit="10" stroke-linecap="round" stroke-linejoin="round"/>
<path d="M77.5886 63.7451C77.5886 61.8856 77.1235 60.1369 76.3033 58.6089M57.9639 57.6979C59.5121 55.385 61.9224 53.7111 64.7315 53.1429M41.2234 49.565C42.4128 49.0899 43.6807 48.8461 44.9601 48.8465C47.0115 48.8436 49.015 49.4716 50.7033 50.6466M60.5288 40.8511C59.8899 41.0408 59.2136 41.1424 58.5136 41.1424C56.6558 41.1449 54.8709 40.4137 53.5412 39.1055M91.347 40.3894C92.3299 39.6499 93.5239 39.2513 94.7502 39.2532C95.091 39.253 95.4312 39.2835 95.7666 39.3443" stroke="#103849" stroke-width="1.76178" stroke-miterlimit="10" stroke-linecap="round" stroke-linejoin="round"/>
<path d="M104.644 43.8207C105.986 42.1416 106.718 40.0596 106.718 37.8858C106.718 32.6627 102.505 28.4131 97.3259 28.4131C96.9639 28.4131 96.6028 28.4344 96.2445 28.4761C95.8781 21.9608 90.506 16.7738 83.9554 16.7738C81.7712 16.7738 79.6496 17.3504 77.7804 18.4469C74.8678 15.5122 70.9199 13.8618 66.8023 13.8574C59.901 13.8574 54.04 18.4237 52.028 24.7162C45.4866 25.3332 40.3734 30.2569 40.3734 36.2208C40.3734 36.8143 40.4248 37.4089 40.5263 37.9953C36.0024 40.0397 33.115 44.5084 33.115 49.5561C33.115 56.5471 38.7558 62.2347 45.6892 62.2347C46.481 62.2348 47.271 62.1603 48.049 62.012C49.6947 66.7961 54.1377 70.0776 59.0923 70.0776C61.1027 70.079 63.078 69.5461 64.819 68.5325C67.2702 72.957 72.1736 75.7712 77.5544 75.7712C84.1055 75.7712 89.6412 71.6421 91.3516 66.0221C92.2119 66.1931 93.0968 66.2831 93.9969 66.2831C101.542 66.2831 107.681 60.0943 107.681 52.4879C107.681 49.3192 106.607 46.2673 104.644 43.8206V43.8207Z" stroke="#103849" stroke-width="3.08308" stroke-miterlimit="10" stroke-linejoin="round"/>
<path d="M57.0283 90.8056C57.0283 99.2727 50.1643 106.137 41.6972 106.137C33.2302 106.137 26.3662 99.2727 26.3662 90.8056C26.3662 82.3385 33.2302 75.4746 41.6972 75.4746C50.1643 75.4746 57.0283 82.3385 57.0283 90.8056Z" fill="white"/>
<path d="M116.78 90.8056C116.78 99.2727 109.916 106.137 101.449 106.137C92.9822 106.137 86.1183 99.2727 86.1183 90.8056C86.1183 82.3385 92.9822 75.4746 101.449 75.4746C109.916 75.4746 116.78 82.3385 116.78 90.8056Z" fill="white"/>
<path d="M125.035 57.3926C127.048 57.3926 129.042 57.7891 130.902 58.5596C132.762 59.33 134.452 60.4593 135.876 61.8829C137.299 63.3066 138.429 64.9966 139.199 66.8567C139.97 68.7167 140.366 70.7103 140.366 72.7236C140.366 74.7369 139.97 76.7305 139.199 78.5905C138.429 80.4506 137.299 82.1407 135.876 83.5643C134.452 84.9879 132.762 86.1172 130.902 86.8876C129.042 87.6581 127.048 88.0547 125.035 88.0547L125.035 57.3926Z" fill="white"/>
<path d="M15.331 57.7588C11.265 57.7588 7.36548 59.374 4.49036 62.2491C1.61523 65.1243 3.06978e-07 69.0238 0 73.0898C-3.06978e-07 77.1559 1.61523 81.0554 4.49036 83.9305C7.36548 86.8056 11.265 88.4209 15.331 88.4209L15.331 57.7588Z" fill="white"/>
</svg>
