<svg width="533" height="500" viewBox="0 0 533 500" fill="none" xmlns="http://www.w3.org/2000/svg">
<style>
  /* Dashed connection lines — flow outward from center */
  path[stroke-dasharray="5.64 5.64"] {
    animation: flowDash 2.5s linear infinite;
  }
  @keyframes flowDash {
    to { stroke-dashoffset: -11.28; }
  }
  /* Single dot: NPM → Agent Builder → Deploy */
  .dot-flow { offset-path: path('M110,293 L205,215 L250,200 L289,214.495 L377.372,292.516'); animation: moveDot 5s linear infinite; filter: drop-shadow(0 0 4px #FF1A88); }
  @keyframes moveDot {
    0% { offset-distance: 0%; opacity: 0.9; }
    35% { offset-distance: 38%; opacity: 0.9; }
    40% { offset-distance: 42%; opacity: 0; }
    60% { offset-distance: 58%; opacity: 0; }
    65% { offset-distance: 62%; opacity: 0.9; }
    100% { offset-distance: 100%; opacity: 0.9; }
  }
  /* Static blue dots pulse */
  path[fill="#64C8FF"] { animation: bluePulse 2s ease-in-out infinite; }
  @keyframes bluePulse { 0%,100% { opacity: 0.4; } 50% { opacity: 1; } }
</style>
<path d="M8 319.285L90.3364 274L172.673 319.285L90.3364 364.57L8 319.285Z" fill="url(#paint0_linear_5970_4699)" stroke="white" stroke-opacity="0.9" stroke-width="2.05841"/>
<path d="M8 319.285V376.921L90.3364 422.206V364.57L8 319.285Z" fill="#0A0A0A" fill-opacity="0.4" stroke="white" stroke-opacity="0.65" stroke-width="1.64673"/>
<path d="M90.3369 364.57V422.206L172.673 376.921V319.285L90.3369 364.57Z" fill="url(#paint1_linear_5970_4699)" stroke="white" stroke-opacity="0.75" stroke-width="1.64673"/>
<path d="M18.4932 323.582L90.3366 286.351L161.484 324.629L90.3366 364.436L18.4932 323.582Z" fill="url(#paint2_linear_5970_4699)"/>
<path d="M77.4831 319.117V307.902H79.6788L82.7907 315.152V307.902H84.939V319.117H82.7433L79.6314 311.867V319.117H77.4831ZM87.176 319.117V307.902H90.7933C91.5726 307.902 92.2572 308.054 92.8469 308.36C93.4366 308.655 93.8947 309.076 94.2212 309.623C94.5582 310.161 94.7267 310.787 94.7267 311.503C94.7267 312.23 94.5582 312.862 94.2212 313.399C93.8947 313.936 93.4366 314.357 92.8469 314.663C92.2572 314.957 91.5726 315.105 90.7933 315.105H89.4191V319.117H87.176ZM89.4191 313.067H90.5564C91.7991 313.067 92.4204 312.546 92.4204 311.503C92.4204 310.45 91.7991 309.924 90.5564 309.924H89.4191V313.067ZM99.4752 317.569L98.1641 312.04V319.117H96.1106V307.902H98.638L100.154 313.841L101.671 307.902H104.198V319.117H102.145V312.04L100.834 317.569H99.4752Z" fill="white" fill-opacity="0.8"/>
<path d="M48.9397 330.812V329.962H51.0197V326.342H49.0397V325.492H52.0397V329.962H53.8197V330.812H48.9397ZM50.9597 324.722V323.672H51.9997V324.722H50.9597ZM54.9758 330.812V325.492H55.9058L55.9258 326.452C56.0658 326.086 56.2858 325.816 56.5858 325.642C56.8858 325.462 57.2224 325.372 57.5958 325.372C57.9891 325.372 58.3158 325.462 58.5758 325.642C58.8424 325.816 59.0424 326.056 59.1758 326.362C59.3091 326.662 59.3758 327.002 59.3758 327.382V330.812H58.3658V327.642C58.3658 326.716 58.0124 326.252 57.3058 326.252C56.9391 326.252 56.6258 326.372 56.3658 326.612C56.1124 326.852 55.9858 327.202 55.9858 327.662V330.812H54.9758ZM63.2519 330.933C62.7785 330.933 62.3719 330.853 62.0319 330.692C61.6919 330.532 61.4285 330.319 61.2419 330.052C61.0552 329.779 60.9485 329.476 60.9219 329.142L61.9519 329.082C62.0052 329.376 62.1385 329.606 62.3519 329.772C62.5652 329.939 62.8685 330.022 63.2619 330.022C63.6219 330.022 63.8985 329.972 64.0919 329.872C64.2919 329.772 64.3919 329.616 64.3919 329.402C64.3919 329.269 64.3585 329.159 64.2919 329.072C64.2252 328.979 64.0985 328.902 63.9119 328.842C63.7319 328.776 63.4652 328.709 63.1119 328.642C62.5852 328.549 62.1719 328.432 61.8719 328.292C61.5719 328.146 61.3585 327.969 61.2319 327.762C61.1119 327.556 61.0519 327.302 61.0519 327.002C61.0519 326.536 61.2252 326.149 61.5719 325.842C61.9252 325.529 62.4419 325.372 63.1219 325.372C63.5952 325.372 63.9852 325.452 64.2919 325.612C64.6052 325.772 64.8452 325.986 65.0119 326.252C65.1852 326.512 65.2952 326.796 65.3419 327.102L64.3119 327.162C64.2585 326.902 64.1285 326.692 63.9219 326.532C63.7219 326.366 63.4552 326.282 63.1219 326.282C62.7619 326.282 62.4985 326.352 62.3319 326.492C62.1719 326.632 62.0919 326.802 62.0919 327.002C62.0919 327.242 62.1852 327.416 62.3719 327.522C62.5585 327.629 62.8919 327.726 63.3719 327.812C63.9119 327.906 64.3285 328.019 64.6219 328.152C64.9219 328.286 65.1285 328.452 65.2419 328.652C65.3619 328.852 65.4219 329.099 65.4219 329.392C65.4219 329.872 65.2219 330.249 64.8219 330.522C64.4219 330.796 63.8985 330.933 63.2519 330.933ZM69.928 330.812C68.8613 330.812 68.328 330.302 68.328 329.282V326.342H66.648V325.492H68.328V324.242H69.338V325.492H71.408V326.342H69.338V329.232C69.338 329.719 69.5713 329.962 70.038 329.962H71.408V330.812H69.928ZM74.4441 330.933C74.1107 330.933 73.8107 330.873 73.5441 330.752C73.2774 330.632 73.0641 330.462 72.9041 330.242C72.7507 330.022 72.6741 329.766 72.6741 329.472C72.6741 329.019 72.8107 328.669 73.0841 328.422C73.3641 328.169 73.7841 327.986 74.3441 327.873L76.0641 327.512C76.0641 326.686 75.7041 326.272 74.9841 326.272C74.6507 326.272 74.3907 326.349 74.2041 326.502C74.0174 326.656 73.8907 326.869 73.8241 327.142L72.7641 327.072C72.8641 326.566 73.1074 326.156 73.4941 325.842C73.8807 325.529 74.3774 325.372 74.9841 325.372C75.6641 325.372 76.1807 325.566 76.5341 325.952C76.8941 326.339 77.0741 326.872 77.0741 327.552V329.652C77.0741 329.772 77.0974 329.859 77.1441 329.912C77.1974 329.959 77.2774 329.982 77.3841 329.982H77.6841V330.812C77.6441 330.819 77.5774 330.826 77.4841 330.833C77.3974 330.839 77.3107 330.843 77.2241 330.843C76.6107 330.843 76.2474 330.579 76.1341 330.052C76.0007 330.312 75.7807 330.526 75.4741 330.692C75.1741 330.853 74.8307 330.933 74.4441 330.933ZM74.5941 330.102C75.0807 330.102 75.4474 329.979 75.6941 329.732C75.9407 329.479 76.0641 329.142 76.0641 328.722V328.312L74.5841 328.612C74.2641 328.679 74.0407 328.776 73.9141 328.902C73.7874 329.022 73.7241 329.186 73.7241 329.392C73.7241 329.619 73.8007 329.796 73.9541 329.922C74.1074 330.042 74.3207 330.102 74.5941 330.102ZM78.7202 330.812V329.962H80.8002V325.222C80.8002 325.016 80.7435 324.856 80.6302 324.742C80.5168 324.622 80.3535 324.562 80.1402 324.562H78.9202V323.712H80.2502C81.2902 323.712 81.8102 324.232 81.8102 325.272V329.962H83.6002V330.812H78.7202ZM84.7163 330.812V329.962H86.7962V325.222C86.7962 325.016 86.7396 324.856 86.6263 324.742C86.5129 324.622 86.3496 324.562 86.1363 324.562H84.9163V323.712H86.2463C87.2863 323.712 87.8063 324.232 87.8063 325.272V329.962H89.5963V330.812H84.7163ZM98.4284 330.933C98.0951 330.933 97.7951 330.873 97.5284 330.752C97.2618 330.632 97.0484 330.462 96.8884 330.242C96.7351 330.022 96.6584 329.766 96.6584 329.472C96.6584 329.019 96.7951 328.669 97.0684 328.422C97.3484 328.169 97.7684 327.986 98.3284 327.873L100.048 327.512C100.048 326.686 99.6884 326.272 98.9684 326.272C98.6351 326.272 98.3751 326.349 98.1884 326.502C98.0018 326.656 97.8751 326.869 97.8084 327.142L96.7484 327.072C96.8484 326.566 97.0918 326.156 97.4784 325.842C97.8651 325.529 98.3618 325.372 98.9684 325.372C99.6484 325.372 100.165 325.566 100.518 325.952C100.878 326.339 101.058 326.872 101.058 327.552V329.652C101.058 329.772 101.082 329.859 101.128 329.912C101.182 329.959 101.262 329.982 101.368 329.982H101.668V330.812C101.628 330.819 101.562 330.826 101.468 330.833C101.382 330.839 101.295 330.843 101.208 330.843C100.595 330.843 100.232 330.579 100.118 330.052C99.9851 330.312 99.7651 330.526 99.4584 330.692C99.1584 330.853 98.8151 330.933 98.4284 330.933ZM98.5784 330.102C99.0651 330.102 99.4318 329.979 99.6784 329.732C99.9251 329.479 100.048 329.142 100.048 328.722V328.312L98.5684 328.612C98.2484 328.679 98.0251 328.776 97.8984 328.902C97.7718 329.022 97.7084 329.186 97.7084 329.392C97.7084 329.619 97.7851 329.796 97.9384 329.922C98.0918 330.042 98.3051 330.102 98.5784 330.102ZM104.725 330.933C104.045 330.933 103.505 330.686 103.105 330.192C102.705 329.692 102.505 329.012 102.505 328.152C102.505 327.292 102.705 326.616 103.105 326.122C103.505 325.622 104.045 325.372 104.725 325.372C105.098 325.372 105.421 325.459 105.695 325.632C105.975 325.806 106.181 326.009 106.315 326.242V323.712H107.325V330.812H106.385L106.355 329.992C106.208 330.286 105.995 330.516 105.715 330.682C105.435 330.849 105.105 330.933 104.725 330.933ZM104.895 330.002C105.335 330.002 105.681 329.839 105.935 329.512C106.188 329.179 106.315 328.726 106.315 328.152C106.315 327.572 106.185 327.119 105.925 326.792C105.671 326.466 105.321 326.302 104.875 326.302C104.468 326.302 104.148 326.466 103.915 326.792C103.681 327.119 103.565 327.572 103.565 328.152C103.565 328.726 103.681 329.179 103.915 329.512C104.148 329.839 104.475 330.002 104.895 330.002ZM108.941 330.812V323.712H109.951V328.173L112.351 325.492H113.641L111.561 327.752L113.731 330.812H112.541L110.891 328.432L109.951 329.422V330.812H108.941ZM115.517 328.362V327.432H118.757V328.362H115.517ZM123.893 330.812C122.826 330.812 122.293 330.302 122.293 329.282V326.342H120.613V325.492H122.293V324.242H123.303V325.492H125.373V326.342H123.303V329.232C123.303 329.719 123.536 329.962 124.003 329.962H125.373V330.812H123.893ZM129.209 330.933C128.736 330.933 128.329 330.853 127.989 330.692C127.649 330.532 127.386 330.319 127.199 330.052C127.012 329.779 126.906 329.476 126.879 329.142L127.909 329.082C127.962 329.376 128.096 329.606 128.309 329.772C128.522 329.939 128.826 330.022 129.219 330.022C129.579 330.022 129.856 329.972 130.049 329.872C130.249 329.772 130.349 329.616 130.349 329.402C130.349 329.269 130.316 329.159 130.249 329.072C130.182 328.979 130.056 328.902 129.869 328.842C129.689 328.776 129.422 328.709 129.069 328.642C128.542 328.549 128.129 328.432 127.829 328.292C127.529 328.146 127.316 327.969 127.189 327.762C127.069 327.556 127.009 327.302 127.009 327.002C127.009 326.536 127.182 326.149 127.529 325.842C127.882 325.529 128.399 325.372 129.079 325.372C129.552 325.372 129.942 325.452 130.249 325.612C130.562 325.772 130.802 325.986 130.969 326.252C131.142 326.512 131.252 326.796 131.299 327.102L130.269 327.162C130.216 326.902 130.086 326.692 129.879 326.532C129.679 326.366 129.412 326.282 129.079 326.282C128.719 326.282 128.456 326.352 128.289 326.492C128.129 326.632 128.049 326.802 128.049 327.002C128.049 327.242 128.142 327.416 128.329 327.522C128.516 327.629 128.849 327.726 129.329 327.812C129.869 327.906 130.286 328.019 130.579 328.152C130.879 328.286 131.086 328.452 131.199 328.652C131.319 328.852 131.379 329.099 131.379 329.392C131.379 329.872 131.179 330.249 130.779 330.522C130.379 330.796 129.856 330.933 129.209 330.933Z" fill="white" fill-opacity="0.5"/>
<path d="M89.2026 366.142V421.527L8.54114 376.483V321.486L89.2026 366.142Z" fill="url(#paint3_linear_5970_4699)" fill-opacity="0.4" stroke="white" stroke-opacity="0.2" stroke-width="1.04755"/>
<path d="M89.2029 366.142V421.527L16.9219 382.118V326.2L89.2029 366.142Z" fill="url(#paint4_linear_5970_4699)"/>
<path fill-rule="evenodd" clip-rule="evenodd" d="M204.745 280.843C206.915 279.786 210.088 279.782 212.265 280.834L228.36 288.614C231.04 289.91 231.164 292.265 228.626 293.652L212.597 302.41L212.381 302.523C210.122 303.641 206.741 303.603 204.558 302.408L188.546 293.641C186.018 292.257 186.136 289.912 188.798 288.614L204.745 280.843ZM211.765 281.18C209.878 280.268 207.128 280.27 205.247 281.187L189.301 288.958C186.994 290.082 186.892 292.115 189.082 293.315L205.095 302.082C207.047 303.151 210.106 303.151 212.06 302.083L228.091 293.324C230.29 292.122 230.181 290.082 227.859 288.959L211.765 281.18ZM247.415 169.733C250.22 168.368 254.278 168.322 257.167 169.598L257.443 169.726L346.554 212.878C350.122 214.606 350.285 217.745 346.901 219.593L259.023 267.586L258.737 267.735C255.724 269.226 251.216 269.175 248.306 267.581L159.601 218.987C156.336 217.198 156.384 214.206 159.62 212.449L159.943 212.283L247.415 169.733ZM256.191 170.587C254.015 169.534 250.842 169.536 248.671 170.592L161.199 213.143C158.534 214.439 158.414 216.785 160.942 218.17L249.647 266.765C251.899 267.999 255.43 268 257.685 266.769L345.562 218.776C348.1 217.39 347.979 215.037 345.304 213.74L256.191 170.587ZM373.985 233.13C376.155 232.073 379.328 232.069 381.506 233.121L397.6 240.902C400.28 242.197 400.404 244.552 397.866 245.939L381.837 254.697L381.621 254.81C379.362 255.928 375.981 255.89 373.799 254.696L357.786 245.928C355.259 244.544 355.376 242.199 358.038 240.902L373.985 233.13ZM381.006 233.467C379.119 232.555 376.368 232.557 374.487 233.474L358.541 241.245C356.234 242.37 356.132 244.402 358.322 245.602L374.335 254.369C376.287 255.438 379.347 255.438 381.301 254.37L397.331 245.612C399.53 244.409 399.422 242.369 397.099 241.246L381.006 233.467ZM348.992 137.631C351.877 136.216 356.107 136.204 359.017 137.601L399.012 156.802C402.6 158.525 402.778 161.67 399.391 163.525L357.748 186.326L357.463 186.476C354.453 187.97 349.944 187.921 347.031 186.329L307.3 164.619C304.037 162.836 304.071 159.851 307.29 158.09L307.612 157.924L348.992 137.631ZM357.773 138.466C355.59 137.418 352.417 137.427 350.253 138.489L308.873 158.78C306.222 160.081 306.112 162.422 308.639 163.803L348.371 185.513C350.626 186.745 354.155 186.743 356.408 185.51L398.052 162.708C400.591 161.318 400.457 158.959 397.766 157.667L357.773 138.466Z" fill="#FF5CAA"/>
<path d="M250.606 14.3138L322.176 52.4841L253.787 89.0639L182.218 50.8937L250.606 14.3138Z" fill="#431D30"/>
<path d="M334.899 73.1597V79.5214L266.511 116.101V109.739L334.899 73.1597Z" fill="#431D30"/>
<path d="M334.899 128.825V136.777L264.92 173.357V165.404L334.899 128.825Z" fill="#431D30"/>
<path d="M334.899 187.67V194.032L264.92 230.612V224.25L334.899 187.67Z" fill="#431D30"/>
<path d="M158.362 181.309L244.245 225.841V235.383L158.362 190.851V181.309Z" fill="#431D30"/>
<path d="M311.043 103.019C311.043 103.019 274.208 122.624 250.606 135.186C226.847 122.54 189.766 102.803 189.766 102.803L179.037 109.739L250.606 147.91L322.176 109.739L311.043 103.019Z" fill="#431D30"/>
<path d="M307.862 159.885L250.606 190.851L193.351 160.377L179.037 168.585L249.841 204.7L321.41 168.12L307.862 159.885Z" fill="#431D30"/>
<path d="M158.362 65.2075V76.3405L244.245 120.872V109.739L158.362 65.2075Z" fill="#431D30"/>
<path d="M158.362 122.463L244.245 166.995V178.128L158.362 132.005V122.463Z" fill="#431D30"/>
<path fill-rule="evenodd" clip-rule="evenodd" d="M349.213 52.4841L250.606 0L152 52.4841L250.606 104.968L349.213 52.4841ZM322.176 52.4841L250.606 14.3138L182.218 50.8937L253.787 89.0639L322.176 52.4841Z" fill="#FF80BD"/>
<path d="M307.862 159.885L321.41 168.12L249.841 204.7L179.037 168.585L193.351 160.377L179.037 152.758L152 166.995L249.841 220.219L349.213 166.995L322.176 152.144L307.862 159.885Z" fill="#FF80BD"/>
<path d="M325.143 95.5136L311.043 103.019L322.176 109.739L250.606 147.91L179.037 109.739L189.766 102.803L176.437 95.7089L152 108.149L250.606 160.633L349.213 109.739L325.143 95.5136Z" fill="#FF80BD"/>
<path fill-rule="evenodd" clip-rule="evenodd" d="M349.213 166.995L249.841 220.219V249.697L349.213 197.213V166.995ZM334.899 194.032V187.67L264.92 224.25V230.612L334.899 194.032Z" fill="#FF1A88"/>
<path fill-rule="evenodd" clip-rule="evenodd" d="M249.841 220.219L152 166.995V197.213L249.841 249.697V220.219ZM244.245 225.841L158.362 181.309V190.851L244.245 235.383V225.841Z" fill="#5D1738"/>
<path fill-rule="evenodd" clip-rule="evenodd" d="M349.213 137.521V109.739L250.606 160.633V190.851L307.862 159.885L322.176 152.144L349.213 137.521ZM334.899 136.777V128.825L264.92 165.404V173.357L334.899 136.777Z" fill="#FF1A88"/>
<path fill-rule="evenodd" clip-rule="evenodd" d="M152 108.149V138.367L179.037 152.758L193.351 160.377L250.606 190.851V160.633L152 108.149ZM244.245 166.995L158.362 122.463V132.005L244.245 178.128V166.995Z" fill="#5D1738"/>
<path fill-rule="evenodd" clip-rule="evenodd" d="M250.606 104.968L152 52.4841V82.7022L176.437 95.7089L189.766 102.803L250.606 135.186V104.968ZM158.362 76.3405V65.2075L244.245 109.739V120.872L158.362 76.3405Z" fill="#5D1738"/>
<path fill-rule="evenodd" clip-rule="evenodd" d="M349.213 52.4841L250.606 104.968V135.186L311.043 103.019L325.143 95.5136L349.213 82.7022V52.4841ZM334.899 79.5214V73.1597L266.511 109.739V116.101L334.899 79.5214Z" fill="#FF1A88"/>
<path d="M215.053 53L219.396 37.1075H223.29L227.633 53H224.432L223.559 49.62H219.127L218.254 53H215.053ZM221.343 40.9575L219.843 46.8444H222.843L221.343 40.9575ZM234.809 53.3581C233.601 53.3581 232.541 53.0373 231.631 52.3956C230.735 51.739 230.034 50.7989 229.527 49.5753C229.019 48.3367 228.766 46.837 228.766 45.0761C228.766 43.36 229.004 41.8827 229.482 40.6441C229.974 39.3906 230.668 38.4281 231.564 37.7566C232.474 37.0851 233.563 36.7493 234.832 36.7493C236.398 36.7493 237.667 37.2343 238.637 38.2043C239.622 39.1743 240.286 40.5546 240.629 42.3453L237.383 42.5244C237.025 40.5844 236.182 39.6145 234.854 39.6145C233.959 39.6145 233.265 40.0845 232.772 41.0247C232.28 41.9648 232.034 43.3153 232.034 45.0761C232.034 46.8221 232.295 48.1651 232.817 49.1052C233.354 50.0304 234.1 50.493 235.055 50.493C235.846 50.493 236.466 50.2095 236.913 49.6424C237.361 49.0604 237.6 48.2546 237.63 47.225H234.809V44.7404H240.584V53H238.458L238.391 51.2541C238.047 51.8808 237.57 52.3882 236.958 52.7762C236.361 53.1641 235.645 53.3581 234.809 53.3581ZM243.351 53V37.1075H253.29V39.9726H246.53V43.6212H253.021V46.4415H246.53V50.1349H253.469V53H243.351ZM256.325 53V37.1075H259.436L263.846 47.3817V37.1075H266.89V53H263.779L259.369 42.7258V53H256.325ZM273.44 53V39.9726H269.209V37.1075H280.849V39.9726H276.618V53H273.44Z" fill="white"/>
<path d="M222.201 69.5322V60.1412H224.926C225.957 60.1412 226.742 60.366 227.28 60.8158C227.818 61.2655 228.087 61.8915 228.087 62.694C228.087 63.2054 227.933 63.6419 227.624 64.0034C227.315 64.365 226.888 64.5942 226.341 64.6912C227.038 64.7794 227.567 65.0219 227.928 65.4187C228.298 65.8155 228.484 66.3181 228.484 66.9265C228.484 67.7554 228.197 68.3991 227.624 68.8577C227.06 69.3074 226.266 69.5322 225.243 69.5322H222.201ZM223.59 64.1225H224.952C225.534 64.1225 225.962 64.0078 226.235 63.7786C226.508 63.5405 226.645 63.2098 226.645 62.7866C226.645 62.3545 226.508 62.0238 226.235 61.7945C225.962 61.5565 225.534 61.4374 224.952 61.4374H223.59V64.1225ZM223.59 68.236H225.256C225.856 68.236 226.301 68.117 226.592 67.8789C226.892 67.632 227.042 67.2925 227.042 66.8604C227.042 66.4019 226.888 66.0448 226.579 65.789C226.279 65.5333 225.838 65.4055 225.256 65.4055H223.59V68.236ZM232.394 69.6909C231.715 69.6909 231.172 69.4617 230.767 69.0032C230.361 68.5446 230.158 67.8921 230.158 67.0456V62.4956H231.494V66.7017C231.494 67.3366 231.604 67.7995 231.825 68.0905C232.045 68.3815 232.38 68.527 232.83 68.527C233.324 68.527 233.716 68.3639 234.007 68.0376C234.298 67.7113 234.444 67.2484 234.444 66.6488V62.4956H235.78V69.5322H234.523V68.355C234.135 69.2456 233.425 69.6909 232.394 69.6909ZM237.97 69.5322V68.4079H240.721V63.6198H238.102V62.4956H242.07V68.4079H244.425V69.5322H237.97ZM240.642 61.4771V60.0883H242.018V61.4771H240.642ZM245.637 69.5322V68.4079H248.388V62.1384C248.388 61.8651 248.313 61.6535 248.163 61.5036C248.013 61.3448 247.797 61.2655 247.515 61.2655H245.901V60.1412H247.66C249.036 60.1412 249.724 60.829 249.724 62.2046V68.4079H252.091V69.5322H245.637ZM256.239 69.6909C255.34 69.6909 254.626 69.3647 254.097 68.7122C253.567 68.0508 253.303 67.1514 253.303 66.0139C253.303 64.8764 253.567 63.9814 254.097 63.3289C254.626 62.6675 255.34 62.3368 256.239 62.3368C256.733 62.3368 257.161 62.4515 257.522 62.6807C257.893 62.91 258.166 63.1789 258.342 63.4876V60.1412H259.678V69.5322H258.435L258.395 68.4476C258.201 68.8356 257.919 69.1398 257.549 69.3603C257.178 69.5807 256.742 69.6909 256.239 69.6909ZM256.464 68.4609C257.046 68.4609 257.505 68.2448 257.84 67.8127C258.175 67.3718 258.342 66.7722 258.342 66.0139C258.342 65.2467 258.17 64.6471 257.827 64.215C257.491 63.783 257.029 63.5669 256.438 63.5669C255.9 63.5669 255.477 63.783 255.168 64.215C254.859 64.6471 254.705 65.2467 254.705 66.0139C254.705 66.7722 254.859 67.3718 255.168 67.8127C255.477 68.2448 255.909 68.4609 256.464 68.4609ZM264.818 69.6909C264.157 69.6909 263.579 69.541 263.086 69.2412C262.601 68.9326 262.221 68.5049 261.948 67.9582C261.684 67.4027 261.551 66.7546 261.551 66.0139C261.551 65.2732 261.684 64.6295 261.948 64.0828C262.221 63.5273 262.596 63.0996 263.072 62.7998C263.557 62.4912 264.126 62.3368 264.779 62.3368C265.405 62.3368 265.956 62.4823 266.432 62.7733C266.908 63.0643 267.279 63.4876 267.543 64.0431C267.816 64.5986 267.953 65.2644 267.953 66.0403V66.4107H262.953C262.989 67.0897 263.174 67.6011 263.509 67.945C263.844 68.2889 264.285 68.4609 264.832 68.4609C265.246 68.4609 265.59 68.3639 265.863 68.1699C266.137 67.9759 266.326 67.7157 266.432 67.3895L267.834 67.4821C267.631 68.1522 267.265 68.6901 266.736 69.0957C266.216 69.4925 265.577 69.6909 264.818 69.6909ZM262.953 65.3393H266.511C266.458 64.7397 266.273 64.2944 265.956 64.0034C265.638 63.7124 265.246 63.5669 264.779 63.5669C264.276 63.5669 263.866 63.7168 263.549 64.0166C263.24 64.3165 263.042 64.7573 262.953 65.3393ZM269.8 69.5322V68.4079H271.585V63.6198H269.8V62.4956H272.643L272.723 63.8447C272.961 62.9453 273.525 62.4956 274.416 62.4956H275.91V63.6595H274.469C273.437 63.6595 272.921 64.2239 272.921 65.3526V68.4079H275.117V69.5322H269.8Z" fill="white" fill-opacity="0.95"/>
<path d="M222.658 219.41L222.074 220.54L203.702 211.048L203.994 210.483L204.286 209.918L222.658 219.41ZM201.884 208.177L201.299 209.307L195.774 206.448L196.359 205.317L201.884 208.177ZM194.715 204.526L194.13 205.656L188.605 202.798L189.19 201.667L194.715 204.526ZM187.956 200.627L187.358 201.751L180.329 198.022L180.628 197.461L180.925 196.898L187.956 200.627ZM178.608 196.215L178 197.332L167.599 191.657L167.904 191.1L168.208 190.541L178.608 196.215ZM221.912 160.75L221.613 161.311L221.315 161.873L203.166 152.23L203.464 151.669L203.763 151.107L221.912 160.75ZM188.424 142.757L188.14 143.326L187.854 143.895L179.319 139.616L179.605 139.047L179.891 138.479L188.424 142.757ZM178.628 137.856L178.03 138.979L167.904 133.596L168.502 132.473L178.628 137.856Z" fill="#FF5CAA"/>
<path d="M322.176 110.249L311.043 104.008M347.623 54.0742L250.606 105.568L153.59 54.0742M179.037 110.249L190.17 104.008M347.623 110.249L250.606 160.183L153.59 110.249M193.351 160.183L179.037 167.985M306.271 158.622L322.176 167.985M349.213 166.424L250.606 219.479L152 166.424" stroke="#FFB3D7" stroke-width="1.59043"/>
<path d="M332 319.285L414.336 274L496.673 319.285L414.336 364.57L332 319.285Z" fill="url(#paint5_linear_5970_4699)" stroke="white" stroke-opacity="0.9" stroke-width="2.05841"/>
<path d="M332 319.285V376.921L414.336 422.206V364.57L332 319.285Z" fill="#0A0A0A" fill-opacity="0.4" stroke="white" stroke-opacity="0.65" stroke-width="1.64673"/>
<path d="M414.337 364.57V422.206L496.673 376.921V319.285L414.337 364.57Z" fill="url(#paint6_linear_5970_4699)" stroke="white" stroke-opacity="0.75" stroke-width="1.64673"/>
<path d="M342.493 323.582L414.337 286.351L485.484 324.629L414.337 364.436L342.493 323.582Z" fill="url(#paint7_linear_5970_4699)"/>
<path d="M387.339 319.117V307.902H390.229C391.799 307.902 393.025 308.386 393.91 309.355C394.795 310.324 395.237 311.709 395.237 313.509C395.237 315.31 394.795 316.695 393.91 317.664C393.025 318.633 391.799 319.117 390.229 319.117H387.339ZM389.598 317.095H390.245C391.119 317.095 391.783 316.8 392.236 316.211C392.699 315.61 392.931 314.71 392.931 313.509C392.931 312.319 392.699 311.424 392.236 310.824C391.783 310.224 391.119 309.924 390.245 309.924H389.598V317.095ZM397.063 319.117V307.902H404.077V309.924H399.306V312.498H403.887V314.489H399.306V317.095H404.203V319.117H397.063ZM406.44 319.117V307.902H410.057C410.837 307.902 411.521 308.054 412.111 308.36C412.701 308.655 413.159 309.076 413.485 309.623C413.822 310.161 413.991 310.787 413.991 311.503C413.991 312.23 413.822 312.862 413.485 313.399C413.159 313.936 412.701 314.357 412.111 314.663C411.521 314.957 410.837 315.105 410.057 315.105H408.683V319.117H406.44ZM408.683 313.067H409.821C411.063 313.067 411.685 312.546 411.685 311.503C411.685 310.45 411.063 309.924 409.821 309.924H408.683V313.067ZM416.165 319.117V307.902H418.408V317.095H423.305V319.117H416.165ZM428.89 319.37C427.532 319.37 426.484 318.864 425.747 317.853C425.02 316.842 424.657 315.4 424.657 313.525C424.657 311.64 425.02 310.192 425.747 309.181C426.484 308.16 427.532 307.649 428.89 307.649C430.249 307.649 431.291 308.16 432.018 309.181C432.755 310.192 433.124 311.64 433.124 313.525C433.124 315.4 432.755 316.842 432.018 317.853C431.291 318.864 430.249 319.37 428.89 319.37ZM428.89 317.38C429.522 317.38 430.001 317.074 430.328 316.463C430.654 315.842 430.818 314.863 430.818 313.525C430.818 312.188 430.654 311.208 430.328 310.587C430.001 309.955 429.522 309.639 428.89 309.639C428.258 309.639 427.779 309.955 427.453 310.587C427.126 311.208 426.963 312.188 426.963 313.525C426.963 314.863 427.126 315.842 427.453 316.463C427.779 317.074 428.258 317.38 428.89 317.38ZM437.241 319.117V314.441L434.097 307.902H436.53L438.362 312.119L440.194 307.902H442.627L439.499 314.441V319.117H437.241Z" fill="white" fill-opacity="0.8"/>
<path d="M378.938 330.812C377.871 330.812 377.338 330.302 377.338 329.282V326.342H375.658V325.492H377.338V324.242H378.348V325.492H380.418V326.342H378.348V329.232C378.348 329.719 378.581 329.962 379.048 329.962H380.418V330.812H378.938ZM384.174 330.933C383.68 330.933 383.247 330.819 382.874 330.592C382.507 330.366 382.22 330.046 382.014 329.632C381.814 329.212 381.714 328.719 381.714 328.152C381.714 327.586 381.814 327.096 382.014 326.682C382.22 326.262 382.507 325.939 382.874 325.712C383.247 325.486 383.68 325.372 384.174 325.372C384.667 325.372 385.097 325.486 385.464 325.712C385.837 325.939 386.124 326.262 386.324 326.682C386.53 327.096 386.634 327.586 386.634 328.152C386.634 328.719 386.53 329.212 386.324 329.632C386.124 330.046 385.837 330.366 385.464 330.592C385.097 330.819 384.667 330.933 384.174 330.933ZM384.174 330.002C384.62 330.002 384.964 329.839 385.204 329.512C385.45 329.186 385.574 328.732 385.574 328.152C385.574 327.572 385.45 327.119 385.204 326.792C384.964 326.466 384.62 326.302 384.174 326.302C383.727 326.302 383.38 326.466 383.134 326.792C382.894 327.119 382.774 327.572 382.774 328.152C382.774 328.732 382.894 329.186 383.134 329.512C383.38 329.839 383.727 330.002 384.174 330.002ZM393.886 332.313V325.492H394.846L394.856 326.352C395.016 326.032 395.233 325.789 395.506 325.622C395.786 325.456 396.109 325.372 396.476 325.372C396.989 325.372 397.409 325.502 397.736 325.763C398.063 326.016 398.306 326.352 398.466 326.772C398.626 327.192 398.706 327.652 398.706 328.152C398.706 328.652 398.626 329.112 398.466 329.532C398.306 329.952 398.063 330.292 397.736 330.552C397.409 330.806 396.989 330.933 396.476 330.933C396.123 330.933 395.806 330.859 395.526 330.712C395.253 330.566 395.043 330.362 394.896 330.102V332.313H393.886ZM396.286 330.002C396.713 330.002 397.046 329.842 397.286 329.522C397.526 329.202 397.646 328.746 397.646 328.152C397.646 327.559 397.526 327.102 397.286 326.782C397.046 326.462 396.713 326.302 396.286 326.302C395.866 326.302 395.529 326.459 395.276 326.772C395.023 327.079 394.896 327.539 394.896 328.152C394.896 328.766 395.019 329.229 395.266 329.542C395.519 329.849 395.859 330.002 396.286 330.002ZM400.002 330.812V329.962H401.352V326.342H400.002V325.492H402.152L402.212 326.512C402.392 325.832 402.819 325.492 403.492 325.492H404.622V326.372H403.532C402.752 326.372 402.362 326.799 402.362 327.652V329.962H404.022V330.812H400.002ZM408.158 330.933C407.665 330.933 407.232 330.819 406.858 330.592C406.492 330.366 406.205 330.046 405.998 329.632C405.798 329.212 405.698 328.719 405.698 328.152C405.698 327.586 405.798 327.096 405.998 326.682C406.205 326.262 406.492 325.939 406.858 325.712C407.232 325.486 407.665 325.372 408.158 325.372C408.652 325.372 409.082 325.486 409.448 325.712C409.822 325.939 410.108 326.262 410.308 326.682C410.515 327.096 410.618 327.586 410.618 328.152C410.618 328.719 410.515 329.212 410.308 329.632C410.108 330.046 409.822 330.366 409.448 330.592C409.082 330.819 408.652 330.933 408.158 330.933ZM408.158 330.002C408.605 330.002 408.948 329.839 409.188 329.512C409.435 329.186 409.558 328.732 409.558 328.152C409.558 327.572 409.435 327.119 409.188 326.792C408.948 326.466 408.605 326.302 408.158 326.302C407.712 326.302 407.365 326.466 407.118 326.792C406.878 327.119 406.758 327.572 406.758 328.152C406.758 328.732 406.878 329.186 407.118 329.512C407.365 329.839 407.712 330.002 408.158 330.002ZM413.734 330.933C413.054 330.933 412.514 330.686 412.114 330.192C411.714 329.692 411.514 329.012 411.514 328.152C411.514 327.292 411.714 326.616 412.114 326.122C412.514 325.622 413.054 325.372 413.734 325.372C414.108 325.372 414.431 325.459 414.704 325.632C414.984 325.806 415.191 326.009 415.324 326.242V323.712H416.334V330.812H415.394L415.364 329.992C415.218 330.286 415.004 330.516 414.724 330.682C414.444 330.849 414.114 330.933 413.734 330.933ZM413.904 330.002C414.344 330.002 414.691 329.839 414.944 329.512C415.198 329.179 415.324 328.726 415.324 328.152C415.324 327.572 415.194 327.119 414.934 326.792C414.681 326.466 414.331 326.302 413.884 326.302C413.478 326.302 413.158 326.466 412.924 326.792C412.691 327.119 412.574 327.572 412.574 328.152C412.574 328.726 412.691 329.179 412.924 329.512C413.158 329.839 413.484 330.002 413.904 330.002ZM419.69 330.933C419.177 330.933 418.767 330.759 418.46 330.412C418.154 330.066 418 329.572 418 328.932V325.492H419.01V328.672C419.01 329.152 419.094 329.502 419.26 329.722C419.427 329.942 419.68 330.052 420.02 330.052C420.394 330.052 420.69 329.929 420.91 329.682C421.13 329.436 421.24 329.086 421.24 328.632V325.492H422.25V330.812H421.3V329.922C421.007 330.596 420.47 330.933 419.69 330.933ZM426.266 330.933C425.773 330.933 425.34 330.819 424.966 330.592C424.593 330.359 424.303 330.036 424.096 329.622C423.89 329.202 423.786 328.712 423.786 328.152C423.786 327.592 423.89 327.106 424.096 326.692C424.303 326.272 424.593 325.949 424.966 325.722C425.34 325.489 425.773 325.372 426.266 325.372C426.873 325.372 427.38 325.542 427.786 325.882C428.2 326.216 428.456 326.682 428.556 327.282L427.526 327.352C427.446 327.019 427.296 326.762 427.076 326.582C426.856 326.396 426.59 326.302 426.276 326.302C425.823 326.302 425.47 326.469 425.216 326.802C424.963 327.129 424.836 327.579 424.836 328.152C424.836 328.726 424.963 329.179 425.216 329.512C425.47 329.839 425.823 330.002 426.276 330.002C426.596 330.002 426.87 329.909 427.096 329.722C427.33 329.529 427.483 329.246 427.556 328.872L428.586 328.932C428.486 329.539 428.226 330.026 427.806 330.392C427.386 330.752 426.873 330.933 426.266 330.933ZM432.903 330.812C431.836 330.812 431.303 330.302 431.303 329.282V326.342H429.623V325.492H431.303V324.242H432.313V325.492H434.383V326.342H432.313V329.232C432.313 329.719 432.546 329.962 433.013 329.962H434.383V330.812H432.903ZM435.899 330.812V329.962H437.979V326.342H435.999V325.492H438.999V329.962H440.779V330.812H435.899ZM437.919 324.722V323.672H438.959V324.722H437.919ZM444.135 330.933C443.641 330.933 443.208 330.819 442.835 330.592C442.468 330.366 442.181 330.046 441.975 329.632C441.775 329.212 441.675 328.719 441.675 328.152C441.675 327.586 441.775 327.096 441.975 326.682C442.181 326.262 442.468 325.939 442.835 325.712C443.208 325.486 443.641 325.372 444.135 325.372C444.628 325.372 445.058 325.486 445.425 325.712C445.798 325.939 446.085 326.262 446.285 326.682C446.491 327.096 446.595 327.586 446.595 328.152C446.595 328.719 446.491 329.212 446.285 329.632C446.085 330.046 445.798 330.366 445.425 330.592C445.058 330.819 444.628 330.933 444.135 330.933ZM444.135 330.002C444.581 330.002 444.925 329.839 445.165 329.512C445.411 329.186 445.535 328.732 445.535 328.152C445.535 327.572 445.411 327.119 445.165 326.792C444.925 326.466 444.581 326.302 444.135 326.302C443.688 326.302 443.341 326.466 443.095 326.792C442.855 327.119 442.735 327.572 442.735 328.152C442.735 328.732 442.855 329.186 443.095 329.512C443.341 329.839 443.688 330.002 444.135 330.002ZM447.931 330.812V325.492H448.861L448.881 326.452C449.021 326.086 449.241 325.816 449.541 325.642C449.841 325.462 450.178 325.372 450.551 325.372C450.944 325.372 451.271 325.462 451.531 325.642C451.798 325.816 451.998 326.056 452.131 326.362C452.264 326.662 452.331 327.002 452.331 327.382V330.812H451.321V327.642C451.321 326.716 450.968 326.252 450.261 326.252C449.894 326.252 449.581 326.372 449.321 326.612C449.068 326.852 448.941 327.202 448.941 327.662V330.812H447.931Z" fill="white" fill-opacity="0.5"/>
<path d="M413.203 366.142V421.527L332.541 376.483V321.486L413.203 366.142Z" fill="url(#paint8_linear_5970_4699)" fill-opacity="0.4" stroke="white" stroke-opacity="0.2" stroke-width="1.04755"/>
<path d="M413.203 366.142V421.527L340.922 382.118V326.2L413.203 366.142Z" fill="url(#paint9_linear_5970_4699)"/>
<path d="M205.001 215L110 293" stroke="white" stroke-opacity="0.35" stroke-width="1.69248" stroke-dasharray="5.64 5.64"/>
<path d="M106.348 286.873C107.056 286.873 107.631 286.497 107.631 286.033C107.631 285.569 107.056 285.193 106.348 285.193C105.639 285.193 105.064 285.569 105.064 286.033C105.064 286.497 105.639 286.873 106.348 286.873Z" fill="#64C8FF" fill-opacity="0.9"/>
<path d="M138.425 232.18C139.051 232.18 139.558 231.848 139.558 231.438C139.558 231.029 139.051 230.696 138.425 230.696C137.799 230.696 137.291 231.029 137.291 231.438C137.291 231.848 137.799 232.18 138.425 232.18Z" fill="#64C8FF" fill-opacity="0.7"/>
<path d="M111.427 295.85C113.32 295.85 114.855 294.317 114.855 292.425C114.855 290.533 113.32 289 111.427 289C109.534 289 108 290.533 108 292.425C108 294.317 109.534 295.85 111.427 295.85Z" fill="#64C8FF" fill-opacity="0.5"/>
<path opacity="0.462989" d="M111.895 299.79C115.703 299.79 118.79 296.703 118.79 292.895C118.79 289.087 115.703 286 111.895 286C108.087 286 105 289.087 105 292.895C105 296.703 108.087 299.79 111.895 299.79Z" fill="#64C8FF" fill-opacity="0.3"/>
<path d="M289 214.495L377.372 292.516" stroke="white" stroke-opacity="0.35" stroke-width="1.69248" stroke-dasharray="5.64 5.64"/>
<path d="M299.31 221.947C299.321 221.947 299.33 221.941 299.33 221.934C299.33 221.927 299.321 221.921 299.31 221.921C299.3 221.921 299.291 221.927 299.291 221.934C299.291 221.941 299.3 221.947 299.31 221.947Z" fill="#FF9696" fill-opacity="0.9"/>
<path d="M69.4885 454V445.48H74.8165V446.644H70.7485V449.26H74.6005V450.412H70.7485V454H69.4885ZM76.5158 454V452.98H78.1358V448.636H76.5158V447.616H79.0958L79.1678 448.84C79.3838 448.024 79.8958 447.616 80.7038 447.616H82.0598V448.672H80.7518C79.8158 448.672 79.3478 449.184 79.3478 450.208V452.98H81.3398V454H76.5158ZM86.3031 454.144C85.7111 454.144 85.1911 454.008 84.7431 453.736C84.3031 453.464 83.9591 453.08 83.7111 452.584C83.4711 452.08 83.3511 451.488 83.3511 450.808C83.3511 450.128 83.4711 449.54 83.7111 449.044C83.9591 448.54 84.3031 448.152 84.7431 447.88C85.1911 447.608 85.7111 447.472 86.3031 447.472C86.8951 447.472 87.4111 447.608 87.8511 447.88C88.2991 448.152 88.6431 448.54 88.8831 449.044C89.1311 449.54 89.2551 450.128 89.2551 450.808C89.2551 451.488 89.1311 452.08 88.8831 452.584C88.6431 453.08 88.2991 453.464 87.8511 453.736C87.4111 454.008 86.8951 454.144 86.3031 454.144ZM86.3031 453.028C86.8391 453.028 87.2511 452.832 87.5391 452.44C87.8351 452.048 87.9831 451.504 87.9831 450.808C87.9831 450.112 87.8351 449.568 87.5391 449.176C87.2511 448.784 86.8391 448.588 86.3031 448.588C85.7671 448.588 85.3511 448.784 85.0551 449.176C84.7671 449.568 84.6231 450.112 84.6231 450.808C84.6231 451.504 84.7671 452.048 85.0551 452.44C85.3511 452.832 85.7671 453.028 86.3031 453.028ZM90.3304 454V447.616H91.3864L91.4224 448.564C91.5344 448.212 91.6944 447.944 91.9024 447.76C92.1184 447.568 92.3744 447.472 92.6704 447.472C93.3024 447.472 93.6984 447.88 93.8584 448.696C93.9704 448.312 94.1424 448.012 94.3744 447.796C94.6144 447.58 94.8984 447.472 95.2264 447.472C95.7304 447.472 96.0944 447.648 96.3184 448C96.5504 448.344 96.6664 448.908 96.6664 449.692V454H95.4904V449.896C95.4904 449.384 95.4344 449.028 95.3224 448.828C95.2184 448.628 95.0544 448.528 94.8304 448.528C94.6064 448.528 94.4224 448.64 94.2784 448.864C94.1424 449.08 94.0744 449.432 94.0744 449.92V454H92.9224V449.896C92.9224 449.408 92.8704 449.06 92.7664 448.852C92.6704 448.636 92.5064 448.528 92.2744 448.528C92.0504 448.528 91.8664 448.64 91.7224 448.864C91.5784 449.08 91.5064 449.432 91.5064 449.92V454H90.3304ZM105.201 454V452.98H107.697V448.636H105.321V447.616H108.921V452.98H111.057V454H105.201ZM107.625 446.692V445.432H108.873V446.692H107.625ZM112.444 454V447.616H113.56L113.584 448.768C113.752 448.328 114.016 448.004 114.376 447.796C114.736 447.58 115.14 447.472 115.588 447.472C116.06 447.472 116.452 447.58 116.764 447.796C117.084 448.004 117.324 448.292 117.484 448.66C117.644 449.02 117.724 449.428 117.724 449.884V454H116.512V450.196C116.512 449.084 116.088 448.528 115.24 448.528C114.8 448.528 114.424 448.672 114.112 448.96C113.808 449.248 113.656 449.668 113.656 450.22V454H112.444ZM122.376 454.144C121.808 454.144 121.32 454.048 120.912 453.856C120.504 453.664 120.188 453.408 119.964 453.088C119.74 452.76 119.612 452.396 119.58 451.996L120.816 451.924C120.88 452.276 121.04 452.552 121.296 452.752C121.552 452.952 121.916 453.052 122.388 453.052C122.82 453.052 123.152 452.992 123.384 452.872C123.624 452.752 123.744 452.564 123.744 452.308C123.744 452.148 123.704 452.016 123.624 451.912C123.544 451.8 123.392 451.708 123.168 451.636C122.952 451.556 122.632 451.476 122.208 451.396C121.576 451.284 121.08 451.144 120.72 450.976C120.36 450.8 120.104 450.588 119.952 450.34C119.808 450.092 119.736 449.788 119.736 449.428C119.736 448.868 119.944 448.404 120.36 448.036C120.784 447.66 121.404 447.472 122.22 447.472C122.788 447.472 123.256 447.568 123.624 447.76C124 447.952 124.288 448.208 124.488 448.528C124.696 448.84 124.828 449.18 124.884 449.548L123.648 449.62C123.584 449.308 123.428 449.056 123.18 448.864C122.94 448.664 122.62 448.564 122.22 448.564C121.788 448.564 121.472 448.648 121.272 448.816C121.08 448.984 120.984 449.188 120.984 449.428C120.984 449.716 121.096 449.924 121.32 450.052C121.544 450.18 121.944 450.296 122.52 450.4C123.168 450.512 123.668 450.648 124.02 450.808C124.38 450.968 124.628 451.168 124.764 451.408C124.908 451.648 124.98 451.944 124.98 452.296C124.98 452.872 124.74 453.324 124.26 453.652C123.78 453.98 123.152 454.144 122.376 454.144ZM130.387 454C129.107 454 128.467 453.388 128.467 452.164V448.636H126.451V447.616H128.467V446.116H129.679V447.616H132.163V448.636H129.679V452.104C129.679 452.688 129.959 452.98 130.519 452.98H132.163V454H130.387ZM135.806 454.144C135.406 454.144 135.046 454.072 134.726 453.928C134.406 453.784 134.15 453.58 133.958 453.316C133.774 453.052 133.682 452.744 133.682 452.392C133.682 451.848 133.846 451.428 134.174 451.132C134.51 450.828 135.014 450.608 135.686 450.472L137.75 450.04C137.75 449.048 137.318 448.552 136.454 448.552C136.054 448.552 135.742 448.644 135.518 448.828C135.294 449.012 135.142 449.268 135.062 449.596L133.79 449.512C133.91 448.904 134.202 448.412 134.666 448.036C135.13 447.66 135.726 447.472 136.454 447.472C137.27 447.472 137.89 447.704 138.314 448.168C138.746 448.632 138.962 449.272 138.962 450.088V452.608C138.962 452.752 138.99 452.856 139.046 452.92C139.11 452.976 139.206 453.004 139.334 453.004H139.694V454C139.646 454.008 139.566 454.016 139.454 454.024C139.35 454.032 139.246 454.036 139.142 454.036C138.406 454.036 137.97 453.72 137.834 453.088C137.674 453.4 137.41 453.656 137.042 453.856C136.682 454.048 136.27 454.144 135.806 454.144ZM135.986 453.148C136.57 453.148 137.01 453 137.306 452.704C137.602 452.4 137.75 451.996 137.75 451.492V451L135.974 451.36C135.59 451.44 135.322 451.556 135.17 451.708C135.018 451.852 134.942 452.048 134.942 452.296C134.942 452.568 135.034 452.78 135.218 452.932C135.402 453.076 135.658 453.148 135.986 453.148ZM140.938 454V452.98H143.434V447.292C143.434 447.044 143.366 446.852 143.23 446.716C143.094 446.572 142.898 446.5 142.642 446.5H141.178V445.48H142.774C144.022 445.48 144.646 446.104 144.646 447.352V452.98H146.794V454H140.938ZM148.133 454V452.98H150.629V447.292C150.629 447.044 150.561 446.852 150.425 446.716C150.289 446.572 150.093 446.5 149.837 446.5H148.373V445.48H149.969C151.217 445.48 151.841 446.104 151.841 447.352V452.98H153.989V454H148.133ZM166.364 454C165.084 454 164.444 453.388 164.444 452.164V448.636H162.428V447.616H164.444V446.116H165.656V447.616H168.14V448.636H165.656V452.104C165.656 452.688 165.936 452.98 166.496 452.98H168.14V454H166.364ZM172.647 454.144C172.055 454.144 171.535 454.008 171.087 453.736C170.647 453.464 170.303 453.08 170.055 452.584C169.815 452.08 169.695 451.488 169.695 450.808C169.695 450.128 169.815 449.54 170.055 449.044C170.303 448.54 170.647 448.152 171.087 447.88C171.535 447.608 172.055 447.472 172.647 447.472C173.239 447.472 173.755 447.608 174.195 447.88C174.643 448.152 174.987 448.54 175.227 449.044C175.475 449.54 175.599 450.128 175.599 450.808C175.599 451.488 175.475 452.08 175.227 452.584C174.987 453.08 174.643 453.464 174.195 453.736C173.755 454.008 173.239 454.144 172.647 454.144ZM172.647 453.028C173.183 453.028 173.595 452.832 173.883 452.44C174.179 452.048 174.327 451.504 174.327 450.808C174.327 450.112 174.179 449.568 173.883 449.176C173.595 448.784 173.183 448.588 172.647 448.588C172.111 448.588 171.695 448.784 171.399 449.176C171.111 449.568 170.967 450.112 170.967 450.808C170.967 451.504 171.111 452.048 171.399 452.44C171.695 452.832 172.111 453.028 172.647 453.028ZM184.302 455.8V447.616H185.454L185.466 448.648C185.658 448.264 185.918 447.972 186.246 447.772C186.582 447.572 186.97 447.472 187.41 447.472C188.026 447.472 188.53 447.628 188.922 447.94C189.314 448.244 189.606 448.648 189.798 449.152C189.99 449.656 190.086 450.208 190.086 450.808C190.086 451.408 189.99 451.96 189.798 452.464C189.606 452.968 189.314 453.376 188.922 453.688C188.53 453.992 188.026 454.144 187.41 454.144C186.986 454.144 186.606 454.056 186.27 453.88C185.942 453.704 185.69 453.46 185.514 453.148V455.8H184.302ZM187.182 453.028C187.694 453.028 188.094 452.836 188.382 452.452C188.67 452.068 188.814 451.52 188.814 450.808C188.814 450.096 188.67 449.548 188.382 449.164C188.094 448.78 187.694 448.588 187.182 448.588C186.678 448.588 186.274 448.776 185.97 449.152C185.666 449.52 185.514 450.072 185.514 450.808C185.514 451.544 185.662 452.1 185.958 452.476C186.262 452.844 186.67 453.028 187.182 453.028ZM191.641 454V452.98H193.261V448.636H191.641V447.616H194.221L194.293 448.84C194.509 448.024 195.021 447.616 195.829 447.616H197.185V448.672H195.877C194.941 448.672 194.473 449.184 194.473 450.208V452.98H196.465V454H191.641ZM201.428 454.144C200.836 454.144 200.316 454.008 199.868 453.736C199.428 453.464 199.084 453.08 198.836 452.584C198.596 452.08 198.476 451.488 198.476 450.808C198.476 450.128 198.596 449.54 198.836 449.044C199.084 448.54 199.428 448.152 199.868 447.88C200.316 447.608 200.836 447.472 201.428 447.472C202.02 447.472 202.536 447.608 202.976 447.88C203.424 448.152 203.768 448.54 204.008 449.044C204.256 449.54 204.38 450.128 204.38 450.808C204.38 451.488 204.256 452.08 204.008 452.584C203.768 453.08 203.424 453.464 202.976 453.736C202.536 454.008 202.02 454.144 201.428 454.144ZM201.428 453.028C201.964 453.028 202.376 452.832 202.664 452.44C202.96 452.048 203.108 451.504 203.108 450.808C203.108 450.112 202.96 449.568 202.664 449.176C202.376 448.784 201.964 448.588 201.428 448.588C200.892 448.588 200.476 448.784 200.18 449.176C199.892 449.568 199.748 450.112 199.748 450.808C199.748 451.504 199.892 452.048 200.18 452.44C200.476 452.832 200.892 453.028 201.428 453.028ZM208.119 454.144C207.303 454.144 206.655 453.848 206.175 453.256C205.695 452.656 205.455 451.84 205.455 450.808C205.455 449.776 205.695 448.964 206.175 448.372C206.655 447.772 207.303 447.472 208.119 447.472C208.567 447.472 208.955 447.576 209.283 447.784C209.619 447.992 209.867 448.236 210.027 448.516V445.48H211.239V454H210.111L210.075 453.016C209.899 453.368 209.643 453.644 209.307 453.844C208.971 454.044 208.575 454.144 208.119 454.144ZM208.323 453.028C208.851 453.028 209.267 452.832 209.571 452.44C209.875 452.04 210.027 451.496 210.027 450.808C210.027 450.112 209.871 449.568 209.559 449.176C209.255 448.784 208.835 448.588 208.299 448.588C207.811 448.588 207.427 448.784 207.147 449.176C206.867 449.568 206.727 450.112 206.727 450.808C206.727 451.496 206.867 452.04 207.147 452.44C207.427 452.832 207.819 453.028 208.323 453.028ZM215.267 454.144C214.651 454.144 214.159 453.936 213.791 453.52C213.423 453.104 213.239 452.512 213.239 451.744V447.616H214.451V451.432C214.451 452.008 214.551 452.428 214.751 452.692C214.951 452.956 215.255 453.088 215.663 453.088C216.111 453.088 216.467 452.94 216.731 452.644C216.995 452.348 217.127 451.928 217.127 451.384V447.616H218.339V454H217.199V452.932C216.847 453.74 216.203 454.144 215.267 454.144ZM223.158 454.144C222.566 454.144 222.046 454.008 221.598 453.736C221.15 453.456 220.802 453.068 220.554 452.572C220.306 452.068 220.182 451.48 220.182 450.808C220.182 450.136 220.306 449.552 220.554 449.056C220.802 448.552 221.15 448.164 221.598 447.892C222.046 447.612 222.566 447.472 223.158 447.472C223.886 447.472 224.494 447.676 224.982 448.084C225.478 448.484 225.786 449.044 225.906 449.764L224.67 449.848C224.574 449.448 224.394 449.14 224.13 448.924C223.866 448.7 223.546 448.588 223.17 448.588C222.626 448.588 222.202 448.788 221.898 449.188C221.594 449.58 221.442 450.12 221.442 450.808C221.442 451.496 221.594 452.04 221.898 452.44C222.202 452.832 222.626 453.028 223.17 453.028C223.554 453.028 223.882 452.916 224.154 452.692C224.434 452.46 224.618 452.12 224.706 451.672L225.942 451.744C225.822 452.472 225.51 453.056 225.006 453.496C224.502 453.928 223.886 454.144 223.158 454.144ZM231.121 454C229.841 454 229.201 453.388 229.201 452.164V448.636H227.185V447.616H229.201V446.116H230.413V447.616H232.897V448.636H230.413V452.104C230.413 452.688 230.693 452.98 231.253 452.98H232.897V454H231.121ZM234.717 454V452.98H237.213V448.636H234.837V447.616H238.437V452.98H240.573V454H234.717ZM237.141 446.692V445.432H238.389V446.692H237.141ZM244.6 454.144C244.008 454.144 243.488 454.008 243.04 453.736C242.6 453.464 242.256 453.08 242.008 452.584C241.768 452.08 241.648 451.488 241.648 450.808C241.648 450.128 241.768 449.54 242.008 449.044C242.256 448.54 242.6 448.152 243.04 447.88C243.488 447.608 244.008 447.472 244.6 447.472C245.192 447.472 245.708 447.608 246.148 447.88C246.596 448.152 246.94 448.54 247.18 449.044C247.428 449.54 247.552 450.128 247.552 450.808C247.552 451.488 247.428 452.08 247.18 452.584C246.94 453.08 246.596 453.464 246.148 453.736C245.708 454.008 245.192 454.144 244.6 454.144ZM244.6 453.028C245.136 453.028 245.548 452.832 245.836 452.44C246.132 452.048 246.28 451.504 246.28 450.808C246.28 450.112 246.132 449.568 245.836 449.176C245.548 448.784 245.136 448.588 244.6 448.588C244.064 448.588 243.648 448.784 243.352 449.176C243.064 449.568 242.92 450.112 242.92 450.808C242.92 451.504 243.064 452.048 243.352 452.44C243.648 452.832 244.064 453.028 244.6 453.028ZM249.155 454V447.616H250.271L250.295 448.768C250.463 448.328 250.727 448.004 251.087 447.796C251.447 447.58 251.851 447.472 252.299 447.472C252.771 447.472 253.163 447.58 253.475 447.796C253.795 448.004 254.035 448.292 254.195 448.66C254.355 449.02 254.435 449.428 254.435 449.884V454H253.223V450.196C253.223 449.084 252.799 448.528 251.951 448.528C251.511 448.528 251.135 448.672 250.823 448.96C250.519 449.248 250.367 449.668 250.367 450.22V454H249.155ZM264.038 454L262.802 447.616H264.074L264.83 452.548L265.67 448.516H266.702L267.542 452.548L268.298 447.616H269.57L268.346 454H266.978L266.186 450.268L265.394 454H264.038ZM270.693 454V452.98H273.189V448.636H270.813V447.616H274.413V452.98H276.549V454H270.693ZM273.117 446.692V445.432H274.365V446.692H273.117ZM281.489 454C280.209 454 279.569 453.388 279.569 452.164V448.636H277.553V447.616H279.569V446.116H280.781V447.616H283.265V448.636H280.781V452.104C280.781 452.688 281.061 452.98 281.621 452.98H283.265V454H281.489ZM285.288 454V445.48H286.5V448.588C286.668 448.204 286.916 447.924 287.244 447.748C287.572 447.564 287.952 447.472 288.384 447.472C289.056 447.472 289.568 447.696 289.92 448.144C290.272 448.592 290.448 449.172 290.448 449.884V454H289.236V450.196C289.236 449.62 289.132 449.2 288.924 448.936C288.724 448.664 288.424 448.528 288.024 448.528C287.568 448.528 287.2 448.676 286.92 448.972C286.64 449.26 286.5 449.68 286.5 450.232V454H285.288ZM299.499 454V452.86L303.363 448.636H299.619V447.616H304.73V448.756L300.855 452.98H304.827V454H299.499ZM309.442 454.144C308.842 454.144 308.318 454.008 307.87 453.736C307.43 453.456 307.086 453.068 306.838 452.572C306.598 452.068 306.478 451.48 306.478 450.808C306.478 450.136 306.598 449.552 306.838 449.056C307.086 448.552 307.426 448.164 307.858 447.892C308.298 447.612 308.814 447.472 309.406 447.472C309.974 447.472 310.474 447.604 310.906 447.868C311.338 448.132 311.674 448.516 311.914 449.02C312.162 449.524 312.286 450.128 312.286 450.832V451.168H307.75C307.782 451.784 307.95 452.248 308.254 452.56C308.558 452.872 308.958 453.028 309.454 453.028C309.83 453.028 310.142 452.94 310.39 452.764C310.638 452.588 310.81 452.352 310.906 452.056L312.178 452.14C311.994 452.748 311.662 453.236 311.182 453.604C310.71 453.964 310.13 454.144 309.442 454.144ZM307.75 450.196H310.978C310.93 449.652 310.762 449.248 310.474 448.984C310.186 448.72 309.83 448.588 309.406 448.588C308.95 448.588 308.578 448.724 308.29 448.996C308.01 449.268 307.83 449.668 307.75 450.196ZM313.961 454V452.98H315.581V448.636H313.961V447.616H316.541L316.613 448.84C316.829 448.024 317.341 447.616 318.149 447.616H319.505V448.672H318.197C317.261 448.672 316.793 449.184 316.793 450.208V452.98H318.785V454H313.961ZM323.748 454.144C323.156 454.144 322.636 454.008 322.188 453.736C321.748 453.464 321.404 453.08 321.156 452.584C320.916 452.08 320.796 451.488 320.796 450.808C320.796 450.128 320.916 449.54 321.156 449.044C321.404 448.54 321.748 448.152 322.188 447.88C322.636 447.608 323.156 447.472 323.748 447.472C324.34 447.472 324.856 447.608 325.296 447.88C325.744 448.152 326.088 448.54 326.328 449.044C326.576 449.54 326.7 450.128 326.7 450.808C326.7 451.488 326.576 452.08 326.328 452.584C326.088 453.08 325.744 453.464 325.296 453.736C324.856 454.008 324.34 454.144 323.748 454.144ZM323.748 453.028C324.284 453.028 324.696 452.832 324.984 452.44C325.28 452.048 325.428 451.504 325.428 450.808C325.428 450.112 325.28 449.568 324.984 449.176C324.696 448.784 324.284 448.588 323.748 448.588C323.212 448.588 322.796 448.784 322.5 449.176C322.212 449.568 322.068 450.112 322.068 450.808C322.068 451.504 322.212 452.048 322.5 452.44C322.796 452.832 323.212 453.028 323.748 453.028ZM338.643 454.144C338.187 454.144 337.791 454.044 337.455 453.844C337.119 453.644 336.863 453.368 336.687 453.016L336.651 454H335.523V445.48H336.735V448.516C336.895 448.236 337.139 447.992 337.467 447.784C337.803 447.576 338.195 447.472 338.643 447.472C339.459 447.472 340.107 447.772 340.587 448.372C341.067 448.964 341.307 449.776 341.307 450.808C341.307 451.84 341.067 452.656 340.587 453.256C340.107 453.848 339.459 454.144 338.643 454.144ZM338.439 453.028C338.943 453.028 339.335 452.832 339.615 452.44C339.895 452.04 340.035 451.496 340.035 450.808C340.035 450.112 339.895 449.568 339.615 449.176C339.335 448.784 338.951 448.588 338.463 448.588C337.927 448.588 337.503 448.784 337.191 449.176C336.887 449.568 336.735 450.112 336.735 450.808C336.735 451.496 336.887 452.04 337.191 452.44C337.503 452.832 337.919 453.028 338.439 453.028ZM345.334 454.144C344.742 454.144 344.222 454.008 343.774 453.736C343.334 453.464 342.99 453.08 342.742 452.584C342.502 452.08 342.382 451.488 342.382 450.808C342.382 450.128 342.502 449.54 342.742 449.044C342.99 448.54 343.334 448.152 343.774 447.88C344.222 447.608 344.742 447.472 345.334 447.472C345.926 447.472 346.442 447.608 346.882 447.88C347.33 448.152 347.674 448.54 347.914 449.044C348.162 449.54 348.286 450.128 348.286 450.808C348.286 451.488 348.162 452.08 347.914 452.584C347.674 453.08 347.33 453.464 346.882 453.736C346.442 454.008 345.926 454.144 345.334 454.144ZM345.334 453.028C345.87 453.028 346.282 452.832 346.57 452.44C346.866 452.048 347.014 451.504 347.014 450.808C347.014 450.112 346.866 449.568 346.57 449.176C346.282 448.784 345.87 448.588 345.334 448.588C344.798 448.588 344.382 448.784 344.086 449.176C343.798 449.568 343.654 450.112 343.654 450.808C343.654 451.504 343.798 452.048 344.086 452.44C344.382 452.832 344.798 453.028 345.334 453.028ZM349.842 454V452.98H352.338V448.636H349.962V447.616H353.562V452.98H355.698V454H349.842ZM352.266 446.692V445.432H353.514V446.692H352.266ZM356.797 454V452.98H359.293V447.292C359.293 447.044 359.225 446.852 359.089 446.716C358.953 446.572 358.757 446.5 358.501 446.5H357.037V445.48H358.633C359.881 445.48 360.505 446.104 360.505 447.352V452.98H362.653V454H356.797ZM367.004 454.144C366.404 454.144 365.88 454.008 365.432 453.736C364.992 453.456 364.648 453.068 364.4 452.572C364.16 452.068 364.04 451.48 364.04 450.808C364.04 450.136 364.16 449.552 364.4 449.056C364.648 448.552 364.988 448.164 365.42 447.892C365.86 447.612 366.376 447.472 366.968 447.472C367.536 447.472 368.036 447.604 368.468 447.868C368.9 448.132 369.236 448.516 369.476 449.02C369.724 449.524 369.848 450.128 369.848 450.832V451.168H365.312C365.344 451.784 365.512 452.248 365.816 452.56C366.12 452.872 366.52 453.028 367.016 453.028C367.392 453.028 367.704 452.94 367.952 452.764C368.2 452.588 368.372 452.352 368.468 452.056L369.74 452.14C369.556 452.748 369.224 453.236 368.744 453.604C368.272 453.964 367.692 454.144 367.004 454.144ZM365.312 450.196H368.54C368.492 449.652 368.324 449.248 368.036 448.984C367.748 448.72 367.392 448.588 366.968 448.588C366.512 448.588 366.14 448.724 365.852 448.996C365.572 449.268 365.392 449.668 365.312 450.196ZM371.524 454V452.98H373.144V448.636H371.524V447.616H374.104L374.176 448.84C374.392 448.024 374.904 447.616 375.712 447.616H377.068V448.672H375.76C374.824 448.672 374.356 449.184 374.356 450.208V452.98H376.348V454H371.524ZM378.575 455.8V447.616H379.727L379.739 448.648C379.931 448.264 380.191 447.972 380.519 447.772C380.855 447.572 381.243 447.472 381.683 447.472C382.299 447.472 382.803 447.628 383.195 447.94C383.587 448.244 383.879 448.648 384.071 449.152C384.263 449.656 384.359 450.208 384.359 450.808C384.359 451.408 384.263 451.96 384.071 452.464C383.879 452.968 383.587 453.376 383.195 453.688C382.803 453.992 382.299 454.144 381.683 454.144C381.259 454.144 380.879 454.056 380.543 453.88C380.215 453.704 379.963 453.46 379.787 453.148V455.8H378.575ZM381.455 453.028C381.967 453.028 382.367 452.836 382.655 452.452C382.943 452.068 383.087 451.52 383.087 450.808C383.087 450.096 382.943 449.548 382.655 449.164C382.367 448.78 381.967 448.588 381.455 448.588C380.951 448.588 380.547 448.776 380.243 449.152C379.939 449.52 379.787 450.072 379.787 450.808C379.787 451.544 379.935 452.1 380.231 452.476C380.535 452.844 380.943 453.028 381.455 453.028ZM385.578 454V452.98H388.074V447.292C388.074 447.044 388.006 446.852 387.87 446.716C387.734 446.572 387.538 446.5 387.282 446.5H385.818V445.48H387.414C388.662 445.48 389.286 446.104 389.286 447.352V452.98H391.434V454H385.578ZM394.838 454.144C394.438 454.144 394.078 454.072 393.758 453.928C393.438 453.784 393.182 453.58 392.99 453.316C392.806 453.052 392.714 452.744 392.714 452.392C392.714 451.848 392.878 451.428 393.206 451.132C393.542 450.828 394.046 450.608 394.718 450.472L396.782 450.04C396.782 449.048 396.35 448.552 395.486 448.552C395.086 448.552 394.774 448.644 394.55 448.828C394.326 449.012 394.174 449.268 394.094 449.596L392.822 449.512C392.942 448.904 393.234 448.412 393.698 448.036C394.162 447.66 394.758 447.472 395.486 447.472C396.302 447.472 396.922 447.704 397.346 448.168C397.778 448.632 397.994 449.272 397.994 450.088V452.608C397.994 452.752 398.022 452.856 398.078 452.92C398.142 452.976 398.238 453.004 398.366 453.004H398.726V454C398.678 454.008 398.598 454.016 398.486 454.024C398.382 454.032 398.278 454.036 398.174 454.036C397.438 454.036 397.002 453.72 396.866 453.088C396.706 453.4 396.442 453.656 396.074 453.856C395.714 454.048 395.302 454.144 394.838 454.144ZM395.018 453.148C395.602 453.148 396.042 453 396.338 452.704C396.634 452.4 396.782 451.996 396.782 451.492V451L395.006 451.36C394.622 451.44 394.354 451.556 394.202 451.708C394.05 451.852 393.974 452.048 393.974 452.296C393.974 452.568 394.066 452.78 394.25 452.932C394.434 453.076 394.69 453.148 395.018 453.148ZM403.809 454C402.529 454 401.889 453.388 401.889 452.164V448.636H399.873V447.616H401.889V446.116H403.101V447.616H405.585V448.636H403.101V452.104C403.101 452.688 403.381 452.98 403.941 452.98H405.585V454H403.809ZM410.176 454.144C409.576 454.144 409.052 454.008 408.604 453.736C408.164 453.456 407.82 453.068 407.572 452.572C407.332 452.068 407.212 451.48 407.212 450.808C407.212 450.136 407.332 449.552 407.572 449.056C407.82 448.552 408.16 448.164 408.592 447.892C409.032 447.612 409.548 447.472 410.14 447.472C410.708 447.472 411.208 447.604 411.64 447.868C412.072 448.132 412.408 448.516 412.648 449.02C412.896 449.524 413.02 450.128 413.02 450.832V451.168H408.484C408.516 451.784 408.684 452.248 408.988 452.56C409.292 452.872 409.692 453.028 410.188 453.028C410.564 453.028 410.876 452.94 411.124 452.764C411.372 452.588 411.544 452.352 411.64 452.056L412.912 452.14C412.728 452.748 412.396 453.236 411.916 453.604C411.444 453.964 410.864 454.144 410.176 454.144ZM408.484 450.196H411.712C411.664 449.652 411.496 449.248 411.208 448.984C410.92 448.72 410.564 448.588 410.14 448.588C409.684 448.588 409.312 448.724 409.024 448.996C408.744 449.268 408.564 449.668 408.484 450.196Z" fill="#D2D2D2"/>
<circle r="4" fill="#FF1A88" opacity="0.9" class="dot-flow"/>
<defs>
<linearGradient id="paint0_linear_5970_4699" x1="8" y1="274" x2="8" y2="9331" gradientUnits="userSpaceOnUse">
<stop stop-color="#9E1658"/>
<stop offset="1" stop-color="#0D0D0D"/>
</linearGradient>
<linearGradient id="paint1_linear_5970_4699" x1="90.3369" y1="319.285" x2="90.3369" y2="10611.3" gradientUnits="userSpaceOnUse">
<stop stop-color="#191410"/>
<stop offset="1" stop-color="#120E0B"/>
</linearGradient>
<linearGradient id="paint2_linear_5970_4699" x1="15.5257" y1="286.351" x2="15.5257" y2="8094.93" gradientUnits="userSpaceOnUse">
<stop stop-color="white" stop-opacity="0.12"/>
<stop offset="0.5" stop-color="white" stop-opacity="0.03"/>
<stop offset="1" stop-color="white" stop-opacity="0"/>
</linearGradient>
<linearGradient id="paint3_linear_5970_4699" x1="8.54114" y1="421.527" x2="8.54114" y2="-9582.58" gradientUnits="userSpaceOnUse">
<stop stop-color="#9E1658"/>
<stop offset="1" stop-color="#0D0D0D"/>
</linearGradient>
<linearGradient id="paint4_linear_5970_4699" x1="15.4218" y1="421.527" x2="15.4218" y2="-9111.18" gradientUnits="userSpaceOnUse">
<stop stop-color="white" stop-opacity="0.12"/>
<stop offset="0.5" stop-color="white" stop-opacity="0.03"/>
<stop offset="1" stop-color="white" stop-opacity="0"/>
</linearGradient>
<linearGradient id="paint5_linear_5970_4699" x1="332" y1="274" x2="332" y2="9331" gradientUnits="userSpaceOnUse">
<stop stop-color="#9E1658"/>
<stop offset="1" stop-color="#0D0D0D"/>
</linearGradient>
<linearGradient id="paint6_linear_5970_4699" x1="414.337" y1="319.285" x2="414.337" y2="10611.3" gradientUnits="userSpaceOnUse">
<stop stop-color="#191410"/>
<stop offset="1" stop-color="#120E0B"/>
</linearGradient>
<linearGradient id="paint7_linear_5970_4699" x1="339.526" y1="286.351" x2="339.526" y2="8094.93" gradientUnits="userSpaceOnUse">
<stop stop-color="white" stop-opacity="0.12"/>
<stop offset="0.5" stop-color="white" stop-opacity="0.03"/>
<stop offset="1" stop-color="white" stop-opacity="0"/>
</linearGradient>
<linearGradient id="paint8_linear_5970_4699" x1="332.541" y1="421.527" x2="332.541" y2="-9582.58" gradientUnits="userSpaceOnUse">
<stop stop-color="#9E1658"/>
<stop offset="1" stop-color="#0D0D0D"/>
</linearGradient>
<linearGradient id="paint9_linear_5970_4699" x1="339.422" y1="421.527" x2="339.422" y2="-9111.18" gradientUnits="userSpaceOnUse">
<stop stop-color="white" stop-opacity="0.12"/>
<stop offset="0.5" stop-color="white" stop-opacity="0.03"/>
<stop offset="1" stop-color="white" stop-opacity="0"/>
</linearGradient>
</defs>
</svg>
