<svg width="825" height="642" viewBox="0 0 825 642" fill="none" xmlns="http://www.w3.org/2000/svg">
<g filter="url(#filter0_f_5970_5023)">
<ellipse cx="412.337" cy="321" rx="212.337" ry="121" fill="#FF1A88" fill-opacity="0.4"/>
</g>
<mask id="mask0_5970_5023" style="mask-type:alpha" maskUnits="userSpaceOnUse" x="50" y="130" width="724" height="317">
<ellipse cx="412.5" cy="288.5" rx="361.5" ry="158.5" fill="#FE3AAF"/>
</mask>
<g mask="url(#mask0_5970_5023)">
<g opacity="0.7">
<ellipse cx="3.12033" cy="3.19344" rx="3.12033" ry="3.19344" transform="matrix(0.990397 -0.0917307 0.27887 0.934753 47.1464 171.942)" fill="white"/>
<ellipse cx="1.56097" cy="1.59754" rx="1.56097" ry="1.59754" transform="matrix(0.990397 -0.0917307 0.27887 0.934753 110.856 215.131)" fill="white"/>
<ellipse cx="1.56097" cy="1.59754" rx="1.56097" ry="1.59754" transform="matrix(0.990397 -0.0917307 0.27887 0.934753 276.78 175.215)" fill="white"/>
<ellipse cx="1.56097" cy="1.59754" rx="1.56097" ry="1.59754" transform="matrix(0.990397 -0.0917307 0.27887 0.934753 231.118 277.606)" fill="white"/>
<ellipse cx="3.12033" cy="3.19344" rx="3.12033" ry="3.19344" transform="matrix(0.990397 -0.0917307 0.27887 0.934753 185.014 208.258)" fill="white"/>
<ellipse cx="3.12033" cy="3.19344" rx="3.12033" ry="3.19344" transform="matrix(0.990397 -0.0917307 0.27887 0.934753 303.919 255.523)" fill="white"/>
<ellipse cx="1.56097" cy="1.59754" rx="1.56097" ry="1.59754" transform="matrix(0.990397 -0.0917307 0.27887 0.934753 132.222 286.762)" fill="white"/>
<ellipse cx="1.56097" cy="1.59754" rx="1.56097" ry="1.59754" transform="matrix(0.990397 -0.0917307 0.27887 0.934753 202.827 267.956)" fill="white"/>
<ellipse cx="1.56097" cy="1.59754" rx="1.56097" ry="1.59754" transform="matrix(0.990397 -0.0917307 0.27887 0.934753 142.484 150.842)" fill="white"/>
<ellipse cx="3.60929" cy="3.27293" rx="3.60929" ry="3.27293" transform="matrix(0.207931 -0.834933 1.04752 0.389796 449.97 433.352)" fill="white"/>
<ellipse cx="1.80558" cy="1.63731" rx="1.80558" ry="1.63731" transform="matrix(0.207931 -0.834933 1.04752 0.389796 511.368 424.584)" fill="white"/>
<ellipse cx="1.80558" cy="1.63731" rx="1.80558" ry="1.63731" transform="matrix(0.207931 -0.834933 1.04752 0.389796 386.242 325.338)" fill="white"/>
<ellipse cx="1.80558" cy="1.63731" rx="1.80558" ry="1.63731" transform="matrix(0.207931 -0.834933 1.04752 0.389796 525.973 245.625)" fill="white"/>
<ellipse cx="1.80558" cy="1.63731" rx="1.80558" ry="1.63731" transform="matrix(0.207931 -0.834933 1.04752 0.389796 617.668 358.77)" fill="white"/>
<ellipse cx="3.60929" cy="3.27293" rx="3.60929" ry="3.27293" transform="matrix(0.207931 -0.834933 1.04752 0.389796 529.377 352.26)" fill="white"/>
<ellipse cx="3.60929" cy="3.27293" rx="3.60929" ry="3.27293" transform="matrix(0.207931 -0.834933 1.04752 0.389796 430.927 216.478)" fill="white"/>
<ellipse cx="3.60929" cy="3.27293" rx="3.60929" ry="3.27293" transform="matrix(0.207931 -0.834933 1.04752 0.389796 619.293 277.059)" fill="white"/>
<ellipse cx="1.80558" cy="1.63731" rx="1.80558" ry="1.63731" transform="matrix(0.207931 -0.834933 1.04752 0.389796 597.955 377.783)" fill="white"/>
<ellipse cx="1.80558" cy="1.63731" rx="1.80558" ry="1.63731" transform="matrix(0.207931 -0.834933 1.04752 0.389796 431.679 263.222)" fill="white"/>
<ellipse cx="1.80558" cy="1.63731" rx="1.80558" ry="1.63731" transform="matrix(0.207931 -0.834933 1.04752 0.389796 454.81 350.852)" fill="white"/>
<ellipse cx="1.8352" cy="1.98298" rx="1.8352" ry="1.98298" transform="matrix(-0.76956 -0.800741 0.67531 -0.53694 84.0507 451.059)" fill="white"/>
<ellipse cx="1.8352" cy="1.98298" rx="1.8352" ry="1.98298" transform="matrix(-0.76956 -0.800741 0.67531 -0.53694 57.9503 305.973)" fill="white"/>
<ellipse cx="1.8352" cy="1.98298" rx="1.8352" ry="1.98298" transform="matrix(-0.76956 -0.800741 0.67531 -0.53694 148.29 399.971)" fill="white"/>
<ellipse cx="1.8352" cy="1.98298" rx="1.8352" ry="1.98298" transform="matrix(-0.76956 -0.800741 0.67531 -0.53694 69.8339 337.986)" fill="white"/>
<ellipse cx="3.12033" cy="3.19344" rx="3.12033" ry="3.19344" transform="matrix(0.990397 -0.0917307 0.27887 0.934753 47.1464 171.942)" fill="white"/>
<ellipse cx="1.56097" cy="1.59754" rx="1.56097" ry="1.59754" transform="matrix(0.990397 -0.0917307 0.27887 0.934753 110.856 215.131)" fill="white"/>
<ellipse cx="1.56097" cy="1.59754" rx="1.56097" ry="1.59754" transform="matrix(0.990397 -0.0917307 0.27887 0.934753 276.78 175.215)" fill="white"/>
<ellipse cx="1.56097" cy="1.59754" rx="1.56097" ry="1.59754" transform="matrix(0.990397 -0.0917307 0.27887 0.934753 231.118 277.606)" fill="white"/>
<ellipse cx="3.12033" cy="3.19344" rx="3.12033" ry="3.19344" transform="matrix(0.990397 -0.0917307 0.27887 0.934753 185.014 208.258)" fill="white"/>
<ellipse cx="3.12033" cy="3.19344" rx="3.12033" ry="3.19344" transform="matrix(0.990397 -0.0917307 0.27887 0.934753 303.919 255.523)" fill="white"/>
<ellipse cx="1.56097" cy="1.59754" rx="1.56097" ry="1.59754" transform="matrix(0.990397 -0.0917307 0.27887 0.934753 132.222 286.762)" fill="white"/>
<ellipse cx="1.56097" cy="1.59754" rx="1.56097" ry="1.59754" transform="matrix(0.990397 -0.0917307 0.27887 0.934753 202.827 267.956)" fill="white"/>
<ellipse cx="1.56097" cy="1.59754" rx="1.56097" ry="1.59754" transform="matrix(0.990397 -0.0917307 0.27887 0.934753 142.484 150.842)" fill="white"/>
<ellipse cx="3.60929" cy="3.27293" rx="3.60929" ry="3.27293" transform="matrix(0.207931 -0.834933 1.04752 0.389796 449.97 433.352)" fill="white"/>
<ellipse cx="1.80558" cy="1.63731" rx="1.80558" ry="1.63731" transform="matrix(0.207931 -0.834933 1.04752 0.389796 511.368 424.584)" fill="white"/>
<ellipse cx="1.80558" cy="1.63731" rx="1.80558" ry="1.63731" transform="matrix(0.207931 -0.834933 1.04752 0.389796 386.242 325.338)" fill="white"/>
<ellipse cx="1.80558" cy="1.63731" rx="1.80558" ry="1.63731" transform="matrix(0.207931 -0.834933 1.04752 0.389796 525.973 245.625)" fill="white"/>
<ellipse cx="1.80558" cy="1.63731" rx="1.80558" ry="1.63731" transform="matrix(0.207931 -0.834933 1.04752 0.389796 617.668 358.77)" fill="white"/>
<ellipse cx="3.60929" cy="3.27293" rx="3.60929" ry="3.27293" transform="matrix(0.207931 -0.834933 1.04752 0.389796 529.377 352.26)" fill="white"/>
<ellipse cx="3.60929" cy="3.27293" rx="3.60929" ry="3.27293" transform="matrix(0.207931 -0.834933 1.04752 0.389796 430.927 216.478)" fill="white"/>
<ellipse cx="3.60929" cy="3.27293" rx="3.60929" ry="3.27293" transform="matrix(0.207931 -0.834933 1.04752 0.389796 619.293 277.059)" fill="white"/>
<ellipse cx="1.80558" cy="1.63731" rx="1.80558" ry="1.63731" transform="matrix(0.207931 -0.834933 1.04752 0.389796 597.955 377.783)" fill="white"/>
<ellipse cx="1.80558" cy="1.63731" rx="1.80558" ry="1.63731" transform="matrix(0.207931 -0.834933 1.04752 0.389796 431.679 263.222)" fill="white"/>
<ellipse cx="1.80558" cy="1.63731" rx="1.80558" ry="1.63731" transform="matrix(0.207931 -0.834933 1.04752 0.389796 454.81 350.852)" fill="white"/>
<ellipse cx="1.8352" cy="1.98298" rx="1.8352" ry="1.98298" transform="matrix(-0.76956 -0.800741 0.67531 -0.53694 84.0507 451.059)" fill="white"/>
<ellipse cx="1.8352" cy="1.98298" rx="1.8352" ry="1.98298" transform="matrix(-0.76956 -0.800741 0.67531 -0.53694 57.9503 305.973)" fill="white"/>
<ellipse cx="1.8352" cy="1.98298" rx="1.8352" ry="1.98298" transform="matrix(-0.76956 -0.800741 0.67531 -0.53694 148.29 399.971)" fill="white"/>
<ellipse cx="1.8352" cy="1.98298" rx="1.8352" ry="1.98298" transform="matrix(-0.76956 -0.800741 0.67531 -0.53694 69.8339 337.986)" fill="white"/>
</g>
</g>
<defs>
<filter id="filter0_f_5970_5023" x="0" y="0" width="824.675" height="642" filterUnits="userSpaceOnUse" color-interpolation-filters="sRGB">
<feFlood flood-opacity="0" result="BackgroundImageFix"/>
<feBlend mode="normal" in="SourceGraphic" in2="BackgroundImageFix" result="shape"/>
<feGaussianBlur stdDeviation="100" result="effect1_foregroundBlur_5970_5023"/>
</filter>
</defs>
</svg>
