<svg width="1280" height="789" viewBox="0 0 1280 789" fill="none" xmlns="http://www.w3.org/2000/svg">
<g clip-path="url(#clip0_5970_4004)">
<line x1="4.37114e-08" y1="788.5" x2="1280" y2="788.5" stroke="white" stroke-opacity="0.2"/>
<g clip-path="url(#clip1_5970_4004)">
<circle cx="1141.56" cy="285.862" r="0.995149" fill="white" fill-opacity="0.1"/>
<circle cx="253.522" cy="506.225" r="0.995149" fill="white" fill-opacity="0.3"/>
<circle cx="975.675" cy="477.17" r="0.995149" fill="white" fill-opacity="0.6"/>
<circle cx="107.17" cy="747.603" r="0.995149" fill="white" fill-opacity="0.1"/>
<circle cx="872.287" cy="577.445" r="0.995149" fill="white" fill-opacity="0.6"/>
<circle cx="1033.92" cy="153.143" r="0.995149" fill="white" fill-opacity="0.1"/>
<circle cx="1212.62" cy="353.317" r="0.995149" fill="white" fill-opacity="0.1"/>
<circle cx="1092.37" cy="665.012" r="0.995149" fill="white" fill-opacity="0.3"/>
<circle cx="851.682" cy="473.481" r="0.995149" fill="white" fill-opacity="0.3"/>
<circle cx="42.5255" cy="256.085" r="0.995149" fill="white" fill-opacity="0.3"/>
<circle cx="1053.09" cy="447.271" r="0.995149" fill="white" fill-opacity="0.15"/>
<circle cx="686.092" cy="441.258" r="0.995149" fill="white" fill-opacity="0.7"/>
<circle cx="438.046" cy="456.225" r="0.995149" fill="white" fill-opacity="0.15"/>
<circle cx="1188.57" cy="84.2979" r="0.995149" fill="white" fill-opacity="0.3"/>
<circle cx="221.628" cy="558.112" r="0.995149" fill="white" fill-opacity="0.1"/>
<circle cx="1090.92" cy="694.428" r="0.995149" fill="white" fill-opacity="0.3"/>
<circle cx="885.594" cy="249.308" r="0.995149" fill="white" fill-opacity="0.15"/>
<circle cx="746.794" cy="189.846" r="0.995149" fill="white" fill-opacity="0.3"/>
<circle cx="502.973" cy="251.546" r="0.995149" fill="white" fill-opacity="0.1"/>
<circle cx="1118.37" cy="636.579" r="0.995149" fill="white" fill-opacity="0.3"/>
<circle cx="870.445" cy="51.8373" r="0.995149" fill="white" fill-opacity="0.1"/>
<circle cx="261.552" cy="124.702" r="0.995149" fill="white" fill-opacity="0.3"/>
<circle cx="14.0292" cy="354.939" r="0.995149" fill="white" fill-opacity="0.3"/>
<circle cx="92.044" cy="694.204" r="0.995149" fill="white" fill-opacity="0.1"/>
<circle cx="685.401" cy="56.4109" r="0.995149" fill="white" fill-opacity="0.3"/>
<circle cx="1123.02" cy="223.987" r="0.995149" fill="white" fill-opacity="0.1"/>
<circle cx="658.399" cy="187.909" r="0.995149" fill="white" fill-opacity="0.3"/>
<circle cx="1159.59" cy="722.825" r="0.995149" fill="white" fill-opacity="0.1"/>
<circle cx="1025.21" cy="610.979" r="0.995149" fill="white" fill-opacity="0.6"/>
<circle cx="549.607" cy="106.678" r="0.995149" fill="white" fill-opacity="0.15"/>
<circle cx="1079.41" cy="114.631" r="0.995149" fill="white" fill-opacity="0.1"/>
<circle cx="917.487" cy="692.048" r="0.995149" fill="white" fill-opacity="0.3"/>
<circle cx="161.825" cy="367.335" r="0.995149" fill="white" fill-opacity="0.3"/>
<circle cx="439.134" cy="650.778" r="0.995149" fill="white" fill-opacity="0.1"/>
<circle cx="205.887" cy="413.993" r="0.995149" fill="white" fill-opacity="0.6"/>
<circle cx="445.297" cy="87.0375" r="0.995149" fill="white" fill-opacity="0.3"/>
<circle cx="89.9043" cy="744.338" r="0.995149" fill="white" fill-opacity="0.3"/>
<circle cx="796.476" cy="382.352" r="0.995149" fill="white" fill-opacity="0.3"/>
<circle cx="184.278" cy="365.246" r="0.995149" fill="white" fill-opacity="0.3"/>
<circle cx="570.119" cy="516.903" r="0.995149" fill="white" fill-opacity="0.3"/>
<circle cx="193.818" cy="184.167" r="0.995149" fill="white" fill-opacity="0.15"/>
<circle cx="455.546" cy="372.889" r="0.995149" fill="white" fill-opacity="0.3"/>
<circle cx="567.034" cy="216.281" r="0.995149" fill="white" fill-opacity="0.1"/>
<circle cx="471.669" cy="275.343" r="1.49272" fill="white" fill-opacity="0.3"/>
<circle cx="405.749" cy="257.192" r="1.49272" fill="white" fill-opacity="0.3"/>
<circle cx="1045.82" cy="298.149" r="1.49272" fill="white" fill-opacity="0.3"/>
<circle cx="1196.69" cy="36.3196" r="1.49272" fill="white" fill-opacity="0.1"/>
<circle cx="439.589" cy="757.891" r="1.49272" fill="white" fill-opacity="0.15"/>
<circle cx="737.259" cy="260.386" r="1.49272" fill="white" fill-opacity="0.1"/>
<circle cx="452.351" cy="197.178" r="1.49272" fill="white" fill-opacity="0.1"/>
<circle cx="413.566" cy="269.733" r="1.49272" fill="white" fill-opacity="0.15"/>
<circle cx="215.704" cy="235.832" r="1.49272" fill="white" fill-opacity="0.1"/>
<circle cx="1195.27" cy="132.453" r="1.49272" fill="white" fill-opacity="0.1"/>
<circle cx="447.308" cy="339.193" r="1.49272" fill="white" fill-opacity="0.1"/>
<circle cx="1258.1" cy="561.549" r="1.49272" fill="white" fill-opacity="0.3"/>
<circle cx="475.679" cy="358.96" r="1.49272" fill="white" fill-opacity="0.3"/>
<circle cx="1195.1" cy="109.437" r="1.49272" fill="white" fill-opacity="0.1"/>
<circle cx="230.531" cy="149.563" r="1.49272" fill="white" fill-opacity="0.3"/>
<circle cx="949.298" cy="316.874" r="1.49272" fill="white" fill-opacity="0.7"/>
<circle cx="1210.15" cy="195.08" r="1.49272" fill="white" fill-opacity="0.1"/>
<circle cx="55.477" cy="520.716" r="1.49272" fill="white" fill-opacity="0.1"/>
<circle cx="990.9" cy="690.813" r="1.49272" fill="white" fill-opacity="0.3"/>
<circle cx="665.458" cy="54.2037" r="1.49272" fill="white" fill-opacity="0.1"/>
<circle cx="1202.06" cy="442.884" r="1.49272" fill="white" fill-opacity="0.3"/>
<circle cx="1212.11" cy="738.661" r="1.49272" fill="white" fill-opacity="0.1"/>
<circle cx="399.056" cy="671.532" r="1.49272" fill="white" fill-opacity="0.1"/>
<circle cx="998.086" cy="492.747" r="1.49272" fill="white" fill-opacity="0.6"/>
<circle cx="475.474" cy="756.234" r="1.49272" fill="white" fill-opacity="0.7"/>
<circle cx="12.4996" cy="591.505" r="1.49272" fill="white" fill-opacity="0.3"/>
<circle cx="1279.27" cy="631.983" r="1.49272" fill="white" fill-opacity="0.7"/>
<circle cx="1078.98" cy="745.492" r="1.49272" fill="white" fill-opacity="0.1"/>
<circle cx="554.259" cy="413.159" r="0.49725" fill="white" fill-opacity="0.1"/>
<circle cx="574.427" cy="177.902" r="0.49725" fill="white" fill-opacity="0.1"/>
<circle cx="35.336" cy="280.065" r="0.49725" fill="white" fill-opacity="0.1"/>
<circle cx="1178.79" cy="278.446" r="0.49725" fill="white" fill-opacity="0.3"/>
<circle cx="272.061" cy="34.5075" r="0.49725" fill="white" fill-opacity="0.15"/>
<circle cx="463.594" cy="510.124" r="0.49725" fill="white" fill-opacity="0.15"/>
<circle cx="200.798" cy="665.108" r="0.49725" fill="white" fill-opacity="0.1"/>
<circle cx="651.008" cy="442.474" r="0.49725" fill="white" fill-opacity="0.1"/>
<circle cx="972.059" cy="731.077" r="0.49725" fill="white" fill-opacity="0.1"/>
<circle cx="1104.85" cy="691.307" r="0.49725" fill="white" fill-opacity="0.7"/>
<circle cx="97.048" cy="498.177" r="0.49725" fill="white" fill-opacity="0.6"/>
<circle cx="109.928" cy="9.12469" r="0.49725" fill="white" fill-opacity="0.1"/>
<circle cx="255.251" cy="176.861" r="0.49725" fill="white" fill-opacity="0.15"/>
<circle cx="307.602" cy="241.002" r="0.49725" fill="white" fill-opacity="0.3"/>
<circle cx="258.625" cy="279.939" r="0.49725" fill="white" fill-opacity="0.1"/>
<circle cx="791.188" cy="685.74" r="0.49725" fill="white" fill-opacity="0.6"/>
<circle cx="941.214" cy="682.548" r="0.49725" fill="white" fill-opacity="0.1"/>
<circle cx="757.479" cy="359.317" r="0.49725" fill="white" fill-opacity="0.1"/>
<circle cx="1116.51" cy="426.677" r="0.49725" fill="white" fill-opacity="0.15"/>
<circle cx="1.36273" cy="352.166" r="0.49725" fill="white" fill-opacity="0.3"/>
<circle cx="470.858" cy="579.311" r="0.49725" fill="white" fill-opacity="0.3"/>
<circle cx="1163.27" cy="57.55" r="0.49725" fill="white" fill-opacity="0.3"/>
<circle cx="971.039" cy="165.44" r="0.49725" fill="white" fill-opacity="0.1"/>
<circle cx="40.4201" cy="2.55487" r="0.49725" fill="white" fill-opacity="0.1"/>
<circle cx="679.149" cy="158.433" r="0.49725" fill="white" fill-opacity="0.15"/>
<circle cx="697.012" cy="694.265" r="0.49725" fill="white" fill-opacity="0.7"/>
<circle cx="852.288" cy="255.537" r="0.49725" fill="white" fill-opacity="0.8"/>
<circle cx="554.04" cy="21.1818" r="0.49725" fill="white" fill-opacity="0.15"/>
<circle cx="168.221" cy="533.306" r="0.49725" fill="white" fill-opacity="0.1"/>
<circle cx="341.039" cy="447.888" r="0.49725" fill="white" fill-opacity="0.1"/>
<circle cx="1262.16" cy="737.133" r="0.49725" fill="white" fill-opacity="0.6"/>
<circle cx="918.331" cy="310.827" r="0.49725" fill="white" fill-opacity="0.15"/>
<circle cx="129.186" cy="-0.0458404" r="0.49725" fill="white" fill-opacity="0.6"/>
<circle cx="300.423" cy="561.817" r="0.49725" fill="white" fill-opacity="0.15"/>
<circle cx="837.127" cy="54.1181" r="0.49725" fill="white" fill-opacity="0.7"/>
<circle cx="571.402" cy="296.482" r="0.49725" fill="white" fill-opacity="0.8"/>
<circle cx="514.075" cy="26.6275" r="0.49725" fill="white" fill-opacity="0.1"/>
<circle cx="73.8762" cy="222.918" r="0.49725" fill="white" fill-opacity="0.6"/>
<circle cx="981.654" cy="120.572" r="0.49725" fill="white" fill-opacity="0.1"/>
<circle cx="849.093" cy="107.928" r="0.49725" fill="white" fill-opacity="0.15"/>
<circle cx="1085.86" cy="522.125" r="0.49725" fill="white" fill-opacity="0.15"/>
<circle cx="168.51" cy="766.595" r="0.49725" fill="white" fill-opacity="0.15"/>
<circle cx="367.95" cy="572.735" r="0.49725" fill="white" fill-opacity="0.15"/>
<circle cx="375.971" cy="324.266" r="0.49725" fill="white" fill-opacity="0.3"/>
<circle cx="816.853" cy="566.59" r="0.49725" fill="white" fill-opacity="0.3"/>
<circle cx="194.937" cy="589.789" r="0.49725" fill="white" fill-opacity="0.1"/>
<circle cx="804.331" cy="356.85" r="0.49725" fill="white" fill-opacity="0.3"/>
<circle cx="605.705" cy="93.1633" r="0.49725" fill="white" fill-opacity="0.1"/>
<circle cx="197.237" cy="103.807" r="0.49725" fill="white" fill-opacity="0.1"/>
<circle cx="35.3293" cy="575.856" r="0.49725" fill="white" fill-opacity="0.1"/>
<circle cx="1017.1" cy="608.817" r="0.49725" fill="white" fill-opacity="0.1"/>
<circle cx="171.117" cy="732.81" r="0.49725" fill="white" fill-opacity="0.1"/>
<circle cx="987.014" cy="35.3834" r="0.49725" fill="white" fill-opacity="0.3"/>
<circle cx="802.147" cy="550.633" r="0.49725" fill="white" fill-opacity="0.1"/>
<circle cx="327.736" cy="158.399" r="0.49725" fill="white" fill-opacity="0.6"/>
<circle cx="1073.92" cy="727.235" r="0.49725" fill="white" fill-opacity="0.1"/>
<circle cx="131.877" cy="464.127" r="0.49725" fill="white" fill-opacity="0.1"/>
<circle cx="49.3321" cy="616.824" r="0.49725" fill="white" fill-opacity="0.3"/>
<circle cx="621.921" cy="30.4013" r="0.49725" fill="white" fill-opacity="0.3"/>
<circle cx="6.38983" cy="224.166" r="0.49725" fill="white" fill-opacity="0.6"/>
<circle cx="512.308" cy="619.958" r="0.49725" fill="white" fill-opacity="0.1"/>
<circle cx="628.729" cy="103.372" r="0.49725" fill="white" fill-opacity="0.3"/>
<circle cx="876.778" cy="531.288" r="0.49725" fill="white" fill-opacity="0.1"/>
<circle cx="64.6631" cy="143.379" r="0.49725" fill="white" fill-opacity="0.1"/>
<circle cx="89.384" cy="216.125" r="0.49725" fill="white" fill-opacity="0.3"/>
<circle cx="517.566" cy="25.2051" r="0.49725" fill="white" fill-opacity="0.1"/>
<circle cx="940.989" cy="655.187" r="0.49725" fill="white" fill-opacity="0.3"/>
<circle cx="1158.69" cy="619.549" r="0.49725" fill="white" fill-opacity="0.15"/>
<circle cx="855.489" cy="324.046" r="0.49725" fill="white" fill-opacity="0.3"/>
<circle cx="999.76" cy="345.464" r="0.49725" fill="white" fill-opacity="0.3"/>
<circle cx="6.55658" cy="234.016" r="0.49725" fill="white" fill-opacity="0.1"/>
<circle cx="409.041" cy="250.15" r="0.49725" fill="white" fill-opacity="0.1"/>
<circle cx="860.706" cy="34.533" r="0.49725" fill="white" fill-opacity="0.1"/>
<circle cx="865.723" cy="620.154" r="0.49725" fill="white" fill-opacity="0.1"/>
<circle cx="23.7072" cy="56.6773" r="0.49725" fill="white" fill-opacity="0.1"/>
<circle cx="552.988" cy="203.016" r="0.49725" fill="white" fill-opacity="0.3"/>
<circle cx="423.927" cy="709.544" r="0.49725" fill="white" fill-opacity="0.15"/>
<circle cx="409.594" cy="301.536" r="0.49725" fill="white" fill-opacity="0.1"/>
<circle cx="328.063" cy="74.2543" r="0.49725" fill="white" fill-opacity="0.15"/>
<circle cx="734.397" cy="47.0208" r="0.49725" fill="white" fill-opacity="0.1"/>
<circle cx="528.46" cy="4.78082" r="0.49725" fill="white" fill-opacity="0.1"/>
<circle cx="952.971" cy="5.23529" r="0.49725" fill="white" fill-opacity="0.3"/>
<circle cx="829.386" cy="166.012" r="0.49725" fill="white" fill-opacity="0.3"/>
<circle cx="205.09" cy="474.695" r="0.49725" fill="white" fill-opacity="0.3"/>
<circle cx="1214.53" cy="379.231" r="0.49725" fill="white" fill-opacity="0.1"/>
<circle cx="320.334" cy="205.209" r="0.49725" fill="white" fill-opacity="0.3"/>
<circle cx="836.717" cy="610.019" r="0.49725" fill="white" fill-opacity="0.1"/>
<circle cx="274.992" cy="770.193" r="0.49725" fill="white" fill-opacity="0.1"/>
<circle cx="1220.31" cy="483.701" r="0.49725" fill="white" fill-opacity="0.1"/>
<circle cx="677.937" cy="281.094" r="0.49725" fill="white" fill-opacity="0.1"/>
<circle cx="363.819" cy="49.9275" r="0.49725" fill="white" fill-opacity="0.7"/>
<circle cx="585.8" cy="55.5506" r="0.49725" fill="white" fill-opacity="0.15"/>
<circle cx="487.567" cy="33.5617" r="0.49725" fill="white" fill-opacity="0.1"/>
<circle cx="880.319" cy="114.595" r="0.49725" fill="white" fill-opacity="0.3"/>
<circle cx="696.633" cy="645.898" r="0.49725" fill="white" fill-opacity="0.1"/>
<circle cx="862.361" cy="143.642" r="0.49725" fill="white" fill-opacity="0.3"/>
<circle cx="1017.76" cy="325.922" r="0.49725" fill="white" fill-opacity="0.7"/>
<circle cx="1241.9" cy="80.7587" r="0.49725" fill="white" fill-opacity="0.1"/>
<circle cx="335.261" cy="454.253" r="0.49725" fill="white" fill-opacity="0.3"/>
<circle cx="457.121" cy="74.7966" r="0.49725" fill="white" fill-opacity="0.1"/>
<circle cx="1219.76" cy="755.228" r="0.49725" fill="white" fill-opacity="0.1"/>
<circle cx="807.941" cy="111.026" r="0.49725" fill="white" fill-opacity="0.3"/>
<circle cx="519.397" cy="123.544" r="0.49725" fill="white" fill-opacity="0.3"/>
<circle cx="1116.35" cy="320.071" r="0.49725" fill="white" fill-opacity="0.1"/>
<circle cx="993.802" cy="720.855" r="0.49725" fill="white" fill-opacity="0.1"/>
<circle cx="376.985" cy="610.838" r="0.49725" fill="white" fill-opacity="0.1"/>
<circle cx="54.1699" cy="123.777" r="0.49725" fill="white" fill-opacity="0.15"/>
<circle cx="663.109" cy="207.129" r="0.49725" fill="white" fill-opacity="0.1"/>
<circle cx="807.238" cy="570.432" r="0.49725" fill="white" fill-opacity="0.3"/>
<circle cx="793.803" cy="665.191" r="0.49725" fill="white" fill-opacity="0.1"/>
<circle cx="577.603" cy="454.067" r="0.49725" fill="white" fill-opacity="0.3"/>
<circle cx="324.935" cy="336.172" r="0.49725" fill="white" fill-opacity="0.7"/>
<circle cx="447.448" cy="72.2995" r="0.49725" fill="white" fill-opacity="0.3"/>
<circle cx="1233.47" cy="500.332" r="0.49725" fill="white" fill-opacity="0.7"/>
<circle cx="937.355" cy="378.925" r="0.49725" fill="white" fill-opacity="0.1"/>
<circle cx="90.3469" cy="537.213" r="0.49725" fill="white" fill-opacity="0.1"/>
<circle cx="265.577" cy="767.585" r="0.49725" fill="white" fill-opacity="0.15"/>
<circle cx="389.21" cy="432.476" r="0.49725" fill="white" fill-opacity="0.1"/>
<circle cx="556.789" cy="59.1418" r="0.49725" fill="white" fill-opacity="0.3"/>
<circle cx="88.2385" cy="752.689" r="0.49725" fill="white" fill-opacity="0.1"/>
<circle cx="1263.87" cy="174.722" r="0.49725" fill="white" fill-opacity="0.7"/>
<circle cx="218.468" cy="657.597" r="0.49725" fill="white" fill-opacity="0.1"/>
<circle cx="849.308" cy="197.158" r="0.49725" fill="white" fill-opacity="0.1"/>
<circle cx="1100.53" cy="15.3288" r="0.49725" fill="white" fill-opacity="0.6"/>
<circle cx="290.034" cy="631.41" r="0.49725" fill="white" fill-opacity="0.1"/>
<circle cx="110.147" cy="177.291" r="0.49725" fill="white" fill-opacity="0.3"/>
<circle cx="688.959" cy="344.992" r="0.49725" fill="white" fill-opacity="0.3"/>
<circle cx="1141.51" cy="418.107" r="0.49725" fill="white" fill-opacity="0.3"/>
<circle cx="554.111" cy="752.115" r="0.49725" fill="white" fill-opacity="0.15"/>
<circle cx="1234.23" cy="578.776" r="0.49725" fill="white" fill-opacity="0.3"/>
<circle cx="1027.44" cy="709.88" r="0.49725" fill="white" fill-opacity="0.6"/>
<circle cx="271.749" cy="578.211" r="0.49725" fill="white" fill-opacity="0.3"/>
<circle cx="440.426" cy="283.073" r="0.49725" fill="white" fill-opacity="0.3"/>
<circle cx="429.704" cy="116.253" r="0.49725" fill="white" fill-opacity="0.1"/>
<circle cx="827.628" cy="413.376" r="0.49725" fill="white" fill-opacity="0.3"/>
<circle cx="1150.88" cy="437.846" r="0.49725" fill="white" fill-opacity="0.3"/>
<circle cx="280.372" cy="725.613" r="0.49725" fill="white" fill-opacity="0.1"/>
<circle cx="326.038" cy="277.747" r="0.49725" fill="white" fill-opacity="0.15"/>
<circle cx="1133.41" cy="162.702" r="0.49725" fill="white" fill-opacity="0.3"/>
<circle cx="999.974" cy="682.142" r="0.49725" fill="white" fill-opacity="0.15"/>
<circle cx="1100.63" cy="552.314" r="0.49725" fill="white" fill-opacity="0.6"/>
<circle cx="74.3644" cy="506.791" r="0.49725" fill="white" fill-opacity="0.15"/>
<circle cx="530.311" cy="470.645" r="0.49725" fill="white" fill-opacity="0.3"/>
<circle cx="571.908" cy="184.199" r="0.49725" fill="white" fill-opacity="0.3"/>
<circle cx="612.23" cy="613.483" r="0.49725" fill="white" fill-opacity="0.1"/>
<circle cx="326.07" cy="345.923" r="0.49725" fill="white" fill-opacity="0.1"/>
<circle cx="311.021" cy="339.931" r="0.49725" fill="white" fill-opacity="0.3"/>
<circle cx="861.344" cy="248.468" r="0.49725" fill="white" fill-opacity="0.1"/>
<circle cx="984.259" cy="307.366" r="0.49725" fill="white" fill-opacity="0.6"/>
<circle cx="979.97" cy="176.635" r="0.49725" fill="white" fill-opacity="0.3"/>
<circle cx="160.024" cy="684.261" r="0.49725" fill="white" fill-opacity="0.3"/>
<circle cx="602.911" cy="47.055" r="0.49725" fill="white" fill-opacity="0.1"/>
<circle cx="897.787" cy="89.8242" r="0.49725" fill="white" fill-opacity="0.3"/>
<circle cx="136.962" cy="127.586" r="0.49725" fill="white" fill-opacity="0.8"/>
<circle cx="881.381" cy="206.095" r="0.49725" fill="white" fill-opacity="0.1"/>
<circle cx="78.6215" cy="487.969" r="0.49725" fill="white" fill-opacity="0.3"/>
<circle cx="866.746" cy="555.019" r="0.49725" fill="white" fill-opacity="0.1"/>
<circle cx="425.637" cy="519.579" r="0.49725" fill="white" fill-opacity="0.1"/>
<circle cx="445.629" cy="532.148" r="0.49725" fill="white" fill-opacity="0.6"/>
<circle cx="743.521" cy="354.742" r="0.49725" fill="white" fill-opacity="0.3"/>
<circle cx="797.297" cy="81.269" r="0.49725" fill="white" fill-opacity="0.3"/>
<circle cx="1008.49" cy="645.536" r="0.49725" fill="white" fill-opacity="0.1"/>
<circle cx="967.693" cy="301.865" r="0.49725" fill="white" fill-opacity="0.1"/>
<circle cx="1248.85" cy="511.517" r="0.49725" fill="white" fill-opacity="0.1"/>
<circle cx="66.296" cy="367.588" r="0.49725" fill="white" fill-opacity="0.1"/>
<circle cx="1239.94" cy="449.537" r="0.49725" fill="white" fill-opacity="0.6"/>
<circle cx="894.338" cy="159.87" r="0.49725" fill="white" fill-opacity="0.3"/>
<circle cx="1126.04" cy="625.266" r="0.49725" fill="white" fill-opacity="0.1"/>
<circle cx="648.606" cy="595.869" r="0.49725" fill="white" fill-opacity="0.1"/>
<circle cx="539.665" cy="713.607" r="0.49725" fill="white" fill-opacity="0.15"/>
<circle cx="66.8704" cy="607.947" r="0.49725" fill="white" fill-opacity="0.1"/>
<circle cx="341.334" cy="735.254" r="0.49725" fill="white" fill-opacity="0.1"/>
<circle cx="704.547" cy="28.3788" r="0.49725" fill="white" fill-opacity="0.15"/>
<circle cx="263.113" cy="94.3196" r="0.49725" fill="white" fill-opacity="0.3"/>
<circle cx="582.98" cy="614.311" r="0.49725" fill="white" fill-opacity="0.15"/>
<circle cx="1057.96" cy="143.656" r="0.49725" fill="white" fill-opacity="0.3"/>
<circle cx="348.5" cy="377.287" r="0.49725" fill="white" fill-opacity="0.1"/>
<circle cx="81.758" cy="187.927" r="0.49725" fill="white" fill-opacity="0.3"/>
<circle cx="293.846" cy="143.381" r="0.49725" fill="white" fill-opacity="0.15"/>
<circle cx="976.28" cy="46.082" r="0.49725" fill="white" fill-opacity="0.6"/>
<circle cx="1155.23" cy="255.265" r="0.49725" fill="white" fill-opacity="0.1"/>
<circle cx="1156.39" cy="366.001" r="0.49725" fill="white" fill-opacity="0.1"/>
<circle cx="556.757" cy="655.908" r="0.49725" fill="white" fill-opacity="0.1"/>
<circle cx="1161.74" cy="541.225" r="0.49725" fill="white" fill-opacity="0.1"/>
<circle cx="638.035" cy="192.683" r="0.49725" fill="white" fill-opacity="0.3"/>
<circle cx="468.297" cy="538.197" r="0.49725" fill="white" fill-opacity="0.15"/>
<circle cx="1235.9" cy="245.791" r="0.49725" fill="white" fill-opacity="0.1"/>
<circle cx="1263.32" cy="58.5688" r="0.49725" fill="white" fill-opacity="0.3"/>
<circle cx="248.95" cy="454.767" r="0.49725" fill="white" fill-opacity="0.3"/>
<circle cx="971.333" cy="424.606" r="0.49725" fill="white" fill-opacity="0.1"/>
<circle cx="1066.67" cy="260.232" r="0.49725" fill="white" fill-opacity="0.1"/>
<circle cx="1159.78" cy="663.933" r="0.49725" fill="white" fill-opacity="0.15"/>
<circle cx="887.113" cy="56.0451" r="0.49725" fill="white" fill-opacity="0.7"/>
<circle cx="1235.03" cy="673.883" r="0.49725" fill="white" fill-opacity="0.1"/>
<circle cx="1263.87" cy="11.366" r="0.49725" fill="white" fill-opacity="0.3"/>
<circle cx="556.151" cy="187.959" r="0.49725" fill="white" fill-opacity="0.1"/>
<circle cx="749.805" cy="66.4651" r="0.49725" fill="white" fill-opacity="0.15"/>
<circle cx="443.236" cy="408.418" r="0.49725" fill="white" fill-opacity="0.1"/>
<circle cx="679.049" cy="73.5859" r="0.49725" fill="white" fill-opacity="0.3"/>
<circle cx="0.496274" cy="773.115" r="0.49725" fill="white" fill-opacity="0.1"/>
<circle cx="174.804" cy="539.914" r="0.49725" fill="white" fill-opacity="0.15"/>
<circle cx="890.922" cy="569.059" r="0.49725" fill="white" fill-opacity="0.3"/>
<circle cx="722.168" cy="744.751" r="0.49725" fill="white" fill-opacity="0.1"/>
<path d="M1213 45.9904L1213.86 47.4831H1212.14L1213 45.9904Z" fill="white" fill-opacity="0.3"/>
<path d="M711.069 641.423L711.931 642.916H710.208L711.069 641.423Z" fill="white" fill-opacity="0.1"/>
<path d="M651.397 492.503L652.259 493.996H650.535L651.397 492.503Z" fill="white" fill-opacity="0.15"/>
<path d="M1060.98 690.043L1061.84 691.535H1060.12L1060.98 690.043Z" fill="white" fill-opacity="0.1"/>
<path d="M1134.87 344.4L1135.73 345.893H1134.01L1134.87 344.4Z" fill="white" fill-opacity="0.1"/>
<path d="M251.764 698.438L252.626 699.931H250.902L251.764 698.438Z" fill="white" fill-opacity="0.1"/>
<path d="M620.696 436.861L621.558 438.354H619.834L620.696 436.861Z" fill="white" fill-opacity="0.1"/>
<path d="M176.264 247.586L177.125 249.078H175.402L176.264 247.586Z" fill="white" fill-opacity="0.1"/>
<path d="M1227.87 70.6719L1228.73 72.1646H1227.01L1227.87 70.6719Z" fill="white" fill-opacity="0.3"/>
<path d="M1259.76 167.827L1260.62 169.319H1258.9L1259.76 167.827Z" fill="white" fill-opacity="0.1"/>
<path d="M228.618 783.308L229.48 784.801H227.756L228.618 783.308Z" fill="white" fill-opacity="0.6"/>
<path d="M729.916 65.0548L730.778 66.5475H729.054L729.916 65.0548Z" fill="white" fill-opacity="0.1"/>
<path d="M1039.67 248.036L1040.54 249.528H1038.81L1039.67 248.036Z" fill="white" fill-opacity="0.3"/>
<path d="M690.837 718.136L691.699 719.629H689.975L690.837 718.136Z" fill="white" fill-opacity="0.1"/>
<path d="M1248.89 392.09L1249.75 393.583H1248.03L1248.89 392.09Z" fill="white" fill-opacity="0.1"/>
<path d="M872.82 713.888L873.682 715.381H871.959L872.82 713.888Z" fill="white" fill-opacity="0.3"/>
<path d="M808.294 570.451L809.156 571.943H807.432L808.294 570.451Z" fill="white" fill-opacity="0.1"/>
<path d="M240.184 504.999L241.045 506.492H239.322L240.184 504.999Z" fill="white" fill-opacity="0.3"/>
<path d="M548.091 625.816L548.953 627.309H547.229L548.091 625.816Z" fill="white" fill-opacity="0.1"/>
<path d="M527.864 743.432L528.726 744.925H527.002L527.864 743.432Z" fill="white" fill-opacity="0.1"/>
<path d="M137.36 372.779L137.571 373.563L138.355 373.774L137.571 373.985L137.36 374.769L137.149 373.985L136.365 373.774L137.149 373.563L137.36 372.779Z" fill="white" fill-opacity="0.1"/>
<path d="M1158.84 543.871L1159.05 544.655L1159.83 544.866L1159.05 545.077L1158.84 545.861L1158.62 545.077L1157.84 544.866L1158.62 544.655L1158.84 543.871Z" fill="white" fill-opacity="0.3"/>
<path d="M1149.01 146.163L1149.22 146.947L1150.01 147.158L1149.22 147.369L1149.01 148.153L1148.8 147.369L1148.02 147.158L1148.8 146.947L1149.01 146.163Z" fill="white" fill-opacity="0.3"/>
<path d="M675.662 65.7815L675.873 66.5655L676.657 66.7766L675.873 66.9877L675.662 67.7718L675.451 66.9877L674.667 66.7766L675.451 66.5655L675.662 65.7815Z" fill="white" fill-opacity="0.3"/>
<path d="M627.815 303.19L628.027 303.974L628.811 304.185L628.027 304.396L627.815 305.18L627.604 304.396L626.82 304.185L627.604 303.974L627.815 303.19Z" fill="white" fill-opacity="0.1"/>
<path d="M906.529 485.266L906.74 486.05L907.524 486.261L906.74 486.472L906.529 487.256L906.318 486.472L905.534 486.261L906.318 486.05L906.529 485.266Z" fill="white" fill-opacity="0.1"/>
<path d="M230.415 29.9253L230.626 30.7093L231.41 30.9204L230.626 31.1315L230.415 31.9156L230.204 31.1315L229.42 30.9204L230.204 30.7093L230.415 29.9253Z" fill="white" fill-opacity="0.1"/>
<path d="M22.2422 258.785L22.4533 259.569L23.2374 259.781L22.4533 259.992L22.2422 260.776L22.0311 259.992L21.2471 259.781L22.0311 259.569L22.2422 258.785Z" fill="white" fill-opacity="0.3"/>
<path d="M982.604 295.128L982.815 295.912L983.599 296.123L982.815 296.334L982.604 297.118L982.392 296.334L981.608 296.123L982.392 295.912L982.604 295.128Z" fill="white" fill-opacity="0.1"/>
<path d="M261.237 619.082L261.448 619.866L262.232 620.077L261.448 620.288L261.237 621.072L261.026 620.288L260.242 620.077L261.026 619.866L261.237 619.082Z" fill="white" fill-opacity="0.3"/>
<path d="M555.609 656.29L555.82 657.074L556.604 657.286L555.82 657.497L555.609 658.281L555.398 657.497L554.614 657.286L555.398 657.074L555.609 656.29Z" fill="white" fill-opacity="0.1"/>
<path d="M481.116 411.241L481.327 412.025L482.112 412.236L481.327 412.447L481.116 413.231L480.905 412.447L480.121 412.236L480.905 412.025L481.116 411.241Z" fill="white" fill-opacity="0.1"/>
<path d="M1176.12 21.437L1176.33 22.2211L1177.12 22.4322L1176.33 22.6433L1176.12 23.4273L1175.91 22.6433L1175.13 22.4322L1175.91 22.2211L1176.12 21.437Z" fill="white" fill-opacity="0.1"/>
<path d="M379.625 664.459L379.836 665.243L380.62 665.454L379.836 665.665L379.625 666.449L379.414 665.665L378.63 665.454L379.414 665.243L379.625 664.459Z" fill="white" fill-opacity="0.3"/>
<path d="M753.398 465.417L753.61 466.201L754.394 466.412L753.61 466.624L753.398 467.408L753.187 466.624L752.403 466.412L753.187 466.201L753.398 465.417Z" fill="white" fill-opacity="0.3"/>
<path d="M978.818 412.046L979.029 412.83L979.814 413.041L979.029 413.252L978.818 414.036L978.607 413.252L977.823 413.041L978.607 412.83L978.818 412.046Z" fill="white" fill-opacity="0.6"/>
<path d="M324.74 261.27L324.951 262.054L325.735 262.266L324.951 262.477L324.74 263.261L324.528 262.477L323.744 262.266L324.528 262.054L324.74 261.27Z" fill="white" fill-opacity="0.15"/>
<path d="M409.713 359.094L409.924 359.878L410.708 360.089L409.924 360.3L409.713 361.084L409.502 360.3L408.718 360.089L409.502 359.878L409.713 359.094Z" fill="white" fill-opacity="0.3"/>
<path d="M534.273 81.9518L534.485 82.7358L535.269 82.9469L534.485 83.158L534.273 83.9421L534.062 83.158L533.278 82.9469L534.062 82.7358L534.273 81.9518Z" fill="white" fill-opacity="0.1"/>
<path d="M293.837 430.617L294.048 431.401L294.832 431.612L294.048 431.823L293.837 432.607L293.626 431.823L292.842 431.612L293.626 431.401L293.837 430.617Z" fill="white" fill-opacity="0.6"/>
<path d="M358.469 332.444L358.68 333.228L359.464 333.439L358.68 333.65L358.469 334.434L358.258 333.65L357.474 333.439L358.258 333.228L358.469 332.444Z" fill="white" fill-opacity="0.1"/>
<path d="M371.489 604.871L371.7 605.655L372.484 605.866L371.7 606.077L371.489 606.861L371.278 606.077L370.494 605.866L371.278 605.655L371.489 604.871Z" fill="white" fill-opacity="0.1"/>
<path d="M1025.53 391.271L1025.74 392.055L1026.52 392.266L1025.74 392.477L1025.53 393.261L1025.32 392.477L1024.53 392.266L1025.32 392.055L1025.53 391.271Z" fill="white" fill-opacity="0.1"/>
<path d="M311.269 391.303L311.48 392.087L312.264 392.298L311.48 392.509L311.269 393.293L311.058 392.509L310.274 392.298L311.058 392.087L311.269 391.303Z" fill="white" fill-opacity="0.8"/>
<path d="M328.641 658.784L328.852 659.569L329.636 659.78L328.852 659.991L328.641 660.775L328.43 659.991L327.646 659.78L328.43 659.569L328.641 658.784Z" fill="white" fill-opacity="0.1"/>
<path d="M776.041 94.9373L776.252 95.7213L777.036 95.9324L776.252 96.1435L776.041 96.9276L775.83 96.1435L775.046 95.9324L775.83 95.7213L776.041 94.9373Z" fill="white" fill-opacity="0.15"/>
</g>
</g>
<defs>
<clipPath id="clip0_5970_4004">
<rect width="1280" height="789" fill="white"/>
</clipPath>
<clipPath id="clip1_5970_4004">
<rect width="1278" height="869" fill="white" transform="translate(0 -81)"/>
</clipPath>
</defs>
</svg>
