<svg width="748" height="520" viewBox="0 0 748 520" fill="none" xmlns="http://www.w3.org/2000/svg">
<style>
  /* Pipeline connection lines — data flowing through stages */
  path[stroke-dasharray="6.4 4.8"] {
    animation: flowPipeline 2.5s linear infinite;
  }
  @keyframes flowPipeline {
    to { stroke-dashoffset: -11.2; }
  }
  /* Vertical connectors — downward flow */
  path[stroke-dasharray="4.8 3.2"] {
    animation: flowDown 2s linear infinite;
  }
  @keyframes flowDown {
    to { stroke-dashoffset: -8; }
  }
  /* Box dashed outlines — subtle shimmer */
  path[stroke-dasharray="0.83 0.83"] {
    animation: shimmer 4s linear infinite;
  }
  @keyframes shimmer {
    to { stroke-dashoffset: -1.66; }
  }
  .moving-dot { filter: drop-shadow(0 0 3px #FF1A88); }
</style>
<!-- Moving dot along horizontal pipeline -->
<circle r="3" fill="#FF1A88" opacity="0.9" class="moving-dot">
  <animateMotion dur="2.5s" repeatCount="indefinite" path="M359.5,171.113 L503.561,183.118"/>
</circle>
<!-- Moving dot along vertical connector -->
<circle r="3" fill="#FF1A88" opacity="0.9" class="moving-dot">
  <animateMotion dur="2s" repeatCount="indefinite" path="M291.471,219.133 L291.471,279.158"/>
</circle>
<path d="M273.139 47.3642C272.687 47.3642 272.291 47.2733 271.95 47.0913C271.616 46.9094 271.349 46.657 271.149 46.3342C270.95 46.0055 270.832 45.624 270.797 45.1897L271.748 45.1281C271.807 45.5742 271.959 45.9146 272.206 46.1493C272.452 46.3841 272.775 46.5015 273.174 46.5015C273.556 46.5015 273.849 46.4281 274.054 46.2814C274.266 46.1288 274.371 45.9146 274.371 45.6387C274.371 45.4509 274.327 45.2895 274.239 45.1545C274.157 45.0137 273.999 44.8845 273.764 44.7672C273.535 44.6439 273.2 44.5207 272.76 44.3974C272.332 44.28 271.983 44.148 271.713 44.0012C271.449 43.8545 271.252 43.6726 271.123 43.4554C271 43.2382 270.938 42.9683 270.938 42.6455C270.938 42.1055 271.123 41.6682 271.493 41.3337C271.868 40.9992 272.385 40.8319 273.042 40.8319C273.694 40.8319 274.204 41.0197 274.574 41.3953C274.944 41.7651 275.158 42.2522 275.217 42.8567L274.266 42.9096C274.219 42.5516 274.093 42.261 273.887 42.038C273.682 41.8091 273.391 41.6947 273.016 41.6947C272.669 41.6947 272.393 41.7798 272.188 41.95C271.989 42.1143 271.889 42.3315 271.889 42.6014C271.889 42.7834 271.93 42.936 272.012 43.0592C272.094 43.1766 272.238 43.2823 272.443 43.3762C272.649 43.4642 272.936 43.5581 273.306 43.6579C273.805 43.7929 274.201 43.9484 274.495 44.1245C274.788 44.3006 274.999 44.5118 275.129 44.7584C275.258 45.0049 275.322 45.2983 275.322 45.6387C275.322 45.9791 275.231 46.2814 275.049 46.5455C274.867 46.8037 274.612 47.0062 274.283 47.153C273.961 47.2938 273.579 47.3642 273.139 47.3642ZM277.881 47.2234V44.6527L276.023 40.9728H277.044L278.338 43.7019L279.633 40.9728H280.654L278.805 44.6527V47.2234H277.881ZM283.696 47.3642C283.245 47.3642 282.848 47.2733 282.508 47.0913C282.173 46.9094 281.906 46.657 281.707 46.3342C281.507 46.0055 281.39 45.624 281.355 45.1897L282.305 45.1281C282.364 45.5742 282.517 45.9146 282.763 46.1493C283.01 46.3841 283.333 46.5015 283.732 46.5015C284.113 46.5015 284.407 46.4281 284.612 46.2814C284.823 46.1288 284.929 45.9146 284.929 45.6387C284.929 45.4509 284.885 45.2895 284.797 45.1545C284.715 45.0137 284.556 44.8845 284.322 44.7672C284.093 44.6439 283.758 44.5207 283.318 44.3974C282.889 44.28 282.54 44.148 282.27 44.0012C282.006 43.8545 281.81 43.6726 281.68 43.4554C281.557 43.2382 281.496 42.9683 281.496 42.6455C281.496 42.1055 281.68 41.6682 282.05 41.3337C282.426 40.9992 282.942 40.8319 283.6 40.8319C284.251 40.8319 284.762 41.0197 285.131 41.3953C285.501 41.7651 285.715 42.2522 285.774 42.8567L284.823 42.9096C284.776 42.5516 284.65 42.261 284.445 42.038C284.239 41.8091 283.949 41.6947 283.573 41.6947C283.227 41.6947 282.951 41.7798 282.746 41.95C282.546 42.1143 282.446 42.3315 282.446 42.6014C282.446 42.7834 282.487 42.936 282.57 43.0592C282.652 43.1766 282.796 43.2823 283.001 43.3762C283.206 43.4642 283.494 43.5581 283.864 43.6579C284.363 43.7929 284.759 43.9484 285.052 44.1245C285.346 44.3006 285.557 44.5118 285.686 44.7584C285.815 45.0049 285.88 45.2983 285.88 45.6387C285.88 45.9791 285.789 46.2814 285.607 46.5455C285.425 46.8037 285.17 47.0062 284.841 47.153C284.518 47.2938 284.137 47.3642 283.696 47.3642ZM288.438 47.2234V41.8443H286.607V40.9728H291.185V41.8443H289.354V47.2234H288.438ZM292.308 47.2234V40.9728H296.147V41.8443H293.233V43.6667H296.041V44.5118H293.233V46.3518H296.217V47.2234H292.308ZM299.101 46.4663L298.124 42.399V47.2234H297.235V40.9728H298.468L299.454 45.0137L300.44 40.9728H301.672V47.2234H300.783V42.399L299.806 46.4663H299.101Z" fill="white" fill-opacity="0.4"/>
<path d="M331.492 59.0322H243.455C239.918 59.0322 237.052 61.8988 237.052 65.4349V76.6396C237.052 80.1758 239.918 83.0423 243.455 83.0423H331.492C335.028 83.0423 337.894 80.1758 337.894 76.6396V65.4349C337.894 61.8988 335.028 59.0322 331.492 59.0322Z" stroke="white" stroke-opacity="0.3" stroke-width="1.20051"/>
<path d="M267.002 75.0434C269.212 75.0434 271.003 73.2518 271.003 71.0417C271.003 68.8317 269.212 67.04 267.002 67.04C264.792 67.04 263 68.8317 263 71.0417C263 73.2518 264.792 75.0434 267.002 75.0434Z" fill="white" fill-opacity="0.2"/>
<path d="M287.005 75.0434C289.215 75.0434 291.007 73.2518 291.007 71.0417C291.007 68.8317 289.215 67.04 287.005 67.04C284.795 67.04 283.003 68.8317 283.003 71.0417C283.003 73.2518 284.795 75.0434 287.005 75.0434Z" fill="white" fill-opacity="0.2"/>
<path opacity="0.87785" d="M307.008 75.0434C309.218 75.0434 311.01 73.2518 311.01 71.0417C311.01 68.8317 309.218 67.04 307.008 67.04C304.798 67.04 303.007 68.8317 303.007 71.0417C303.007 73.2518 304.798 75.0434 307.008 75.0434Z" fill="#4ADE80"/>
<path d="M79.382 367.196L159.416 319.175H479.551L399.517 367.196H79.382Z" fill="url(#paint0_linear_5970_3667)" stroke="white" stroke-opacity="0.4" stroke-width="1.60067"/>
<path d="M79.382 367.196V399.209L159.416 447.229V319.175L79.382 367.196Z" fill="#050505" fill-opacity="0.95" stroke="white" stroke-opacity="0.4" stroke-width="1.60067"/>
<path d="M157.5 321.5L158.5 446L80 398.5V367.5L157.5 321.5Z" fill="url(#paint1_linear_5970_3667)" fill-opacity="0.4" stroke="white" stroke-opacity="0.2"/>
<path d="M479.55 319.175V431.223L399.517 367.196L479.55 319.175Z" fill="#0C0C0C" fill-opacity="0.9" stroke="white" stroke-opacity="0.4" stroke-width="1.60067"/>
<path d="M159.415 319.175V447.229L479.55 431.223V319.175H159.415Z" fill="#070707" fill-opacity="0.9" stroke="white" stroke-opacity="0.4" stroke-width="1.60067"/>
<path d="M283.203 401V392.48H285.903C286.487 392.48 287.003 392.592 287.451 392.816C287.899 393.04 288.247 393.352 288.495 393.752C288.743 394.152 288.867 394.628 288.867 395.18C288.867 395.724 288.743 396.196 288.495 396.596C288.247 396.996 287.899 397.308 287.451 397.532C287.003 397.748 286.487 397.856 285.903 397.856H284.691V401H283.203ZM284.691 396.5H285.747C286.283 396.5 286.679 396.388 286.935 396.164C287.199 395.932 287.331 395.604 287.331 395.18C287.331 394.74 287.199 394.408 286.935 394.184C286.679 393.96 286.283 393.848 285.747 393.848H284.691V396.5ZM290.566 401V392.48H292.054V400.52L291.034 399.632H295.942V401H290.566ZM296.861 401L299.285 392.48H301.133L303.557 401H302.033L300.209 394.16L298.385 401H296.861ZM298.349 398.984L298.757 397.652H301.661L302.069 398.984H298.349ZM306.661 401V393.848H304.285V392.48H310.525V393.848H308.149V401H306.661ZM312.152 401V392.48H317.528V393.824H312.728L313.64 392.96V396.872L312.728 396.164H317.312V397.496H312.728L313.64 396.8V401H312.152ZM321.795 401.192C321.115 401.192 320.535 401.02 320.055 400.676C319.583 400.332 319.223 399.828 318.975 399.164C318.727 398.5 318.603 397.696 318.603 396.752C318.603 395.792 318.727 394.98 318.975 394.316C319.223 393.652 319.583 393.148 320.055 392.804C320.535 392.46 321.115 392.288 321.795 392.288C322.475 392.288 323.051 392.46 323.523 392.804C324.003 393.148 324.367 393.652 324.615 394.316C324.863 394.98 324.987 395.792 324.987 396.752C324.987 397.696 324.863 398.5 324.615 399.164C324.367 399.828 324.003 400.332 323.523 400.676C323.051 401.02 322.475 401.192 321.795 401.192ZM321.795 399.848C322.155 399.848 322.459 399.736 322.707 399.512C322.955 399.288 323.139 398.948 323.259 398.492C323.387 398.028 323.451 397.448 323.451 396.752C323.451 396.056 323.387 395.476 323.259 395.012C323.139 394.548 322.955 394.204 322.707 393.98C322.459 393.748 322.155 393.632 321.795 393.632C321.435 393.632 321.131 393.748 320.883 393.98C320.635 394.204 320.447 394.548 320.319 395.012C320.199 395.476 320.139 396.056 320.139 396.752C320.139 397.448 320.199 398.028 320.319 398.492C320.447 398.948 320.635 399.288 320.883 399.512C321.131 399.736 321.435 399.848 321.795 399.848ZM326.159 401V392.48H328.859C329.771 392.48 330.487 392.708 331.007 393.164C331.527 393.62 331.787 394.244 331.787 395.036C331.787 395.444 331.695 395.804 331.511 396.116C331.335 396.428 331.099 396.676 330.803 396.86C330.507 397.036 330.183 397.136 329.831 397.16L329.783 397.004C330.399 397.028 330.859 397.164 331.163 397.412C331.467 397.652 331.643 398.048 331.691 398.6L331.895 401H330.407L330.227 398.948C330.203 398.644 330.143 398.408 330.047 398.24C329.959 398.072 329.819 397.956 329.627 397.892C329.443 397.828 329.187 397.796 328.859 397.796H327.647V401H326.159ZM327.647 396.428H328.823C329.287 396.428 329.639 396.316 329.879 396.092C330.127 395.868 330.251 395.548 330.251 395.132C330.251 394.716 330.127 394.4 329.879 394.184C329.639 393.96 329.287 393.848 328.823 393.848H327.647V396.428ZM335.694 399.896L334.35 394.304L334.53 394.28V401H333.138V392.48H334.938L336.414 398.408H335.958L337.434 392.48H339.234V401H337.842V394.28L338.022 394.304L336.678 399.896H335.694Z" fill="white"/>
<path d="M107.061 395.724L106.839 388.341L108.17 388.301L110.768 394.062L110.593 388.228L111.664 388.195L111.886 395.579L110.555 395.619L107.956 389.858L108.132 395.692L107.061 395.724ZM115.713 395.589C115.2 395.605 114.746 395.5 114.35 395.276C113.962 395.052 113.654 394.728 113.426 394.305C113.205 393.874 113.085 393.364 113.068 392.775C113.05 392.186 113.139 391.673 113.334 391.237C113.535 390.794 113.823 390.448 114.198 390.201C114.579 389.954 115.026 389.822 115.539 389.807C116.052 389.791 116.503 389.896 116.891 390.12C117.286 390.344 117.595 390.672 117.816 391.102C118.044 391.525 118.166 392.032 118.184 392.621C118.202 393.21 118.11 393.727 117.908 394.17C117.713 394.606 117.425 394.948 117.044 395.195C116.669 395.442 116.226 395.574 115.713 395.589ZM115.684 394.622C116.148 394.608 116.5 394.427 116.74 394.08C116.986 393.733 117.1 393.257 117.082 392.654C117.064 392.051 116.921 391.583 116.655 391.251C116.395 390.919 116.033 390.76 115.568 390.774C115.104 390.788 114.748 390.969 114.502 391.316C114.262 391.663 114.152 392.139 114.17 392.742C114.188 393.345 114.327 393.813 114.587 394.145C114.854 394.477 115.219 394.636 115.684 394.622ZM121.512 395.415C120.805 395.436 120.235 395.196 119.804 394.696C119.372 394.188 119.143 393.487 119.116 392.593C119.089 391.699 119.276 390.989 119.677 390.463C120.077 389.931 120.631 389.654 121.338 389.633C121.726 389.621 122.065 389.701 122.355 389.873C122.651 390.044 122.873 390.249 123.019 390.488L122.94 387.857L123.99 387.825L124.212 395.209L123.234 395.238L123.178 394.386C123.034 394.696 122.819 394.942 122.533 395.124C122.248 395.306 121.907 395.403 121.512 395.415ZM121.659 394.442C122.117 394.429 122.472 394.248 122.726 393.9C122.979 393.546 123.096 393.07 123.078 392.474C123.06 391.871 122.911 391.403 122.63 391.072C122.357 390.74 121.988 390.581 121.523 390.595C121.1 390.608 120.772 390.788 120.54 391.135C120.307 391.482 120.2 391.957 120.218 392.56C120.236 393.156 120.372 393.624 120.625 393.963C120.878 394.296 121.223 394.455 121.659 394.442ZM128.257 395.212C127.737 395.228 127.279 395.123 126.884 394.899C126.495 394.668 126.187 394.341 125.959 393.918C125.738 393.487 125.619 392.981 125.601 392.398C125.584 391.816 125.673 391.307 125.868 390.87C126.07 390.427 126.354 390.082 126.721 389.835C127.095 389.581 127.539 389.446 128.052 389.431C128.544 389.416 128.981 389.517 129.362 389.735C129.744 389.952 130.045 390.276 130.266 390.707C130.494 391.137 130.617 391.658 130.636 392.268L130.644 392.559L126.713 392.677C126.757 393.21 126.915 393.608 127.186 393.87C127.458 394.133 127.809 394.257 128.238 394.245C128.564 394.235 128.832 394.15 129.043 393.991C129.253 393.832 129.396 393.623 129.471 393.364L130.576 393.404C130.432 393.936 130.157 394.367 129.751 394.699C129.351 395.023 128.853 395.194 128.257 395.212ZM126.688 391.835L129.485 391.751C129.43 391.28 129.273 390.935 129.017 390.713C128.761 390.492 128.449 390.387 128.081 390.398C127.686 390.41 127.367 390.537 127.125 390.781C126.889 391.024 126.743 391.375 126.688 391.835Z" fill="white" fill-opacity="0.5"/>
<path d="M285.856 422.949C285.322 422.965 284.851 422.871 284.442 422.668C284.041 422.465 283.716 422.177 283.469 421.803C283.222 421.421 283.07 420.975 283.013 420.463L284.134 420.357C284.219 420.881 284.411 421.278 284.711 421.547C285.01 421.815 285.396 421.942 285.867 421.928C286.318 421.915 286.662 421.818 286.899 421.637C287.143 421.449 287.261 421.192 287.251 420.867C287.244 420.645 287.186 420.456 287.078 420.299C286.975 420.136 286.784 419.989 286.502 419.859C286.227 419.721 285.828 419.587 285.304 419.457C284.793 419.334 284.376 419.19 284.052 419.027C283.735 418.863 283.496 418.655 283.336 418.403C283.182 418.151 283.1 417.834 283.089 417.453C283.069 416.815 283.272 416.292 283.697 415.883C284.129 415.475 284.733 415.259 285.51 415.236C286.279 415.212 286.889 415.416 287.339 415.847C287.789 416.27 288.06 416.838 288.15 417.55L287.029 417.646C286.961 417.225 286.801 416.886 286.551 416.63C286.3 416.367 285.953 416.242 285.509 416.256C285.1 416.268 284.777 416.378 284.541 416.587C284.311 416.788 284.201 417.048 284.21 417.367C284.217 417.582 284.271 417.761 284.372 417.903C284.473 418.039 284.647 418.159 284.893 418.262C285.139 418.359 285.482 418.46 285.922 418.564C286.516 418.706 286.99 418.876 287.343 419.073C287.695 419.271 287.953 419.513 288.114 419.8C288.275 420.086 288.362 420.431 288.374 420.833C288.386 421.235 288.289 421.595 288.084 421.914C287.878 422.225 287.584 422.473 287.201 422.658C286.824 422.836 286.376 422.933 285.856 422.949ZM292.07 422.72C291.55 422.736 291.092 422.632 290.697 422.408C290.308 422.176 290 421.849 289.772 421.426C289.551 420.995 289.432 420.489 289.414 419.906C289.397 419.324 289.485 418.815 289.68 418.379C289.882 417.935 290.167 417.59 290.534 417.343C290.908 417.089 291.352 416.954 291.865 416.939C292.357 416.924 292.794 417.026 293.175 417.243C293.556 417.461 293.857 417.785 294.079 418.215C294.307 418.645 294.43 419.166 294.448 419.776L294.457 420.067L290.526 420.185C290.57 420.718 290.727 421.116 290.999 421.378C291.271 421.641 291.621 421.766 292.051 421.753C292.377 421.743 292.645 421.659 292.855 421.5C293.066 421.341 293.209 421.132 293.284 420.873L294.389 420.912C294.245 421.444 293.97 421.875 293.564 422.207C293.164 422.531 292.666 422.702 292.07 422.72ZM290.501 419.343L293.298 419.259C293.242 418.789 293.086 418.443 292.83 418.221C292.573 418 292.261 417.895 291.894 417.906C291.499 417.918 291.18 418.046 290.937 418.289C290.702 418.532 290.556 418.883 290.501 419.343ZM295.983 422.478L295.956 421.594L297.36 421.552L297.247 417.787L295.843 417.829L295.816 416.945L298.052 416.878L298.147 417.937C298.312 417.224 298.746 416.857 299.446 416.836L300.621 416.801L300.648 417.716L299.515 417.75C298.704 417.774 298.311 418.23 298.338 419.118L298.41 421.52L300.137 421.468L300.163 422.352L295.983 422.478ZM303.81 422.242L301.646 416.77L302.78 416.736L304.431 421.11L305.817 416.644L306.95 416.61L305.12 422.203L303.81 422.242ZM310.777 422.158C310.257 422.174 309.799 422.069 309.404 421.845C309.015 421.614 308.707 421.287 308.479 420.863C308.258 420.433 308.139 419.926 308.121 419.344C308.104 418.762 308.193 418.252 308.388 417.816C308.59 417.373 308.874 417.028 309.241 416.781C309.615 416.527 310.059 416.392 310.572 416.377C311.064 416.362 311.501 416.463 311.882 416.681C312.264 416.898 312.565 417.222 312.786 417.653C313.014 418.083 313.137 418.603 313.155 419.213L313.164 419.505L309.233 419.623C309.277 420.156 309.435 420.554 309.706 420.816C309.978 421.079 310.328 421.203 310.758 421.19C311.084 421.181 311.352 421.096 311.563 420.937C311.773 420.778 311.916 420.569 311.991 420.31L313.096 420.35C312.952 420.882 312.677 421.313 312.271 421.645C311.871 421.969 311.373 422.14 310.777 422.158ZM309.208 418.78L312.005 418.696C311.95 418.226 311.793 417.88 311.537 417.659C311.28 417.438 310.969 417.333 310.601 417.344C310.206 417.356 309.887 417.483 309.645 417.726C309.409 417.969 309.263 418.321 309.208 418.78ZM314.69 421.915L314.663 421.031L316.067 420.989L315.954 417.224L314.55 417.267L314.524 416.383L316.759 416.316L316.854 417.374C317.02 416.662 317.453 416.295 318.153 416.274L319.328 416.238L319.356 417.153L318.222 417.188C317.411 417.212 317.019 417.668 317.045 418.555L317.118 420.958L318.844 420.906L318.871 421.79L314.69 421.915ZM320.634 421.737L320.608 420.853L322.771 420.788L322.623 415.858C322.616 415.643 322.552 415.479 322.431 415.364C322.309 415.243 322.138 415.186 321.916 415.192L320.647 415.231L320.62 414.347L322.004 414.305C323.085 414.273 323.642 414.797 323.675 415.879L323.821 420.756L325.683 420.7L325.709 421.584L320.634 421.737ZM329.484 421.596C328.964 421.611 328.507 421.507 328.111 421.283C327.723 421.052 327.414 420.724 327.187 420.301C326.965 419.87 326.846 419.364 326.829 418.782C326.811 418.199 326.9 417.69 327.095 417.254C327.297 416.811 327.581 416.466 327.949 416.219C328.323 415.964 328.766 415.83 329.279 415.814C329.771 415.799 330.208 415.901 330.59 416.118C330.971 416.336 331.272 416.66 331.493 417.09C331.721 417.521 331.844 418.041 331.863 418.651L331.871 418.942L327.94 419.06C327.984 419.594 328.142 419.991 328.413 420.254C328.685 420.516 329.036 420.641 329.466 420.628C329.791 420.618 330.06 420.534 330.27 420.375C330.48 420.216 330.623 420.007 330.699 419.748L331.803 419.788C331.66 420.319 331.385 420.751 330.978 421.082C330.578 421.407 330.08 421.578 329.484 421.596ZM327.915 418.218L330.713 418.134C330.657 417.664 330.501 417.318 330.244 417.097C329.988 416.875 329.676 416.77 329.308 416.781C328.913 416.793 328.594 416.921 328.352 417.164C328.116 417.407 327.971 417.758 327.915 418.218ZM335.73 421.408C335.238 421.423 334.813 421.352 334.454 421.196C334.096 421.041 333.815 420.827 333.613 420.555C333.41 420.277 333.289 419.965 333.251 419.619L334.321 419.524C334.385 419.828 334.531 420.063 334.758 420.23C334.985 420.396 335.303 420.473 335.712 420.461C336.087 420.45 336.373 420.389 336.571 420.279C336.776 420.169 336.875 420.003 336.868 419.781C336.864 419.642 336.826 419.529 336.754 419.441C336.682 419.346 336.547 419.27 336.351 419.214C336.162 419.15 335.883 419.089 335.513 419.031C334.963 418.95 334.529 418.842 334.213 418.705C333.896 418.562 333.669 418.385 333.531 418.174C333.399 417.963 333.329 417.701 333.32 417.389C333.305 416.904 333.473 416.497 333.824 416.167C334.182 415.83 334.714 415.651 335.421 415.63C335.914 415.615 336.322 415.686 336.646 415.843C336.977 415.999 337.233 416.214 337.414 416.486C337.603 416.751 337.726 417.042 337.784 417.359L336.715 417.454C336.651 417.185 336.51 416.971 336.29 416.811C336.076 416.644 335.796 416.566 335.45 416.576C335.075 416.587 334.804 416.668 334.635 416.819C334.473 416.97 334.395 417.149 334.401 417.357C334.409 417.607 334.511 417.784 334.709 417.889C334.906 417.994 335.256 418.084 335.758 418.159C336.322 418.239 336.759 418.344 337.068 418.474C337.384 418.603 337.605 418.77 337.729 418.974C337.86 419.179 337.93 419.433 337.939 419.738C337.954 420.238 337.758 420.636 337.35 420.932C336.943 421.229 336.403 421.388 335.73 421.408ZM341.966 421.22C341.474 421.235 341.048 421.165 340.69 421.009C340.331 420.853 340.051 420.639 339.848 420.368C339.646 420.09 339.525 419.777 339.487 419.432L340.556 419.337C340.621 419.64 340.767 419.875 340.994 420.042C341.221 420.209 341.539 420.286 341.948 420.274C342.322 420.262 342.609 420.202 342.807 420.092C343.011 419.981 343.111 419.815 343.104 419.594C343.1 419.455 343.062 419.342 342.99 419.253C342.917 419.158 342.783 419.083 342.587 419.026C342.398 418.962 342.118 418.901 341.749 418.843C341.198 418.763 340.765 418.654 340.448 418.518C340.132 418.375 339.904 418.198 339.766 417.987C339.635 417.776 339.565 417.514 339.555 417.202C339.541 416.717 339.709 416.309 340.06 415.979C340.418 415.642 340.95 415.463 341.657 415.442C342.149 415.427 342.557 415.498 342.881 415.655C343.212 415.812 343.469 416.026 343.65 416.298C343.839 416.563 343.962 416.854 344.02 417.172L342.951 417.266C342.887 416.998 342.745 416.783 342.525 416.624C342.312 416.456 342.032 416.378 341.686 416.389C341.311 416.4 341.04 416.481 340.871 416.632C340.709 416.782 340.631 416.962 340.637 417.17C340.644 417.419 340.747 417.596 340.944 417.702C341.142 417.807 341.492 417.897 341.993 417.972C342.558 418.052 342.995 418.157 343.304 418.286C343.62 418.416 343.84 418.583 343.964 418.787C344.095 418.991 344.166 419.246 344.175 419.551C344.19 420.05 343.994 420.448 343.586 420.745C343.179 421.042 342.639 421.2 341.966 421.22Z" fill="white" fill-opacity="0.5"/>
<path d="M419.913 408.767C419.317 408.784 418.806 408.644 418.38 408.344C417.962 408.044 417.637 407.61 417.404 407.041C417.172 406.472 417.044 405.792 417.021 405.002C416.997 404.205 417.083 403.515 417.281 402.933C417.478 402.344 417.777 401.888 418.177 401.564C418.583 401.239 419.085 401.068 419.681 401.05C420.353 401.03 420.925 401.235 421.396 401.665C421.867 402.088 422.191 402.699 422.367 403.499L421.225 403.595C421.106 403.085 420.91 402.703 420.639 402.447C420.374 402.185 420.065 402.059 419.712 402.069C419.178 402.085 418.776 402.347 418.507 402.855C418.244 403.355 418.127 404.06 418.154 404.968C418.181 405.876 418.341 406.572 418.633 407.056C418.932 407.533 419.348 407.763 419.882 407.747C420.264 407.736 420.585 407.581 420.847 407.281C421.108 406.982 421.276 406.55 421.349 405.986L422.484 406.004C422.385 406.853 422.106 407.521 421.649 408.007C421.199 408.492 420.62 408.745 419.913 408.767ZM426.116 408.538C425.603 408.554 425.149 408.45 424.754 408.225C424.365 408.001 424.057 407.677 423.829 407.254C423.608 406.823 423.489 406.314 423.471 405.724C423.453 405.135 423.542 404.622 423.737 404.186C423.939 403.743 424.227 403.398 424.601 403.15C424.982 402.903 425.429 402.772 425.942 402.756C426.455 402.741 426.906 402.845 427.295 403.069C427.69 403.294 427.998 403.621 428.219 404.051C428.447 404.475 428.57 404.981 428.588 405.57C428.605 406.16 428.513 406.676 428.311 407.119C428.116 407.555 427.828 407.897 427.447 408.145C427.073 408.392 426.629 408.523 426.116 408.538ZM426.087 407.571C426.552 407.557 426.904 407.377 427.143 407.029C427.389 406.682 427.503 406.207 427.485 405.604C427.467 405 427.325 404.533 427.058 404.201C426.798 403.869 426.436 403.709 425.971 403.723C425.507 403.737 425.152 403.918 424.905 404.265C424.666 404.613 424.555 405.088 424.573 405.691C424.591 406.294 424.73 406.762 424.99 407.094C425.257 407.426 425.623 407.585 426.087 407.571ZM430.06 408.295L429.894 402.762L430.861 402.733L430.912 403.731C431.046 403.345 431.266 403.058 431.573 402.868C431.879 402.671 432.227 402.567 432.615 402.556C433.024 402.543 433.366 402.627 433.643 402.806C433.925 402.978 434.141 403.221 434.289 403.536C434.437 403.844 434.517 404.195 434.529 404.59L434.636 408.157L433.586 408.189L433.487 404.892C433.458 403.929 433.076 403.458 432.341 403.48C431.96 403.491 431.637 403.626 431.375 403.884C431.119 404.141 430.998 404.509 431.012 404.987L431.111 408.263L430.06 408.295ZM439.374 408.015C438.265 408.048 437.694 407.535 437.663 406.474L437.571 403.416L435.823 403.469L435.797 402.585L437.544 402.532L437.505 401.232L438.555 401.201L438.594 402.501L440.747 402.436L440.774 403.32L438.621 403.385L438.711 406.39C438.727 406.896 438.977 407.142 439.462 407.128L440.887 407.085L440.913 407.969L439.374 408.015ZM444.075 407.999C443.728 408.009 443.414 407.956 443.133 407.84C442.852 407.723 442.625 407.553 442.452 407.329C442.285 407.105 442.197 406.841 442.188 406.536C442.174 406.064 442.305 405.696 442.582 405.431C442.865 405.159 443.296 404.955 443.875 404.819L445.652 404.391C445.627 403.532 445.239 403.113 444.491 403.135C444.144 403.146 443.876 403.234 443.687 403.399C443.497 403.564 443.372 403.79 443.311 404.076L442.207 404.037C442.295 403.507 442.535 403.073 442.928 402.735C443.32 402.397 443.832 402.218 444.462 402.199C445.17 402.178 445.713 402.363 446.093 402.754C446.479 403.145 446.683 403.694 446.704 404.401L446.77 406.585C446.774 406.71 446.8 406.799 446.851 406.853C446.908 406.9 446.992 406.922 447.102 406.919L447.414 406.909L447.44 407.772C447.399 407.781 447.33 407.79 447.233 407.8C447.143 407.809 447.053 407.815 446.963 407.818C446.325 407.837 445.939 407.575 445.805 407.031C445.674 407.305 445.452 407.534 445.138 407.717C444.831 407.893 444.477 407.986 444.075 407.999ZM444.205 407.131C444.711 407.116 445.088 406.976 445.337 406.712C445.586 406.44 445.703 406.086 445.69 405.65L445.677 405.223L444.148 405.581C443.817 405.661 443.588 405.768 443.46 405.904C443.332 406.033 443.271 406.205 443.278 406.42C443.285 406.655 443.37 406.837 443.533 406.964C443.697 407.084 443.92 407.139 444.205 407.131ZM448.726 407.734L448.699 406.85L450.862 406.785L450.749 403.02L448.69 403.082L448.664 402.198L451.783 402.104L451.923 406.753L453.774 406.697L453.801 407.581L448.726 407.734ZM450.636 401.337L450.603 400.245L451.685 400.213L451.718 401.305L450.636 401.337ZM455.003 407.545L454.837 402.013L455.804 401.983L455.855 402.981C455.989 402.595 456.209 402.308 456.516 402.118C456.822 401.922 457.17 401.817 457.558 401.806C457.967 401.794 458.309 401.877 458.586 402.056C458.868 402.228 459.084 402.471 459.232 402.786C459.38 403.094 459.46 403.445 459.472 403.841L459.579 407.408L458.529 407.439L458.43 404.142C458.401 403.179 458.019 402.708 457.284 402.73C456.902 402.742 456.58 402.876 456.318 403.134C456.062 403.391 455.941 403.759 455.955 404.238L456.054 407.514L455.003 407.545ZM463.603 407.412C463.083 407.427 462.626 407.323 462.23 407.099C461.842 406.868 461.534 406.54 461.306 406.117C461.085 405.686 460.965 405.18 460.948 404.598C460.93 404.015 461.019 403.506 461.214 403.07C461.416 402.627 461.701 402.282 462.068 402.035C462.442 401.78 462.885 401.646 463.398 401.63C463.891 401.615 464.327 401.717 464.709 401.934C465.09 402.152 465.391 402.476 465.612 402.906C465.84 403.337 465.964 403.857 465.982 404.467L465.991 404.758L462.06 404.876C462.103 405.41 462.261 405.807 462.533 406.07C462.804 406.332 463.155 406.457 463.585 406.444C463.911 406.434 464.179 406.35 464.389 406.191C464.599 406.032 464.742 405.823 464.818 405.564L465.922 405.604C465.779 406.135 465.504 406.567 465.097 406.898C464.698 407.222 464.2 407.394 463.603 407.412ZM462.034 404.034L464.832 403.95C464.776 403.48 464.62 403.134 464.363 402.913C464.107 402.691 463.795 402.586 463.428 402.597C463.032 402.609 462.713 402.737 462.471 402.98C462.235 403.223 462.09 403.574 462.034 404.034ZM467.516 407.169L467.49 406.285L468.894 406.243L468.781 402.478L467.377 402.52L467.35 401.636L469.586 401.569L469.68 402.628C469.846 401.915 470.279 401.548 470.98 401.527L472.155 401.492L472.182 402.407L471.049 402.441C470.237 402.466 469.845 402.921 469.872 403.809L469.944 406.211L471.67 406.159L471.697 407.043L467.516 407.169Z" fill="white" fill-opacity="0.5"/>
<path d="M167 363L229.2 319H478L415.8 363H167Z" fill="url(#paint2_linear_5970_3667)"/>
<path d="M103.392 303.168L167.419 271.155H447.537L383.51 303.168H103.392Z" fill="#0A0A0A" fill-opacity="0.9" stroke="white" stroke-opacity="0.4" stroke-width="1.60067"/>
<path d="M103 303.013V343.03L167.027 375.044V271L103 303.013Z" fill="#060606" fill-opacity="0.95" stroke="white" stroke-opacity="0.4" stroke-width="1.60067"/>
<path d="M166.5 275V375L104 342.5V303L166.5 275Z" fill="url(#paint3_linear_5970_3667)" fill-opacity="0.4" stroke="white" stroke-opacity="0.2"/>
<path d="M447.537 271.155V375.199L383.51 343.185V303.168L447.537 271.155Z" fill="#0E0E0E" fill-opacity="0.9" stroke="white" stroke-opacity="0.4" stroke-width="1.60067"/>
<path d="M167.419 271.155V375.199H447.537V271.155H167.419Z" fill="#080808" fill-opacity="0.9" stroke="white" stroke-opacity="0.4" stroke-width="1.60067"/>
<path d="M286 336.97C285.376 336.97 284.832 336.846 284.368 336.598C283.912 336.35 283.552 336.002 283.288 335.554C283.024 335.098 282.868 334.562 282.82 333.946L284.332 333.862C284.388 334.254 284.488 334.582 284.632 334.846C284.784 335.102 284.98 335.298 285.22 335.434C285.468 335.562 285.752 335.626 286.072 335.626C286.376 335.626 286.632 335.586 286.84 335.506C287.056 335.426 287.22 335.306 287.332 335.146C287.444 334.986 287.5 334.794 287.5 334.57C287.5 334.33 287.444 334.122 287.332 333.946C287.22 333.77 287.02 333.606 286.732 333.454C286.444 333.302 286.032 333.154 285.496 333.01C284.92 332.858 284.448 332.682 284.08 332.482C283.712 332.282 283.44 332.034 283.264 331.738C283.088 331.434 283 331.054 283 330.598C283 330.086 283.112 329.642 283.336 329.266C283.568 328.882 283.9 328.586 284.332 328.378C284.772 328.17 285.296 328.066 285.904 328.066C286.504 328.066 287.016 328.182 287.44 328.414C287.864 328.638 288.196 328.962 288.436 329.386C288.684 329.802 288.836 330.298 288.892 330.874L287.368 330.946C287.328 330.634 287.244 330.366 287.116 330.142C286.996 329.91 286.828 329.73 286.612 329.602C286.404 329.474 286.148 329.41 285.844 329.41C285.436 329.41 285.112 329.514 284.872 329.722C284.632 329.922 284.512 330.186 284.512 330.514C284.512 330.746 284.564 330.938 284.668 331.09C284.78 331.242 284.968 331.378 285.232 331.498C285.496 331.618 285.868 331.738 286.348 331.858C287.012 332.034 287.536 332.242 287.92 332.482C288.312 332.722 288.592 333.01 288.76 333.346C288.928 333.682 289.012 334.078 289.012 334.534C289.012 335.022 288.888 335.45 288.64 335.818C288.392 336.186 288.044 336.47 287.596 336.67C287.148 336.87 286.616 336.97 286 336.97ZM292.368 336.778V329.626H289.992V328.258H296.232V329.626H293.856V336.778H292.368ZM300.307 336.97C299.627 336.97 299.047 336.798 298.567 336.454C298.095 336.11 297.735 335.606 297.487 334.942C297.239 334.278 297.115 333.474 297.115 332.53C297.115 331.57 297.239 330.758 297.487 330.094C297.735 329.43 298.095 328.926 298.567 328.582C299.047 328.238 299.627 328.066 300.307 328.066C300.987 328.066 301.563 328.238 302.035 328.582C302.515 328.926 302.879 329.43 303.127 330.094C303.375 330.758 303.499 331.57 303.499 332.53C303.499 333.474 303.375 334.278 303.127 334.942C302.879 335.606 302.515 336.11 302.035 336.454C301.563 336.798 300.987 336.97 300.307 336.97ZM300.307 335.626C300.667 335.626 300.971 335.514 301.219 335.29C301.467 335.066 301.651 334.726 301.771 334.27C301.899 333.806 301.963 333.226 301.963 332.53C301.963 331.834 301.899 331.254 301.771 330.79C301.651 330.326 301.467 329.982 301.219 329.758C300.971 329.526 300.667 329.41 300.307 329.41C299.947 329.41 299.643 329.526 299.395 329.758C299.147 329.982 298.959 330.326 298.831 330.79C298.711 331.254 298.651 331.834 298.651 332.53C298.651 333.226 298.711 333.806 298.831 334.27C298.959 334.726 299.147 335.066 299.395 335.29C299.643 335.514 299.947 335.626 300.307 335.626ZM304.67 336.778V328.258H307.37C308.282 328.258 308.998 328.486 309.518 328.942C310.038 329.398 310.298 330.022 310.298 330.814C310.298 331.222 310.206 331.582 310.022 331.894C309.846 332.206 309.61 332.454 309.314 332.638C309.018 332.814 308.694 332.914 308.342 332.938L308.294 332.782C308.91 332.806 309.37 332.942 309.674 333.19C309.978 333.43 310.154 333.826 310.202 334.378L310.406 336.778H308.918L308.738 334.726C308.714 334.422 308.654 334.186 308.558 334.018C308.47 333.85 308.33 333.734 308.138 333.67C307.954 333.606 307.698 333.574 307.37 333.574H306.158V336.778H304.67ZM306.158 332.206H307.334C307.798 332.206 308.15 332.094 308.39 331.87C308.638 331.646 308.762 331.326 308.762 330.91C308.762 330.494 308.638 330.178 308.39 329.962C308.15 329.738 307.798 329.626 307.334 329.626H306.158V332.206ZM311.35 336.778L313.774 328.258H315.622L318.046 336.778H316.522L314.698 329.938L312.874 336.778H311.35ZM312.838 334.762L313.246 333.43H316.15L316.558 334.762H312.838ZM321.893 336.97C321.269 336.97 320.717 336.802 320.237 336.466C319.757 336.122 319.381 335.618 319.109 334.954C318.837 334.29 318.701 333.482 318.701 332.53C318.701 331.61 318.829 330.818 319.085 330.154C319.341 329.49 319.709 328.978 320.189 328.618C320.677 328.25 321.257 328.066 321.929 328.066C322.473 328.066 322.953 328.182 323.369 328.414C323.785 328.646 324.129 328.982 324.401 329.422C324.681 329.854 324.881 330.37 325.001 330.97L323.465 331.066C323.361 330.546 323.181 330.142 322.925 329.854C322.669 329.566 322.341 329.422 321.941 329.422C321.581 329.422 321.273 329.542 321.017 329.782C320.761 330.022 320.565 330.374 320.429 330.838C320.301 331.302 320.237 331.866 320.237 332.53C320.237 333.186 320.305 333.746 320.441 334.21C320.585 334.666 320.789 335.014 321.053 335.254C321.317 335.494 321.641 335.614 322.025 335.614C322.345 335.614 322.621 335.534 322.853 335.374C323.085 335.206 323.265 334.97 323.393 334.666C323.529 334.362 323.605 334.006 323.621 333.598H321.917V332.386H324.989V336.778H323.909L323.837 334.882L324.197 334.774C324.125 335.174 323.993 335.542 323.801 335.878C323.617 336.214 323.365 336.482 323.045 336.682C322.733 336.874 322.349 336.97 321.893 336.97ZM326.52 336.778V328.258H331.8V329.626H328.008V331.846H331.656V333.166H328.008V335.41H331.896V336.778H326.52Z" fill="white"/>
<path d="M292.556 360.166C291.96 360.166 291.453 360.01 291.037 359.698C290.628 359.386 290.316 358.942 290.101 358.367C289.886 357.791 289.778 357.108 289.778 356.317C289.778 355.519 289.886 354.832 290.101 354.257C290.316 353.674 290.628 353.227 291.037 352.915C291.453 352.602 291.96 352.446 292.556 352.446C293.229 352.446 293.794 352.668 294.252 353.112C294.71 353.549 295.015 354.17 295.168 354.975L294.023 355.037C293.919 354.524 293.735 354.135 293.472 353.872C293.215 353.601 292.91 353.466 292.556 353.466C292.022 353.466 291.613 353.716 291.328 354.215C291.051 354.708 290.912 355.408 290.912 356.317C290.912 357.225 291.051 357.926 291.328 358.419C291.613 358.904 292.022 359.147 292.556 359.147C292.938 359.147 293.264 359.001 293.534 358.71C293.805 358.419 293.985 357.992 294.075 357.43L295.209 357.482C295.084 358.328 294.786 358.987 294.314 359.459C293.85 359.931 293.264 360.166 292.556 360.166ZM296.225 360V359.116H298.389V354.184C298.389 353.969 298.33 353.802 298.212 353.685C298.094 353.56 297.924 353.497 297.702 353.497H296.433V352.613H297.817C298.899 352.613 299.44 353.154 299.44 354.236V359.116H301.302V360H296.225ZM305.002 360.125C304.489 360.125 304.038 360.007 303.649 359.771C303.268 359.535 302.97 359.202 302.755 358.772C302.547 358.335 302.443 357.822 302.443 357.232C302.443 356.643 302.547 356.133 302.755 355.703C302.97 355.266 303.268 354.93 303.649 354.694C304.038 354.458 304.489 354.34 305.002 354.34C305.515 354.34 305.963 354.458 306.344 354.694C306.733 354.93 307.031 355.266 307.239 355.703C307.454 356.133 307.562 356.643 307.562 357.232C307.562 357.822 307.454 358.335 307.239 358.772C307.031 359.202 306.733 359.535 306.344 359.771C305.963 360.007 305.515 360.125 305.002 360.125ZM305.002 359.157C305.467 359.157 305.824 358.987 306.074 358.647C306.33 358.308 306.459 357.836 306.459 357.232C306.459 356.629 306.33 356.157 306.074 355.817C305.824 355.478 305.467 355.308 305.002 355.308C304.537 355.308 304.177 355.478 303.92 355.817C303.67 356.157 303.545 356.629 303.545 357.232C303.545 357.836 303.67 358.308 303.92 358.647C304.177 358.987 304.537 359.157 305.002 359.157ZM310.762 360.125C310.228 360.125 309.801 359.945 309.482 359.584C309.163 359.223 309.004 358.71 309.004 358.044V354.465H310.054V357.773C310.054 358.273 310.141 358.637 310.315 358.866C310.488 359.095 310.752 359.209 311.105 359.209C311.494 359.209 311.802 359.081 312.031 358.824C312.26 358.568 312.375 358.204 312.375 357.732V354.465H313.426V360H312.437V359.074C312.132 359.775 311.574 360.125 310.762 360.125ZM317.042 360.125C316.335 360.125 315.773 359.868 315.357 359.355C314.94 358.835 314.732 358.127 314.732 357.232C314.732 356.338 314.94 355.634 315.357 355.12C315.773 354.6 316.335 354.34 317.042 354.34C317.431 354.34 317.767 354.43 318.051 354.611C318.343 354.791 318.558 355.002 318.696 355.245V352.613H319.747V360H318.769L318.738 359.147C318.585 359.452 318.364 359.691 318.072 359.865C317.781 360.038 317.438 360.125 317.042 360.125ZM317.219 359.157C317.677 359.157 318.038 358.987 318.301 358.647C318.565 358.301 318.696 357.829 318.696 357.232C318.696 356.629 318.561 356.157 318.291 355.817C318.027 355.478 317.663 355.308 317.198 355.308C316.775 355.308 316.442 355.478 316.199 355.817C315.957 356.157 315.835 356.629 315.835 357.232C315.835 357.829 315.957 358.301 316.199 358.647C316.442 358.987 316.782 359.157 317.219 359.157Z" fill="white" fill-opacity="0.5"/>
<path d="M171 302L226.4 271H448L392.6 302H171Z" fill="url(#paint4_linear_5970_3667)"/>
<path d="M127.402 239.142L175.423 215.132H407.52L359.5 239.142H127.402Z" fill="url(#paint5_linear_5970_3667)" stroke="white" stroke-opacity="0.4" stroke-width="1.60067"/>
<path d="M127 239.01V279.027L175.02 303.037V215L127 239.01Z" fill="#070707" fill-opacity="0.95" stroke="white" stroke-opacity="0.4" stroke-width="1.60067"/>
<path d="M174 216.5V302L127.5 278V238.5L174 216.5Z" fill="url(#paint6_linear_5970_3667)" fill-opacity="0.4" stroke="white" stroke-opacity="0.2"/>
<path d="M407.52 215.131V303.168L359.5 279.158V239.141L407.52 215.131Z" fill="#101010" fill-opacity="0.9" stroke="white" stroke-opacity="0.4" stroke-width="1.60067"/>
<path d="M175 215V303.037H407.098V215H175Z" fill="#0A0A0A" fill-opacity="0.9" stroke="white" stroke-opacity="0.4" stroke-width="1.60067"/>
<path d="M140.261 264.552V257.734H144.449V258.684H141.27V260.672H144.333V261.594H141.27V263.602H144.525V264.552H140.261ZM147.451 264.552L145.607 259.443H146.654L148.056 263.525L149.458 259.443H150.505L148.661 264.552H147.451ZM153.882 264.668C153.402 264.668 152.982 264.559 152.624 264.341C152.272 264.117 151.996 263.807 151.798 263.41C151.606 263.006 151.51 262.536 151.51 261.998C151.51 261.46 151.606 260.993 151.798 260.596C151.996 260.192 152.268 259.882 152.614 259.664C152.966 259.44 153.379 259.328 153.853 259.328C154.308 259.328 154.708 259.434 155.054 259.645C155.399 259.856 155.668 260.163 155.86 260.567C156.059 260.97 156.158 261.454 156.158 262.017V262.286H152.528C152.553 262.779 152.688 263.15 152.931 263.4C153.174 263.65 153.494 263.775 153.891 263.775C154.192 263.775 154.442 263.704 154.641 263.563C154.839 263.422 154.977 263.234 155.054 262.997L156.072 263.064C155.924 263.55 155.659 263.941 155.274 264.236C154.897 264.524 154.432 264.668 153.882 264.668ZM152.528 261.508H155.111C155.073 261.073 154.938 260.749 154.708 260.538C154.477 260.327 154.192 260.221 153.853 260.221C153.488 260.221 153.19 260.33 152.96 260.548C152.736 260.765 152.592 261.085 152.528 261.508ZM157.46 264.552V259.443H158.354L158.373 260.365C158.507 260.013 158.718 259.754 159.007 259.587C159.295 259.414 159.618 259.328 159.977 259.328C160.354 259.328 160.668 259.414 160.918 259.587C161.174 259.754 161.366 259.984 161.494 260.279C161.622 260.567 161.686 260.893 161.686 261.258V264.552H160.716V261.508C160.716 260.618 160.377 260.173 159.698 260.173C159.346 260.173 159.045 260.288 158.795 260.519C158.552 260.749 158.43 261.085 158.43 261.527V264.552H157.46ZM166.062 264.552C165.037 264.552 164.525 264.063 164.525 263.083V260.259H162.912V259.443H164.525V258.243H165.495V259.443H167.483V260.259H165.495V263.035C165.495 263.502 165.719 263.736 166.167 263.736H167.483V264.552H166.062ZM171.167 264.668C170.713 264.668 170.322 264.591 169.996 264.437C169.669 264.284 169.416 264.079 169.237 263.823C169.058 263.56 168.955 263.269 168.93 262.949L169.919 262.891C169.97 263.173 170.098 263.394 170.303 263.554C170.508 263.714 170.799 263.794 171.177 263.794C171.523 263.794 171.789 263.746 171.974 263.65C172.166 263.554 172.262 263.403 172.262 263.198C172.262 263.07 172.23 262.965 172.166 262.881C172.102 262.792 171.981 262.718 171.801 262.66C171.628 262.596 171.372 262.532 171.033 262.468C170.527 262.379 170.13 262.267 169.842 262.132C169.554 261.991 169.349 261.822 169.227 261.623C169.112 261.425 169.055 261.181 169.055 260.893C169.055 260.445 169.221 260.074 169.554 259.779C169.893 259.478 170.39 259.328 171.043 259.328C171.497 259.328 171.872 259.405 172.166 259.558C172.467 259.712 172.698 259.917 172.858 260.173C173.024 260.423 173.13 260.695 173.175 260.989L172.185 261.047C172.134 260.797 172.009 260.596 171.811 260.442C171.619 260.282 171.363 260.202 171.043 260.202C170.697 260.202 170.444 260.269 170.284 260.404C170.13 260.538 170.053 260.701 170.053 260.893C170.053 261.124 170.143 261.29 170.322 261.393C170.502 261.495 170.822 261.588 171.283 261.671C171.801 261.761 172.201 261.87 172.483 261.998C172.771 262.126 172.97 262.286 173.079 262.478C173.194 262.67 173.252 262.907 173.252 263.189C173.252 263.65 173.059 264.011 172.675 264.274C172.291 264.536 171.789 264.668 171.167 264.668Z" fill="white" fill-opacity="0.5"/>
<path d="M132.384 334.706C131.891 334.706 131.458 334.607 131.087 334.408C130.722 334.21 130.431 333.935 130.213 333.582C129.995 333.224 129.867 332.808 129.829 332.334L130.866 332.267C130.93 332.753 131.097 333.125 131.366 333.381C131.635 333.637 131.987 333.765 132.422 333.765C132.838 333.765 133.158 333.685 133.382 333.525C133.613 333.358 133.728 333.125 133.728 332.824C133.728 332.619 133.68 332.443 133.584 332.296C133.495 332.142 133.322 332.001 133.066 331.873C132.816 331.739 132.451 331.604 131.971 331.47C131.503 331.342 131.122 331.197 130.828 331.037C130.54 330.877 130.325 330.679 130.184 330.442C130.05 330.205 129.983 329.911 129.983 329.558C129.983 328.969 130.184 328.492 130.588 328.127C130.997 327.762 131.561 327.58 132.278 327.58C132.989 327.58 133.546 327.785 133.949 328.195C134.352 328.598 134.586 329.129 134.65 329.789L133.613 329.847C133.562 329.456 133.424 329.139 133.2 328.896C132.976 328.646 132.659 328.521 132.249 328.521C131.871 328.521 131.571 328.614 131.346 328.8C131.129 328.979 131.02 329.216 131.02 329.51C131.02 329.709 131.065 329.875 131.154 330.01C131.244 330.138 131.401 330.253 131.625 330.356C131.849 330.452 132.163 330.554 132.566 330.663C133.11 330.81 133.543 330.98 133.863 331.172C134.183 331.364 134.413 331.594 134.554 331.863C134.695 332.132 134.765 332.452 134.765 332.824C134.765 333.195 134.666 333.525 134.468 333.813C134.269 334.095 133.991 334.316 133.632 334.476C133.28 334.629 132.864 334.706 132.384 334.706ZM138.056 334.706C137.243 334.706 136.615 334.399 136.174 333.784C135.738 333.17 135.52 332.292 135.52 331.153C135.52 330.007 135.738 329.126 136.174 328.512C136.615 327.89 137.243 327.58 138.056 327.58C138.869 327.58 139.493 327.89 139.929 328.512C140.37 329.126 140.591 330.007 140.591 331.153C140.591 332.638 140.23 333.666 139.506 334.236L140.121 335.215H139.189L138.805 334.601C138.575 334.671 138.325 334.706 138.056 334.706ZM138.056 333.765C138.133 333.765 138.203 333.759 138.267 333.746L137.48 332.497H138.411L138.959 333.381C139.349 332.958 139.545 332.216 139.545 331.153C139.545 330.288 139.416 329.635 139.16 329.193C138.904 328.745 138.536 328.521 138.056 328.521C137.576 328.521 137.208 328.745 136.951 329.193C136.695 329.635 136.567 330.288 136.567 331.153C136.567 332.017 136.695 332.67 136.951 333.112C137.208 333.547 137.576 333.765 138.056 333.765ZM141.875 334.552V327.734H142.883V333.602H146.139V334.552H141.875Z" fill="white" fill-opacity="0.5"/>
<path d="M360.968 265.154C360.475 265.154 360.042 265.054 359.671 264.856C359.306 264.657 359.015 264.382 358.797 264.03C358.579 263.671 358.451 263.255 358.413 262.781L359.45 262.714C359.514 263.201 359.681 263.572 359.95 263.828C360.219 264.084 360.571 264.212 361.006 264.212C361.422 264.212 361.742 264.132 361.966 263.972C362.197 263.806 362.312 263.572 362.312 263.271C362.312 263.066 362.264 262.89 362.168 262.743C362.079 262.589 361.906 262.449 361.65 262.32C361.4 262.186 361.035 262.052 360.555 261.917C360.087 261.789 359.706 261.645 359.412 261.485C359.124 261.325 358.909 261.126 358.768 260.889C358.634 260.653 358.567 260.358 358.567 260.006C358.567 259.417 358.768 258.94 359.172 258.575C359.581 258.21 360.145 258.027 360.862 258.027C361.573 258.027 362.13 258.232 362.533 258.642C362.936 259.045 363.17 259.577 363.234 260.236L362.197 260.294C362.146 259.903 362.008 259.587 361.784 259.343C361.56 259.094 361.243 258.969 360.833 258.969C360.455 258.969 360.155 259.061 359.93 259.247C359.713 259.426 359.604 259.663 359.604 259.958C359.604 260.156 359.649 260.323 359.738 260.457C359.828 260.585 359.985 260.701 360.209 260.803C360.433 260.899 360.747 261.002 361.15 261.11C361.694 261.258 362.127 261.427 362.447 261.619C362.767 261.811 362.997 262.042 363.138 262.311C363.279 262.58 363.349 262.9 363.349 263.271C363.349 263.643 363.25 263.972 363.052 264.26C362.853 264.542 362.575 264.763 362.216 264.923C361.864 265.077 361.448 265.154 360.968 265.154ZM366.707 265.115C366.227 265.115 365.808 265.006 365.449 264.789C365.097 264.565 364.822 264.254 364.623 263.857C364.431 263.454 364.335 262.983 364.335 262.445C364.335 261.907 364.431 261.44 364.623 261.043C364.822 260.64 365.094 260.329 365.439 260.112C365.792 259.887 366.205 259.775 366.678 259.775C367.133 259.775 367.533 259.881 367.879 260.092C368.225 260.304 368.493 260.611 368.686 261.014C368.884 261.418 368.983 261.901 368.983 262.465V262.733H365.353C365.379 263.226 365.513 263.598 365.756 263.848C366 264.097 366.32 264.222 366.717 264.222C367.018 264.222 367.267 264.152 367.466 264.011C367.664 263.87 367.802 263.681 367.879 263.444L368.897 263.511C368.75 263.998 368.484 264.389 368.1 264.683C367.722 264.971 367.258 265.115 366.707 265.115ZM365.353 261.956H367.936C367.898 261.52 367.764 261.197 367.533 260.986C367.303 260.774 367.018 260.669 366.678 260.669C366.313 260.669 366.016 260.777 365.785 260.995C365.561 261.213 365.417 261.533 365.353 261.956ZM372.475 265.115C372.021 265.115 371.63 265.038 371.304 264.885C370.977 264.731 370.724 264.526 370.545 264.27C370.366 264.008 370.263 263.716 370.238 263.396L371.227 263.338C371.278 263.62 371.406 263.841 371.611 264.001C371.816 264.161 372.107 264.241 372.485 264.241C372.831 264.241 373.096 264.193 373.282 264.097C373.474 264.001 373.57 263.851 373.57 263.646C373.57 263.518 373.538 263.412 373.474 263.329C373.41 263.239 373.289 263.166 373.109 263.108C372.936 263.044 372.68 262.98 372.341 262.916C371.835 262.826 371.438 262.714 371.15 262.58C370.862 262.439 370.657 262.269 370.535 262.071C370.42 261.872 370.363 261.629 370.363 261.341C370.363 260.893 370.529 260.521 370.862 260.227C371.201 259.926 371.697 259.775 372.351 259.775C372.805 259.775 373.18 259.852 373.474 260.006C373.775 260.16 374.006 260.364 374.166 260.621C374.332 260.87 374.438 261.142 374.483 261.437L373.493 261.495C373.442 261.245 373.317 261.043 373.119 260.889C372.927 260.729 372.671 260.649 372.351 260.649C372.005 260.649 371.752 260.717 371.592 260.851C371.438 260.986 371.361 261.149 371.361 261.341C371.361 261.571 371.451 261.738 371.63 261.84C371.81 261.943 372.13 262.036 372.591 262.119C373.109 262.208 373.509 262.317 373.791 262.445C374.079 262.573 374.278 262.733 374.387 262.926C374.502 263.118 374.559 263.355 374.559 263.636C374.559 264.097 374.367 264.459 373.983 264.721C373.599 264.984 373.096 265.115 372.475 265.115ZM378.234 265.115C377.779 265.115 377.389 265.038 377.062 264.885C376.736 264.731 376.483 264.526 376.304 264.27C376.124 264.008 376.022 263.716 375.996 263.396L376.986 263.338C377.037 263.62 377.165 263.841 377.37 264.001C377.575 264.161 377.866 264.241 378.244 264.241C378.589 264.241 378.855 264.193 379.041 264.097C379.233 264.001 379.329 263.851 379.329 263.646C379.329 263.518 379.297 263.412 379.233 263.329C379.169 263.239 379.047 263.166 378.868 263.108C378.695 263.044 378.439 262.98 378.1 262.916C377.594 262.826 377.197 262.714 376.909 262.58C376.621 262.439 376.416 262.269 376.294 262.071C376.179 261.872 376.121 261.629 376.121 261.341C376.121 260.893 376.288 260.521 376.621 260.227C376.96 259.926 377.456 259.775 378.109 259.775C378.564 259.775 378.938 259.852 379.233 260.006C379.534 260.16 379.764 260.364 379.924 260.621C380.091 260.87 380.197 261.142 380.241 261.437L379.252 261.495C379.201 261.245 379.076 261.043 378.878 260.889C378.685 260.729 378.429 260.649 378.109 260.649C377.763 260.649 377.511 260.717 377.351 260.851C377.197 260.986 377.12 261.149 377.12 261.341C377.12 261.571 377.21 261.738 377.389 261.84C377.568 261.943 377.888 262.036 378.349 262.119C378.868 262.208 379.268 262.317 379.55 262.445C379.838 262.573 380.036 262.733 380.145 262.926C380.261 263.118 380.318 263.355 380.318 263.636C380.318 264.097 380.126 264.459 379.742 264.721C379.358 264.984 378.855 265.115 378.234 265.115ZM381.765 265V264.184H383.762V260.707H381.861V259.891H384.742V264.184H386.451V265H381.765ZM383.705 259.151V258.143H384.703V259.151H383.705ZM389.675 265.115C389.201 265.115 388.785 265.006 388.426 264.789C388.074 264.571 387.799 264.264 387.6 263.867C387.408 263.463 387.312 262.99 387.312 262.445C387.312 261.901 387.408 261.43 387.6 261.034C387.799 260.63 388.074 260.32 388.426 260.102C388.785 259.884 389.201 259.775 389.675 259.775C390.148 259.775 390.561 259.884 390.914 260.102C391.272 260.32 391.547 260.63 391.739 261.034C391.938 261.43 392.037 261.901 392.037 262.445C392.037 262.99 391.938 263.463 391.739 263.867C391.547 264.264 391.272 264.571 390.914 264.789C390.561 265.006 390.148 265.115 389.675 265.115ZM389.675 264.222C390.104 264.222 390.433 264.065 390.664 263.751C390.901 263.438 391.019 263.002 391.019 262.445C391.019 261.888 390.901 261.453 390.664 261.139C390.433 260.825 390.104 260.669 389.675 260.669C389.246 260.669 388.913 260.825 388.676 261.139C388.445 261.453 388.33 261.888 388.33 262.445C388.33 263.002 388.445 263.438 388.676 263.751C388.913 264.065 389.246 264.222 389.675 264.222ZM393.32 265V259.891H394.214L394.233 260.813C394.367 260.46 394.579 260.201 394.867 260.035C395.155 259.862 395.478 259.775 395.837 259.775C396.214 259.775 396.528 259.862 396.778 260.035C397.034 260.201 397.226 260.432 397.354 260.726C397.482 261.014 397.546 261.341 397.546 261.706V265H396.576V261.956C396.576 261.066 396.237 260.621 395.558 260.621C395.206 260.621 394.905 260.736 394.655 260.966C394.412 261.197 394.29 261.533 394.29 261.975V265H393.32ZM401.269 265.115C400.814 265.115 400.424 265.038 400.097 264.885C399.771 264.731 399.518 264.526 399.338 264.27C399.159 264.008 399.057 263.716 399.031 263.396L400.02 263.338C400.071 263.62 400.2 263.841 400.404 264.001C400.609 264.161 400.901 264.241 401.278 264.241C401.624 264.241 401.89 264.193 402.076 264.097C402.268 264.001 402.364 263.851 402.364 263.646C402.364 263.518 402.332 263.412 402.268 263.329C402.204 263.239 402.082 263.166 401.903 263.108C401.73 263.044 401.474 262.98 401.134 262.916C400.629 262.826 400.232 262.714 399.943 262.58C399.655 262.439 399.45 262.269 399.329 262.071C399.214 261.872 399.156 261.629 399.156 261.341C399.156 260.893 399.322 260.521 399.655 260.227C399.995 259.926 400.491 259.775 401.144 259.775C401.599 259.775 401.973 259.852 402.268 260.006C402.569 260.16 402.799 260.364 402.959 260.621C403.126 260.87 403.231 261.142 403.276 261.437L402.287 261.495C402.236 261.245 402.111 261.043 401.912 260.889C401.72 260.729 401.464 260.649 401.144 260.649C400.798 260.649 400.545 260.717 400.385 260.851C400.232 260.986 400.155 261.149 400.155 261.341C400.155 261.571 400.244 261.738 400.424 261.84C400.603 261.943 400.923 262.036 401.384 262.119C401.903 262.208 402.303 262.317 402.585 262.445C402.873 262.573 403.071 262.733 403.18 262.926C403.295 263.118 403.353 263.355 403.353 263.636C403.353 264.097 403.161 264.459 402.777 264.721C402.392 264.984 401.89 265.115 401.269 265.115Z" fill="white" fill-opacity="0.5"/>
<path d="M402.749 335V334.049H404.382V329.132H402.749V328.181H407.013V329.132H405.381V334.049H407.013V335H402.749ZM408.527 335V329.891H409.42L409.439 330.813C409.574 330.46 409.785 330.201 410.073 330.035C410.361 329.862 410.685 329.775 411.043 329.775C411.421 329.775 411.735 329.862 411.984 330.035C412.241 330.201 412.433 330.432 412.561 330.726C412.689 331.014 412.753 331.341 412.753 331.706V335H411.783V331.956C411.783 331.066 411.443 330.621 410.765 330.621C410.413 330.621 410.112 330.736 409.862 330.966C409.619 331.197 409.497 331.533 409.497 331.975V335H408.527ZM414.843 332.647V331.754H417.954V332.647H414.843ZM421.773 334.174L420.707 329.737V335H419.737V328.181H421.082L422.157 332.589L423.233 328.181H424.577V335H423.607V329.737L422.541 334.174H421.773ZM427.983 335.115C427.503 335.115 427.084 335.006 426.725 334.789C426.373 334.565 426.098 334.254 425.899 333.857C425.707 333.454 425.611 332.983 425.611 332.445C425.611 331.907 425.707 331.44 425.899 331.043C426.098 330.64 426.37 330.329 426.715 330.112C427.068 329.887 427.481 329.775 427.954 329.775C428.409 329.775 428.809 329.881 429.155 330.092C429.501 330.304 429.769 330.611 429.962 331.014C430.16 331.418 430.259 331.901 430.259 332.465V332.733H426.629C426.655 333.226 426.789 333.598 427.032 333.848C427.276 334.097 427.596 334.222 427.993 334.222C428.294 334.222 428.543 334.152 428.742 334.011C428.94 333.87 429.078 333.681 429.155 333.444L430.173 333.511C430.026 333.998 429.76 334.389 429.376 334.683C428.998 334.971 428.534 335.115 427.983 335.115ZM426.629 331.956H429.212C429.174 331.52 429.04 331.197 428.809 330.986C428.579 330.774 428.294 330.669 427.954 330.669C427.589 330.669 427.292 330.777 427.061 330.995C426.837 331.213 426.693 331.533 426.629 331.956ZM431.139 335V329.891H431.984L432.013 330.649C432.103 330.368 432.231 330.153 432.397 330.006C432.57 329.852 432.775 329.775 433.012 329.775C433.518 329.775 433.835 330.102 433.963 330.755C434.052 330.448 434.19 330.208 434.376 330.035C434.568 329.862 434.795 329.775 435.058 329.775C435.461 329.775 435.752 329.916 435.932 330.198C436.117 330.473 436.21 330.925 436.21 331.552V335H435.269V331.715C435.269 331.306 435.224 331.021 435.134 330.861C435.051 330.701 434.92 330.621 434.741 330.621C434.561 330.621 434.414 330.71 434.299 330.889C434.19 331.062 434.136 331.344 434.136 331.735V335H433.214V331.715C433.214 331.325 433.172 331.046 433.089 330.88C433.012 330.707 432.881 330.621 432.695 330.621C432.516 330.621 432.368 330.71 432.253 330.889C432.138 331.062 432.08 331.344 432.08 331.735V335H431.139ZM439.433 335.115C438.959 335.115 438.543 335.006 438.185 334.789C437.833 334.571 437.557 334.264 437.359 333.867C437.167 333.463 437.071 332.99 437.071 332.445C437.071 331.901 437.167 331.43 437.359 331.034C437.557 330.63 437.833 330.32 438.185 330.102C438.543 329.884 438.959 329.775 439.433 329.775C439.907 329.775 440.32 329.884 440.672 330.102C441.031 330.32 441.306 330.63 441.498 331.034C441.697 331.43 441.796 331.901 441.796 332.445C441.796 332.99 441.697 333.463 441.498 333.867C441.306 334.264 441.031 334.571 440.672 334.789C440.32 335.006 439.907 335.115 439.433 335.115ZM439.433 334.222C439.862 334.222 440.192 334.065 440.422 333.751C440.659 333.438 440.778 333.002 440.778 332.445C440.778 331.888 440.659 331.453 440.422 331.139C440.192 330.825 439.862 330.669 439.433 330.669C439.004 330.669 438.671 330.825 438.434 331.139C438.204 331.453 438.089 331.888 438.089 332.445C438.089 333.002 438.204 333.438 438.434 333.751C438.671 334.065 439.004 334.222 439.433 334.222ZM443.117 335V334.184H444.414V330.707H443.117V329.891H445.182L445.24 330.87C445.413 330.217 445.823 329.891 446.469 329.891H447.555V330.736H446.508C445.759 330.736 445.384 331.146 445.384 331.965V334.184H446.978V335H443.117ZM449.318 336.441V335.624H449.942C450.115 335.624 450.246 335.595 450.336 335.538C450.426 335.487 450.493 335.4 450.538 335.279L450.711 334.827H450.384L448.521 329.891H449.568L451.018 333.915L452.372 329.891H453.409L451.373 335.576C451.271 335.884 451.111 336.104 450.893 336.239C450.682 336.373 450.397 336.441 450.038 336.441H449.318Z" fill="white" fill-opacity="0.5"/>
<path d="M179.796 141.946L221.463 121.113H363.129L321.463 141.946H179.796Z" fill="#0F0F0F" fill-opacity="0.8" stroke="white" stroke-opacity="0.5" stroke-width="1.66667"/>
<path d="M179.796 141.946V200.279L221.463 221.113V121.113L179.796 141.946Z" fill="#0A0A0A" fill-opacity="0.85" stroke="white" stroke-opacity="0.5" stroke-width="1.66667"/>
<path d="M221 124.128V219.5L180.5 200V143L221 124.128Z" fill="url(#paint7_linear_5970_3667)" fill-opacity="0.4" stroke="white" stroke-opacity="0.2"/>
<path d="M363.13 121.113V221.113L321.463 200.279V141.946L363.13 121.113Z" fill="#121212" fill-opacity="0.8" stroke="white" stroke-opacity="0.5" stroke-width="1.66667"/>
<path d="M221.463 121.113V221.113H363.13V121.113H221.463Z" fill="#0C0C0C" fill-opacity="0.85" stroke="white" stroke-opacity="0.5" stroke-width="1.66667"/>
<path d="M179.796 141.946L221.463 121.113H363.129L321.463 141.946H179.796Z" fill="url(#paint8_linear_5970_3667)"/>
<path d="M179.796 141.946L221.463 121.113H363.129L321.463 141.946" stroke="#FF1A88" stroke-width="2.08333" stroke-dasharray="0.83 0.83"/>
<path d="M179.796 141.946V200.28" stroke="#FF1A88" stroke-width="2.08333" stroke-dasharray="0.83 0.83"/>
<path d="M363.129 121.113V221.113" stroke="#FF1A88" stroke-width="2.08333" stroke-dasharray="0.83 0.83"/>
<path d="M221.463 171.113H363.13" stroke="white" stroke-opacity="0.15" stroke-width="0.833333"/>
<path d="M292.296 121.113V221.113" stroke="white" stroke-opacity="0.15" stroke-width="0.833333"/>
<path d="M259.863 164.613V153.248H263.529C264.756 153.248 265.711 153.557 266.394 154.176C267.087 154.785 267.434 155.612 267.434 156.657C267.434 157.351 267.253 157.938 266.89 158.418C266.527 158.888 266.068 159.208 265.513 159.379C266.09 159.485 266.522 159.704 266.81 160.035C267.109 160.366 267.285 160.835 267.338 161.443L267.61 164.613H265.305L265.113 162.052C265.06 161.411 264.905 160.99 264.649 160.787C264.404 160.584 263.977 160.483 263.369 160.483H262.136V164.613H259.863ZM262.136 158.434H263.449C263.982 158.434 264.388 158.301 264.665 158.034C264.953 157.757 265.097 157.367 265.097 156.866C265.097 156.364 264.953 155.98 264.665 155.713C264.388 155.436 263.982 155.297 263.449 155.297H262.136V158.434ZM273.27 164.869C272.022 164.869 271.051 164.511 270.357 163.796C269.674 163.081 269.333 162.041 269.333 160.675V153.232H271.606V160.867C271.606 161.507 271.75 161.998 272.038 162.34C272.326 162.681 272.737 162.852 273.27 162.852C273.804 162.852 274.215 162.681 274.503 162.34C274.791 161.998 274.935 161.507 274.935 160.867V153.232H277.208V160.675C277.208 162.041 276.861 163.081 276.168 163.796C275.485 164.511 274.519 164.869 273.27 164.869ZM279.091 164.613V153.248H281.316L284.469 160.595V153.248H286.646V164.613H284.421L281.268 157.266V164.613H279.091ZM291.33 164.613V155.297H288.304V153.248H296.628V155.297H293.602V164.613H291.33ZM298.446 164.613V162.564H300.927V155.297H298.446V153.248H305.681V155.297H303.2V162.564H305.681V164.613H298.446ZM310.973 163.044L309.645 157.442V164.613H307.564V153.248H310.125L311.662 159.267L313.198 153.248H315.759V164.613H313.678V157.442L312.35 163.044H310.973ZM317.802 164.613V153.248H324.909V155.297H320.075V157.906H324.717V159.923H320.075V162.564H325.037V164.613H317.802Z" fill="white"/>
<path d="M265.763 179.42C265.258 179.42 264.83 179.288 264.478 179.024C264.131 178.76 263.867 178.384 263.685 177.897C263.503 177.41 263.413 176.832 263.413 176.163C263.413 175.488 263.503 174.907 263.685 174.42C263.867 173.927 264.131 173.548 264.478 173.284C264.83 173.02 265.258 172.888 265.763 172.888C266.332 172.888 266.811 173.076 267.198 173.451C267.585 173.821 267.844 174.346 267.973 175.027L267.004 175.08C266.916 174.646 266.761 174.317 266.538 174.094C266.321 173.865 266.062 173.751 265.763 173.751C265.311 173.751 264.965 173.962 264.724 174.384C264.49 174.801 264.372 175.394 264.372 176.163C264.372 176.932 264.49 177.524 264.724 177.941C264.965 178.352 265.311 178.557 265.763 178.557C266.086 178.557 266.362 178.434 266.591 178.188C266.82 177.941 266.972 177.58 267.048 177.105L268.008 177.149C267.902 177.865 267.65 178.422 267.251 178.822C266.858 179.221 266.362 179.42 265.763 179.42ZM271.015 179.385C270.581 179.385 270.2 179.285 269.871 179.086C269.548 178.886 269.296 178.604 269.114 178.24C268.938 177.871 268.85 177.436 268.85 176.938C268.85 176.439 268.938 176.007 269.114 175.643C269.296 175.274 269.548 174.989 269.871 174.789C270.2 174.59 270.581 174.49 271.015 174.49C271.45 174.49 271.828 174.59 272.151 174.789C272.48 174.989 272.732 175.274 272.908 175.643C273.09 176.007 273.181 176.439 273.181 176.938C273.181 177.436 273.09 177.871 272.908 178.24C272.732 178.604 272.48 178.886 272.151 179.086C271.828 179.285 271.45 179.385 271.015 179.385ZM271.015 178.566C271.409 178.566 271.711 178.422 271.922 178.135C272.139 177.847 272.248 177.448 272.248 176.938C272.248 176.427 272.139 176.028 271.922 175.74C271.711 175.453 271.409 175.309 271.015 175.309C270.622 175.309 270.317 175.453 270.1 175.74C269.889 176.028 269.783 176.427 269.783 176.938C269.783 177.448 269.889 177.847 270.1 178.135C270.317 178.422 270.622 178.566 271.015 178.566ZM274.393 179.279V178.531H275.581V175.344H274.393V174.596H276.285L276.338 175.494C276.497 174.895 276.872 174.596 277.465 174.596H278.46V175.37H277.5C276.814 175.37 276.47 175.746 276.47 176.497V178.531H277.932V179.279H274.393ZM281.635 179.385C281.194 179.385 280.81 179.285 280.481 179.086C280.159 178.88 279.906 178.596 279.724 178.232C279.548 177.862 279.46 177.431 279.46 176.938C279.46 176.445 279.548 176.016 279.724 175.652C279.906 175.282 280.156 174.998 280.473 174.798C280.795 174.593 281.174 174.49 281.608 174.49C282.025 174.49 282.392 174.587 282.709 174.781C283.026 174.974 283.272 175.256 283.448 175.626C283.63 175.996 283.721 176.439 283.721 176.955V177.202H280.393C280.417 177.654 280.54 177.994 280.763 178.223C280.986 178.452 281.28 178.566 281.643 178.566C281.919 178.566 282.148 178.502 282.33 178.373C282.512 178.243 282.638 178.07 282.709 177.853L283.642 177.915C283.507 178.361 283.263 178.719 282.911 178.989C282.565 179.253 282.139 179.385 281.635 179.385ZM280.393 176.489H282.762C282.726 176.089 282.603 175.793 282.392 175.599C282.181 175.406 281.919 175.309 281.608 175.309C281.274 175.309 281.001 175.409 280.79 175.608C280.584 175.808 280.452 176.101 280.393 176.489ZM290.264 179.279V173.029H294.103V173.9H291.189V175.723H293.997V176.568H291.189V178.408H294.173V179.279H290.264ZM295.473 179.279V174.596H296.291L296.309 175.441C296.432 175.118 296.626 174.88 296.89 174.728C297.154 174.569 297.45 174.49 297.779 174.49C298.125 174.49 298.413 174.569 298.642 174.728C298.877 174.88 299.053 175.092 299.17 175.362C299.288 175.626 299.346 175.925 299.346 176.26V179.279H298.457V176.489C298.457 175.673 298.146 175.265 297.524 175.265C297.201 175.265 296.925 175.37 296.696 175.582C296.473 175.793 296.362 176.101 296.362 176.506V179.279H295.473ZM302.662 180.705C302.134 180.705 301.693 180.582 301.341 180.336C300.989 180.089 300.763 179.761 300.663 179.35L301.597 179.288C301.661 179.488 301.773 179.64 301.931 179.746C302.095 179.857 302.339 179.913 302.662 179.913C303.055 179.913 303.354 179.831 303.56 179.667C303.771 179.508 303.877 179.265 303.877 178.936V178.249C303.765 178.49 303.589 178.681 303.348 178.822C303.114 178.962 302.841 179.033 302.53 179.033C302.142 179.033 301.796 178.939 301.491 178.751C301.192 178.557 300.954 178.29 300.778 177.95C300.608 177.61 300.522 177.219 300.522 176.779C300.522 176.321 300.605 175.922 300.769 175.582C300.939 175.235 301.174 174.968 301.473 174.781C301.773 174.587 302.113 174.49 302.495 174.49C302.817 174.49 303.105 174.566 303.357 174.719C303.61 174.866 303.792 175.068 303.903 175.326L303.912 174.596H304.766V178.874C304.766 179.461 304.578 179.913 304.202 180.23C303.827 180.547 303.313 180.705 302.662 180.705ZM302.653 178.24C303.017 178.24 303.31 178.111 303.533 177.853C303.756 177.595 303.871 177.234 303.877 176.77C303.883 176.301 303.771 175.937 303.542 175.679C303.319 175.414 303.023 175.282 302.653 175.282C302.271 175.282 301.975 175.414 301.764 175.679C301.558 175.937 301.456 176.301 301.456 176.77C301.456 177.234 301.561 177.595 301.773 177.853C301.984 178.111 302.277 178.24 302.653 178.24ZM305.995 179.279V178.531H307.826V175.344H306.083V174.596H308.724V178.531H310.291V179.279H305.995ZM307.773 173.918V172.993H308.689V173.918H307.773ZM311.309 179.279V174.596H312.128L312.145 175.441C312.269 175.118 312.462 174.88 312.726 174.728C312.99 174.569 313.287 174.49 313.616 174.49C313.962 174.49 314.249 174.569 314.478 174.728C314.713 174.88 314.889 175.092 315.007 175.362C315.124 175.626 315.183 175.925 315.183 176.26V179.279H314.293V176.489C314.293 175.673 313.982 175.265 313.36 175.265C313.037 175.265 312.762 175.37 312.533 175.582C312.31 175.793 312.198 176.101 312.198 176.506V179.279H311.309ZM318.586 179.385C318.146 179.385 317.762 179.285 317.433 179.086C317.11 178.88 316.858 178.596 316.676 178.232C316.5 177.862 316.412 177.431 316.412 176.938C316.412 176.445 316.5 176.016 316.676 175.652C316.858 175.282 317.107 174.998 317.424 174.798C317.747 174.593 318.125 174.49 318.56 174.49C318.976 174.49 319.343 174.587 319.66 174.781C319.977 174.974 320.224 175.256 320.4 175.626C320.582 175.996 320.673 176.439 320.673 176.955V177.202H317.345C317.368 177.654 317.492 177.994 317.715 178.223C317.938 178.452 318.231 178.566 318.595 178.566C318.871 178.566 319.1 178.502 319.282 178.373C319.464 178.243 319.59 178.07 319.66 177.853L320.593 177.915C320.458 178.361 320.215 178.719 319.863 178.989C319.516 179.253 319.091 179.385 318.586 179.385ZM317.345 176.489H319.713C319.678 176.089 319.555 175.793 319.343 175.599C319.132 175.406 318.871 175.309 318.56 175.309C318.225 175.309 317.952 175.409 317.741 175.608C317.536 175.808 317.404 176.101 317.345 176.489Z" fill="white" fill-opacity="0.8"/>
<path opacity="0.671725" d="M292.296 151.113C295.058 151.113 297.296 148.874 297.296 146.113C297.296 143.352 295.058 141.113 292.296 141.113C289.535 141.113 287.296 143.352 287.296 146.113C287.296 148.874 289.535 151.113 292.296 151.113Z" fill="#FF1A88"/>
<path d="M503.561 159.108L535.574 143.101H647.621L615.608 159.108H503.561Z" fill="url(#paint9_linear_5970_3667)" stroke="white" stroke-opacity="0.4" stroke-width="1.60067"/>
<path d="M503.561 159.108V223.135L535.574 239.142V143.101L503.561 159.108Z" fill="#070707" fill-opacity="0.95"/>
<path d="M503.561 159.108V223.135L535.574 239.142V143.101L503.561 159.108Z" fill="url(#paint10_linear_5970_3667)"/>
<path d="M503.561 159.108V223.135L535.574 239.142V143.101L503.561 159.108Z" stroke="white" stroke-opacity="0.4" stroke-width="1.60067"/>
<path d="M647.621 143.101V207.128L615.607 223.135V159.108L647.621 143.101Z" fill="#101010" fill-opacity="0.9"/>
<path d="M647.621 143.101V207.128L615.607 223.135V159.108L647.621 143.101Z" fill="url(#paint11_linear_5970_3667)"/>
<path d="M647.621 143.101V207.128L615.607 223.135V159.108L647.621 143.101Z" stroke="white" stroke-opacity="0.4" stroke-width="1.60067"/>
<path d="M535.573 143.101V239.142L647.62 207.128V143.101H535.573Z" fill="#0A0A0A" fill-opacity="0.9" stroke="white" stroke-opacity="0.4" stroke-width="1.60067"/>
<path d="M552.237 194.672C551.744 194.672 551.312 194.573 550.941 194.375C550.576 194.176 550.284 193.901 550.067 193.549C549.849 193.19 549.721 192.774 549.683 192.3L550.72 192.233C550.784 192.72 550.95 193.091 551.219 193.347C551.488 193.603 551.84 193.731 552.276 193.731C552.692 193.731 553.012 193.651 553.236 193.491C553.467 193.325 553.582 193.091 553.582 192.79C553.582 192.585 553.534 192.409 553.438 192.262C553.348 192.108 553.175 191.967 552.919 191.839C552.669 191.705 552.304 191.57 551.824 191.436C551.357 191.308 550.976 191.164 550.681 191.004C550.393 190.844 550.179 190.645 550.038 190.408C549.903 190.171 549.836 189.877 549.836 189.525C549.836 188.936 550.038 188.459 550.441 188.094C550.851 187.729 551.414 187.546 552.132 187.546C552.842 187.546 553.399 187.751 553.803 188.161C554.206 188.564 554.44 189.096 554.504 189.755L553.467 189.813C553.415 189.422 553.278 189.105 553.054 188.862C552.829 188.612 552.513 188.487 552.103 188.487C551.725 188.487 551.424 188.58 551.2 188.766C550.982 188.945 550.873 189.182 550.873 189.477C550.873 189.675 550.918 189.842 551.008 189.976C551.098 190.104 551.254 190.219 551.478 190.322C551.703 190.418 552.016 190.52 552.42 190.629C552.964 190.776 553.396 190.946 553.716 191.138C554.036 191.33 554.267 191.561 554.408 191.83C554.549 192.099 554.619 192.419 554.619 192.79C554.619 193.161 554.52 193.491 554.321 193.779C554.123 194.061 553.844 194.282 553.486 194.442C553.134 194.596 552.717 194.672 552.237 194.672ZM558.639 194.519C557.615 194.519 557.103 194.029 557.103 193.049V190.226H555.489V189.409H557.103V188.209H558.073V189.409H560.061V190.226H558.073V193.001C558.073 193.469 558.297 193.702 558.745 193.702H560.061V194.519H558.639ZM561.594 194.519V193.702H562.89V190.226H561.594V189.409H563.659L563.716 190.389C563.889 189.736 564.299 189.409 564.945 189.409H566.031V190.255H564.984C564.235 190.255 563.86 190.664 563.86 191.484V193.702H565.454V194.519H561.594ZM569.494 194.634C569.014 194.634 568.594 194.525 568.236 194.308C567.884 194.083 567.608 193.773 567.41 193.376C567.218 192.973 567.122 192.502 567.122 191.964C567.122 191.426 567.218 190.959 567.41 190.562C567.608 190.159 567.881 189.848 568.226 189.63C568.578 189.406 568.991 189.294 569.465 189.294C569.92 189.294 570.32 189.4 570.666 189.611C571.011 189.822 571.28 190.13 571.472 190.533C571.671 190.936 571.77 191.42 571.77 191.983V192.252H568.14C568.165 192.745 568.3 193.117 568.543 193.366C568.787 193.616 569.107 193.741 569.504 193.741C569.805 193.741 570.054 193.67 570.253 193.53C570.451 193.389 570.589 193.2 570.666 192.963L571.684 193.03C571.536 193.517 571.271 193.907 570.887 194.202C570.509 194.49 570.045 194.634 569.494 194.634ZM568.14 191.474H570.723C570.685 191.039 570.55 190.716 570.32 190.504C570.089 190.293 569.805 190.187 569.465 190.187C569.1 190.187 568.803 190.296 568.572 190.514C568.348 190.732 568.204 191.052 568.14 191.474ZM574.494 194.634C574.174 194.634 573.886 194.576 573.63 194.461C573.374 194.346 573.169 194.183 573.015 193.971C572.868 193.76 572.794 193.514 572.794 193.232C572.794 192.796 572.925 192.46 573.188 192.223C573.457 191.98 573.86 191.804 574.398 191.695L576.05 191.349C576.05 190.556 575.704 190.159 575.013 190.159C574.692 190.159 574.443 190.232 574.263 190.379C574.084 190.527 573.963 190.732 573.899 190.994L572.88 190.927C572.977 190.44 573.21 190.047 573.582 189.746C573.953 189.445 574.43 189.294 575.013 189.294C575.666 189.294 576.162 189.48 576.501 189.851C576.847 190.223 577.02 190.735 577.02 191.388V193.405C577.02 193.52 577.042 193.603 577.087 193.654C577.138 193.699 577.215 193.722 577.318 193.722H577.606V194.519C577.567 194.525 577.503 194.532 577.414 194.538C577.33 194.544 577.247 194.548 577.164 194.548C576.575 194.548 576.226 194.295 576.117 193.789C575.989 194.039 575.778 194.243 575.483 194.404C575.195 194.557 574.865 194.634 574.494 194.634ZM574.638 193.837C575.105 193.837 575.458 193.718 575.694 193.482C575.931 193.238 576.05 192.915 576.05 192.512V192.118L574.628 192.406C574.321 192.47 574.107 192.563 573.985 192.684C573.863 192.8 573.802 192.957 573.802 193.155C573.802 193.373 573.876 193.542 574.023 193.664C574.171 193.779 574.376 193.837 574.638 193.837ZM578.409 194.519V189.409H579.254L579.283 190.168C579.372 189.886 579.5 189.672 579.667 189.525C579.84 189.371 580.045 189.294 580.281 189.294C580.787 189.294 581.104 189.621 581.232 190.274C581.322 189.966 581.46 189.726 581.645 189.554C581.837 189.381 582.065 189.294 582.327 189.294C582.73 189.294 583.022 189.435 583.201 189.717C583.387 189.992 583.48 190.443 583.48 191.071V194.519H582.538V191.234C582.538 190.824 582.494 190.54 582.404 190.379C582.321 190.219 582.189 190.139 582.01 190.139C581.831 190.139 581.684 190.229 581.568 190.408C581.46 190.581 581.405 190.863 581.405 191.253V194.519H580.483V191.234C580.483 190.844 580.442 190.565 580.358 190.399C580.281 190.226 580.15 190.139 579.965 190.139C579.785 190.139 579.638 190.229 579.523 190.408C579.407 190.581 579.35 190.863 579.35 191.253V194.519H578.409ZM584.552 194.519V193.702H586.549V190.226H584.648V189.409H587.529V193.702H589.238V194.519H584.552ZM586.492 188.67V187.662H587.49V188.67H586.492ZM590.349 194.519V189.409H591.242L591.261 190.331C591.395 189.979 591.607 189.72 591.895 189.554C592.183 189.381 592.506 189.294 592.865 189.294C593.243 189.294 593.556 189.381 593.806 189.554C594.062 189.72 594.254 189.95 594.382 190.245C594.51 190.533 594.574 190.86 594.574 191.225V194.519H593.604V191.474C593.604 190.584 593.265 190.139 592.586 190.139C592.234 190.139 591.933 190.255 591.684 190.485C591.44 190.716 591.319 191.052 591.319 191.494V194.519H590.349ZM598.191 196.075C597.615 196.075 597.135 195.94 596.751 195.671C596.367 195.402 596.12 195.044 596.011 194.596L597.029 194.528C597.1 194.746 597.221 194.913 597.394 195.028C597.574 195.149 597.839 195.21 598.191 195.21C598.62 195.21 598.947 195.121 599.171 194.941C599.401 194.769 599.517 194.503 599.517 194.144V193.395C599.395 193.658 599.203 193.866 598.94 194.019C598.684 194.173 598.387 194.25 598.047 194.25C597.625 194.25 597.247 194.147 596.914 193.943C596.587 193.731 596.328 193.44 596.136 193.069C595.95 192.697 595.858 192.271 595.858 191.791C595.858 191.292 595.947 190.856 596.126 190.485C596.312 190.107 596.568 189.816 596.895 189.611C597.221 189.4 597.593 189.294 598.009 189.294C598.361 189.294 598.675 189.377 598.95 189.544C599.225 189.704 599.424 189.925 599.546 190.207L599.555 189.409H600.487V194.077C600.487 194.717 600.282 195.21 599.872 195.556C599.462 195.902 598.902 196.075 598.191 196.075ZM598.182 193.386C598.579 193.386 598.899 193.245 599.142 192.963C599.385 192.681 599.51 192.287 599.517 191.782C599.523 191.269 599.401 190.872 599.152 190.591C598.908 190.303 598.585 190.159 598.182 190.159C597.766 190.159 597.442 190.303 597.212 190.591C596.988 190.872 596.876 191.269 596.876 191.782C596.876 192.287 596.991 192.681 597.221 192.963C597.452 193.245 597.772 193.386 598.182 193.386Z" fill="white" fill-opacity="0.5"/>
<path d="M359.5 171.113L503.561 183.118" stroke="white" stroke-opacity="0.3" stroke-width="1.60067" stroke-dasharray="6.4 4.8"/>
<path d="M359.5 171.113L503.561 183.118" stroke="url(#paint12_linear_5970_3667)" stroke-width="1.60067" stroke-dasharray="6.4 4.8"/>
<path d="M382.19 176.205C383.958 176.205 385.391 174.772 385.391 173.004C385.391 171.236 383.958 169.802 382.19 169.802C380.421 169.802 378.988 171.236 378.988 173.004C378.988 174.772 380.421 176.205 382.19 176.205Z" fill="#FF1A88"/>
<path d="M291.471 219.133V279.158" stroke="white" stroke-opacity="0.25" stroke-width="1.60067" stroke-dasharray="4.8 3.2"/>
<path d="M291.471 219.133V279.158" stroke="url(#paint13_linear_5970_3667)" stroke-width="1.60067" stroke-dasharray="4.8 3.2"/>
<path d="M291.471 267.754C293.239 267.754 294.672 266.32 294.672 264.552C294.672 262.784 293.239 261.351 291.471 261.351C289.703 261.351 288.27 262.784 288.27 264.552C288.27 266.32 289.703 267.754 291.471 267.754Z" fill="#FF1A88"/>
<path d="M647.5 208L615.5 224.5L536 240L647.5 208Z" fill="#9D1658" stroke="white" stroke-opacity="0.4"/>
<defs>
<linearGradient id="paint0_linear_5970_3667" x1="79.382" y1="319.175" x2="79.382" y2="5121.2" gradientUnits="userSpaceOnUse">
<stop stop-color="#9E1658"/>
<stop offset="1" stop-color="#0D0D0D"/>
</linearGradient>
<linearGradient id="paint1_linear_5970_3667" x1="90.4982" y1="459" x2="90.4982" y2="-9091" gradientUnits="userSpaceOnUse">
<stop stop-color="#9E1658"/>
<stop offset="1" stop-color="#0D0D0D"/>
</linearGradient>
<linearGradient id="paint2_linear_5970_3667" x1="167" y1="319" x2="31267" y2="319" gradientUnits="userSpaceOnUse">
<stop stop-color="#FF1A88" stop-opacity="0.15"/>
<stop offset="1" stop-color="#FF1A88" stop-opacity="0.02"/>
</linearGradient>
<linearGradient id="paint3_linear_5970_3667" x1="109.498" y1="395" x2="109.498" y2="-9155" gradientUnits="userSpaceOnUse">
<stop stop-color="#9E1658"/>
<stop offset="1" stop-color="#0D0D0D"/>
</linearGradient>
<linearGradient id="paint4_linear_5970_3667" x1="171" y1="271" x2="27871" y2="271" gradientUnits="userSpaceOnUse">
<stop stop-color="#FF1A88" stop-opacity="0.15"/>
<stop offset="1" stop-color="#FF1A88" stop-opacity="0.02"/>
</linearGradient>
<linearGradient id="paint5_linear_5970_3667" x1="127.402" y1="215.132" x2="127.402" y2="2616.14" gradientUnits="userSpaceOnUse">
<stop stop-color="#9E1658"/>
<stop offset="1" stop-color="#0D0D0D"/>
</linearGradient>
<linearGradient id="paint6_linear_5970_3667" x1="132.998" y1="330.5" x2="132.998" y2="-9219.5" gradientUnits="userSpaceOnUse">
<stop stop-color="#9E1658"/>
<stop offset="1" stop-color="#0D0D0D"/>
</linearGradient>
<linearGradient id="paint7_linear_5970_3667" x1="185.998" y1="236.5" x2="185.998" y2="-9313.5" gradientUnits="userSpaceOnUse">
<stop stop-color="#9E1658"/>
<stop offset="1" stop-color="#0D0D0D"/>
</linearGradient>
<linearGradient id="paint8_linear_5970_3667" x1="179.796" y1="121.113" x2="179.796" y2="2204.45" gradientUnits="userSpaceOnUse">
<stop stop-color="#FF1A88" stop-opacity="0.6"/>
<stop offset="0.5" stop-color="#FF1A88" stop-opacity="0.3"/>
<stop offset="1" stop-color="#FF1A88" stop-opacity="0.05"/>
</linearGradient>
<linearGradient id="paint9_linear_5970_3667" x1="503.561" y1="143.101" x2="503.561" y2="1743.78" gradientUnits="userSpaceOnUse">
<stop stop-color="#9E1658"/>
<stop offset="1" stop-color="#0D0D0D"/>
</linearGradient>
<linearGradient id="paint10_linear_5970_3667" x1="503.561" y1="143.101" x2="503.561" y2="9747.15" gradientUnits="userSpaceOnUse">
<stop stop-color="#9E1658"/>
<stop offset="1" stop-color="#0D0D0D"/>
</linearGradient>
<linearGradient id="paint11_linear_5970_3667" x1="615.607" y1="143.101" x2="615.607" y2="8146.47" gradientUnits="userSpaceOnUse">
<stop stop-color="#9E1658"/>
<stop offset="1" stop-color="#0D0D0D"/>
</linearGradient>
<linearGradient id="paint12_linear_5970_3667" x1="359.5" y1="177.115" x2="503.561" y2="177.115" gradientUnits="userSpaceOnUse">
<stop stop-color="#12C2E9"/>
<stop offset="0.5" stop-color="#C471ED"/>
<stop offset="1" stop-color="#F64F59"/>
</linearGradient>
<linearGradient id="paint13_linear_5970_3667" x1="291.471" y1="249.146" x2="292.471" y2="249.146" gradientUnits="userSpaceOnUse">
<stop stop-color="#12C2E9"/>
<stop offset="0.5" stop-color="#C471ED"/>
<stop offset="1" stop-color="#F64F59"/>
</linearGradient>
</defs>
</svg>
